<svg width="32" height="28" viewBox="0 0 32 28" fill="none" xmlns="http://www.w3.org/2000/svg">
<g clip-path="url(#clip0)">
<path d="M29.7979 10.1106V1.75055C29.7979 1.27203 29.4156 0 28.0456 0H28.0451C27.6551 0 27.2678 0.130156 26.9507 0.383906L22.2931 4.1043C19.9536 5.97133 17.0166 7 14.0225 7H3.50564C1.56932 7 0 8.5668 0 10.5V15.75C0 17.6832 1.56932 19.25 3.50564 19.25L3.47934 21C3.47934 23.1749 3.98657 25.2301 4.87941 27.067C5.16369 27.6516 5.7843 28 6.43503 28H12.2566C13.6835 28 14.5402 26.3681 13.6753 25.235C12.7769 24.0581 12.2429 22.5903 12.2429 21C12.2429 20.3924 12.3316 19.8084 12.4844 19.25H14.0225C17.0166 19.25 19.9536 20.2787 22.2926 22.1457L26.9501 25.8661C27.2608 26.1143 27.6467 26.2497 28.0445 26.25C29.4095 26.25 29.7974 25.0042 29.7974 24.5V16.1399C30.8408 15.5334 31.5502 14.4178 31.5502 13.1255C31.5507 11.8327 30.8414 10.7171 29.7979 10.1106ZM6.99648 25.375C6.4071 23.9832 6.10857 22.5143 6.10857 21C6.10857 20.2223 6.20279 19.6142 6.25099 19.25H9.80647C9.69199 19.8352 9.61366 20.4209 9.61366 21C9.61366 22.5433 9.97408 24.0297 10.6659 25.375H6.99648ZM13.1461 16.625H3.50564C3.02252 16.625 2.62923 16.2323 2.62923 15.75V10.5C2.62923 10.0177 3.02252 9.625 3.50564 9.625H13.1461V16.625ZM27.1687 22.6789L23.9347 20.0955C21.5903 18.2241 18.7426 17.0674 15.7754 16.7349V9.51508C18.7426 9.18258 21.5903 8.02594 23.9353 6.15398L27.1687 3.57109V22.6789Z" fill="white"/>
</g>
<defs>
<clipPath id="clip0">
<rect width="31.5507" height="28" fill="white"/>
</clipPath>
</defs>
</svg>
