<svg width="234" height="170" viewBox="0 0 234 170" fill="none" xmlns="http://www.w3.org/2000/svg">
<g clip-path="url(#clip0)">
<g opacity="0.1">
<path opacity="0.7" d="M14.1363 25.4248C16.3089 29.2054 15.1055 34.1127 12.7455 37.7783C10.3855 41.4439 7.02879 44.3534 4.41324 47.8507C-0.785911 54.8284 -2.1299 65.8465 4.42602 71.5802C5.83816 72.8156 7.5847 73.7932 8.44519 75.4588C9.63369 77.757 8.75403 80.5259 7.85733 82.9604L7.78278 83.1606C4.39407 92.347 9.38661 102.528 18.7434 105.41C23.9212 107.005 28.5943 109.591 32.0533 113.772C35.0756 117.427 36.8222 121.936 38.8158 126.238C42.4196 134.01 47.0714 141.442 53.4995 147.101C59.9276 152.76 68.3153 156.511 76.8776 156.202C96.4345 155.497 110.835 134.903 130.373 133.819C131.781 133.74 133.28 133.793 134.458 134.569C136.119 135.663 136.628 137.812 137.327 139.68C141.027 149.57 152.166 154.128 162.141 157.591L180.884 164.104C191.065 167.64 201.757 171.229 212.407 169.591C223.057 167.953 233.455 159.208 232.993 148.439C232.613 139.593 225.282 131.808 226.243 123.005C226.907 116.922 231.463 111.812 232.226 105.74C233.02 99.4205 229.566 93.3523 225.589 88.3768C214.147 74.0552 197.84 64.6154 181.926 55.51C170.716 49.0946 159.448 42.6537 147.38 38.0446C117.629 26.7112 84.9308 27.199 53.2375 24.1063C47.787 23.5739 42.0895 22.9477 37.0948 20.5387C33.2609 18.6899 30.2641 14.4152 26.0575 13.51C22.852 12.8199 18.1108 14.2448 15.3121 15.8018C10.2109 18.6601 11.6166 21.0392 14.1363 25.4248Z" fill="#FFB74C"/>
</g>
<path d="M210.409 0H39.229C38.4452 0.00334754 37.6699 0.161135 36.9472 0.464342C36.2245 0.767548 35.5686 1.21023 35.0171 1.76707C34.4656 2.32391 34.0293 2.98399 33.7331 3.70958C33.4368 4.43517 33.2865 5.21203 33.2907 5.99574V126.379C33.2865 127.163 33.4368 127.94 33.7331 128.665C34.0293 129.391 34.4656 130.051 35.0171 130.608C35.5686 131.165 36.2245 131.607 36.9472 131.911C37.6699 132.214 38.4452 132.372 39.229 132.375H210.409C211.193 132.372 211.968 132.214 212.691 131.911C213.413 131.607 214.069 131.165 214.621 130.608C215.172 130.051 215.609 129.391 215.905 128.665C216.201 127.94 216.351 127.163 216.347 126.379V5.99574C216.351 5.21203 216.201 4.43517 215.905 3.70958C215.609 2.98399 215.172 2.32391 214.621 1.76707C214.069 1.21023 213.413 0.767548 212.691 0.464342C211.968 0.161135 211.193 0.00334754 210.409 0Z" fill="url(#paint0_linear)"/>
<path d="M215.574 12.7542V124.944C215.574 126.505 214.954 128.002 213.85 129.107C212.746 130.211 211.248 130.831 209.687 130.831H40.0192C38.4578 130.831 36.9604 130.211 35.8564 129.107C34.7523 128.002 34.1321 126.505 34.1321 124.944V12.7542H215.574Z" fill="#F6F7F9"/>
<path d="M78.4537 70.5793V130.829H40.0192C36.7689 130.829 34.1321 128.141 34.1321 124.826V70.5793H78.4537Z" fill="#DDE1EC"/>
<path d="M165.482 26.4897H91.6123V28.5664H165.482V26.4897Z" fill="#DDE1EC"/>
<path d="M136.164 41.2629H91.6123V43.3396H136.164V41.2629Z" fill="#DDE1EC"/>
<path d="M161.097 41.2629H146.092V43.3396H161.097V41.2629Z" fill="#DDE1EC"/>
<g opacity="0.1">
<path opacity="0.1" d="M62.7562 93.0862H47.7509V95.1629H62.7562V93.0862Z" fill="#FFB74C"/>
</g>
<path d="M161.097 60.6538H146.092V62.7305H161.097V60.6538Z" fill="#DDE1EC"/>
<path d="M161.097 80.0447H146.092V82.1214H161.097V80.0447Z" fill="#DDE1EC"/>
<path d="M161.097 47.7273H146.092V49.804H161.097V47.7273Z" fill="#DDE1EC"/>
<path d="M186.95 47.7273H171.945V49.804H186.95V47.7273Z" fill="#DDE1EC"/>
<path d="M161.097 54.1897H146.092V56.2664H161.097V54.1897Z" fill="#DDE1EC"/>
<path d="M186.95 54.1897H171.945V56.2664H186.95V54.1897Z" fill="#DDE1EC"/>
<path d="M186.95 66.1938H171.945V68.2705H186.95V66.1938Z" fill="#DDE1EC"/>
<path d="M186.95 72.6582H171.945V74.7349H186.95V72.6582Z" fill="#DDE1EC"/>
<path d="M186.95 86.509H171.945V88.5857H186.95V86.509Z" fill="#DDE1EC"/>
<path d="M136.164 47.7273H91.6123V49.804H136.164V47.7273Z" fill="#DDE1EC"/>
<path d="M136.164 54.1897H91.6123V56.2664H136.164V54.1897Z" fill="#DDE1EC"/>
<path d="M136.164 60.6538H91.6123V62.7305H136.164V60.6538Z" fill="#DDE1EC"/>
<path d="M136.164 67.1182H91.6123V69.1948H136.164V67.1182Z" fill="#DDE1EC"/>
<path d="M136.164 73.5803H91.6123V75.657H136.164V73.5803Z" fill="#DDE1EC"/>
<path d="M136.164 80.0447H91.6123V82.1214H136.164V80.0447Z" fill="#DDE1EC"/>
<path d="M136.164 86.509H91.6123V88.5857H136.164V86.509Z" fill="#DDE1EC"/>
<path d="M78.4537 12.6389H34.1321V71.7337H78.4537V12.6389Z" fill="#FFB74C"/>
<path d="M215.574 6.75193C215.573 5.19094 214.953 3.69407 213.849 2.59049C212.745 1.4869 211.248 0.866943 209.687 0.866943H40.0192C38.4578 0.866943 36.9604 1.48719 35.8564 2.59124C34.7523 3.69529 34.1321 5.1927 34.1321 6.75406V13.4484H215.574V6.75193Z" fill="#E8EAF1"/>
<path d="M41.2886 9.40796C42.5637 9.40796 43.5974 8.37426 43.5974 7.09912C43.5974 5.82399 42.5637 4.79028 41.2886 4.79028C40.0134 4.79028 38.9797 5.82399 38.9797 7.09912C38.9797 8.37426 40.0134 9.40796 41.2886 9.40796Z" fill="#FF5252"/>
<path d="M48.9052 9.40796C50.1803 9.40796 51.214 8.37426 51.214 7.09912C51.214 5.82399 50.1803 4.79028 48.9052 4.79028C47.63 4.79028 46.5963 5.82399 46.5963 7.09912C46.5963 8.37426 47.63 9.40796 48.9052 9.40796Z" fill="#FFFF00"/>
<path d="M56.5239 9.40796C57.7991 9.40796 58.8328 8.37426 58.8328 7.09912C58.8328 5.82399 57.7991 4.79028 56.5239 4.79028C55.2488 4.79028 54.2151 5.82399 54.2151 7.09912C54.2151 8.37426 55.2488 9.40796 56.5239 9.40796Z" fill="#69F0AE"/>
<path d="M69.2225 42.1875C69.2266 45.148 68.2095 48.0194 66.3429 50.3174C66.2726 50.4047 66.2023 50.4899 66.1299 50.5751C66.1158 50.5896 66.1029 50.6053 66.0915 50.622C65.4302 51.3873 64.6818 52.0728 63.8615 52.6646L63.755 52.7434C63.6081 52.8477 63.459 52.9564 63.3077 53.0458L63.2034 53.1119L62.9797 53.2503C62.9467 53.2712 62.9125 53.2904 62.8775 53.3078C62.8498 53.3277 62.8206 53.3455 62.7902 53.3611C62.4622 53.5528 62.1235 53.7295 61.7763 53.8914C61.738 53.9127 61.6954 53.9298 61.6549 53.9489C61.6144 53.9681 61.5676 53.9915 61.5207 54.0086C61.4739 54.0256 61.3823 54.0703 61.3077 54.098C60.5639 54.4129 59.7914 54.6554 59.001 54.8222C58.2477 54.9835 57.4814 55.0768 56.7114 55.1012H56.5942H56.2896C55.2734 55.1047 54.2604 54.9882 53.2715 54.754L53.0862 54.7093C52.6517 54.5957 52.2257 54.4637 51.8083 54.3131C51.5548 54.2194 51.3035 54.1172 51.0585 54.0086C50.9968 53.9809 50.9371 53.9553 50.8754 53.9255L50.6901 53.8424L50.5282 53.7594L50.3578 53.672L50.1682 53.5719L49.9552 53.4505L49.9212 53.4314C49.0132 52.9161 48.1708 52.2932 47.4121 51.5762C47.3482 51.5144 47.2822 51.4548 47.2204 51.3888C47.1586 51.3227 47.0862 51.2567 47.0223 51.1885C45.5469 49.6691 44.4674 47.8104 43.8788 45.7759C43.2902 43.7415 43.2104 41.5935 43.6466 39.521C44.0829 37.4485 45.0216 35.5149 46.3804 33.8903C47.7391 32.2657 49.4763 30.9998 51.439 30.204C53.4017 29.4082 55.5299 29.1069 57.6365 29.3265C59.743 29.5461 61.7632 30.28 63.5196 31.4635C65.276 32.6471 66.7146 34.244 67.7091 36.114C68.7035 37.9839 69.2232 40.0696 69.2225 42.1875Z" fill="white"/>
<path d="M63.5655 47.3654V47.3824L63.5804 47.3973C63.5762 47.3845 63.5698 47.376 63.5655 47.3654ZM50.5389 53.7551C50.5176 53.457 50.4963 53.1886 50.4771 52.9586C50.4622 52.7967 50.4473 52.6519 50.4346 52.5326C50.4333 52.527 50.4333 52.5211 50.4346 52.5155C50.4346 52.4857 50.4346 52.458 50.4346 52.4303C50.2293 52.7437 50.0606 53.0796 49.9319 53.4314L49.966 53.4506L50.179 53.572L50.3685 53.6721L50.5389 53.7594C50.5389 53.8545 50.546 53.9539 50.5602 54.0576C50.5496 53.9554 50.5453 53.8574 50.5389 53.7615V53.7551ZM53.3738 41.5784L53.3845 41.5975C53.3853 41.6025 53.3853 41.6075 53.3845 41.6124C53.3826 41.6027 53.379 41.5933 53.3738 41.5848V41.5784Z" fill="url(#paint1_linear)"/>
<path d="M57.082 39.4036C57.082 39.4036 56.3131 42.8583 58.426 44.6837C60.5389 46.509 53.4356 47.9382 52.1832 46.411C50.9308 44.8839 53.0522 44.1043 53.0522 44.1043C53.0522 44.1043 54.1172 43.2396 53.0522 40.6496L57.082 39.4036Z" fill="#E0A17E"/>
<path d="M58.999 54.8263C58.2456 54.9876 57.4793 55.0809 56.7093 55.1053H56.5921H56.2876C55.2719 55.1073 54.2596 54.9893 53.2716 54.7539L53.0863 54.7092C52.6518 54.5956 52.2258 54.4635 51.8083 54.313L51.5953 51.1181L52.5197 46.6942L53.0629 44.0872L53.2162 43.3588L53.3717 43.5718L53.4058 43.6186L53.4484 43.674L55.1523 45.9424L56.8967 44.0638L56.9862 43.9658L57.4654 43.4482L57.6465 43.2544L57.7317 43.9125L58.0384 46.2789L58.6071 50.6431L58.999 54.8263Z" fill="#F0F1F5"/>
<path opacity="0.1" d="M63.7529 52.7434C63.6059 52.8478 63.4568 52.9564 63.3056 53.0459L63.2012 53.1119L62.9776 53.2503C62.9445 53.2713 62.9104 53.2905 62.8754 53.3078C62.8476 53.3278 62.8184 53.3456 62.788 53.3611C62.3188 52.9609 61.9663 52.4413 61.7678 51.8574C61.7427 51.7832 61.7214 51.7079 61.7039 51.6316C61.7029 51.6195 61.7029 51.6074 61.7039 51.5954L61.5825 51.9149L61.2098 52.8371C61.2098 52.8371 61.3205 53.2887 61.5186 54.0043C61.449 54.037 61.378 54.0668 61.3056 54.0938C60.5617 54.4087 59.7893 54.6512 58.9989 54.818C58.2455 54.9792 57.4793 55.0726 56.7092 55.097H56.5921C56.4844 54.1069 56.4467 53.1105 56.4792 52.1151L56.7603 46.7541L56.903 44.0491L56.9819 42.5581C56.9819 42.5581 57.0095 42.5879 57.0628 42.6369C57.116 42.6859 57.1522 42.7221 57.2161 42.7796C58.1668 43.6102 59.3643 44.105 60.624 44.1875C60.9719 44.1975 61.3128 44.2877 61.6202 44.451C61.9275 44.6142 62.1931 44.8462 62.3961 45.1289C62.7811 45.6763 63.0287 46.3082 63.1182 46.9713L63.1821 47.557L63.1991 47.7232L63.2225 47.9362L63.7529 52.7434Z" fill="black"/>
<path d="M63.8594 52.6665L63.7529 52.7453C63.6059 52.8497 63.4568 52.9583 63.3056 53.0478L63.2012 53.1138L62.9776 53.2523C62.4767 52.8496 62.0953 52.3179 61.8743 51.7145C61.864 51.6895 61.8555 51.6639 61.8487 51.6378C61.8253 51.5632 61.804 51.4844 61.787 51.4077L61.6996 51.6356L61.5804 51.9445L61.3077 52.6559C61.3077 52.6559 61.4334 53.1671 61.6549 53.9551C61.6102 53.9764 61.5676 53.9977 61.5207 54.0148C61.4739 54.0318 61.3823 54.0765 61.3077 54.1042C60.5639 54.4191 59.7914 54.6616 59.001 54.8284C58.2477 54.9897 57.4814 55.083 56.7113 55.1074C56.5871 54.053 56.5422 52.9907 56.5772 51.9296L56.8498 46.7347L56.9946 43.9658L57.0649 42.6601L57.0777 42.3896C57.089 42.4024 57.1011 42.4145 57.1139 42.4259C58.0951 43.3678 59.3775 43.9328 60.7348 44.0212C61.0778 44.031 61.4141 44.1188 61.7181 44.2779C62.0222 44.4369 62.2861 44.6631 62.4898 44.9392C62.8855 45.4913 63.1399 46.1319 63.2311 46.805L63.3439 47.855V47.8699L63.3674 48.0829L63.8594 52.6665Z" fill="#293158"/>
<path opacity="0.1" d="M53.5037 43.0393V43.1692L53.4696 43.6634L53.3504 45.3545C53.3504 45.3545 53.2801 45.8423 53.2289 46.9413C53.1544 48.3897 53.1097 50.8987 53.2822 54.7582L53.0969 54.7134C52.6624 54.5998 52.2364 54.4678 51.8189 54.3173C51.5655 54.2236 51.3141 54.1213 51.0692 54.0127C51.0074 53.985 50.9478 53.9594 50.886 53.9296C50.8243 53.0777 50.7497 52.5558 50.7497 52.5558C50.7497 52.5558 50.6922 52.6282 50.6049 52.7688C50.5687 52.8263 50.5239 52.8966 50.4771 52.9818L50.4664 53.001C50.4253 53.072 50.3812 53.1529 50.3344 53.2438C50.2811 53.3503 50.2279 53.4568 50.1768 53.591L49.9638 53.4696L49.9297 53.4504C49.0218 52.9352 48.1793 52.3123 47.4207 51.5952C47.7636 50.3876 48.0596 49.1735 48.1661 49.018C48.5633 48.4079 48.8683 47.7426 49.0713 47.0436C49.2132 46.5687 49.4588 46.1314 49.7903 45.763C50.1218 45.3947 50.531 45.1046 50.9883 44.9136C51.9439 44.4658 52.7983 43.8281 53.4994 43.0393H53.5037Z" fill="black"/>
<path d="M53.5059 42.9799C52.6815 43.6779 51.763 44.2566 50.7775 44.6987C50.3202 44.8897 49.911 45.1798 49.5795 45.5481C49.248 45.9165 49.0024 46.3538 48.8605 46.8287C48.6575 47.5277 48.3525 48.193 47.9553 48.8031C47.8509 48.9586 47.5528 50.1748 47.2098 51.3846C47.2716 51.4485 47.3376 51.5102 47.4015 51.572C48.1602 52.2891 49.0027 52.9119 49.9106 53.4272L49.9447 53.4463C50.0689 53.1298 50.226 52.8271 50.4132 52.5432L50.4239 52.5262C50.4984 52.4155 50.5453 52.3558 50.5453 52.3558C50.5453 52.3558 50.5645 52.4964 50.5922 52.7499C50.6199 53.0033 50.6561 53.3888 50.6901 53.8361L50.8754 53.9192C50.9351 53.949 50.9947 53.9746 51.0586 54.0022C51.3036 54.1109 51.5549 54.2152 51.8083 54.3068C52.2216 54.4588 52.6475 54.5908 53.0863 54.703C52.9116 50.8819 52.95 48.3643 53.0203 46.8798C53.0757 45.6828 53.1502 45.1524 53.1502 45.1524L53.4207 43.5976L53.4974 43.1588L53.5336 42.9458L53.5059 42.9799Z" fill="#293158"/>
<path opacity="0.1" d="M54.8753 42.7646C54.3965 42.7651 53.9237 42.6566 53.493 42.4472C53.4186 41.8953 53.2703 41.3559 53.0521 40.8434L57.0819 39.5974C56.9351 40.3696 56.907 41.1597 56.9989 41.9403C56.4183 42.4698 55.6611 42.7637 54.8753 42.7646Z" fill="black"/>
<path d="M54.8753 42.5729C56.6245 42.5729 58.0425 41.1549 58.0425 39.4057C58.0425 37.6565 56.6245 36.2385 54.8753 36.2385C53.1261 36.2385 51.7081 37.6565 51.7081 39.4057C51.7081 41.1549 53.1261 42.5729 54.8753 42.5729Z" fill="#E0A17E"/>
<g opacity="0.1">
<path opacity="0.1" d="M61.3121 54.1022C61.0629 53.2268 60.9244 52.6517 60.9244 52.6517L61.4037 51.4036C61.4412 51.579 61.4961 51.7502 61.5677 51.9148L61.5783 51.9424L61.3057 52.6538C61.3057 52.6538 61.4314 53.165 61.6529 53.9531C61.6081 53.9744 61.5655 53.9957 61.5187 54.0127C61.4718 54.0298 61.3802 54.0745 61.3121 54.1022Z" fill="black"/>
</g>
<path d="M65.05 48.1386C65.05 48.1386 64.7625 45.3548 65.05 44.0108C65.3376 42.6668 61.6911 44.2025 62.4579 46.0257C62.8682 47.0364 63.3829 48.0015 63.9936 48.9053L65.05 48.1386Z" fill="#E0A17E"/>
<path opacity="0.1" d="M66.0894 50.6218C65.4281 51.3871 64.6797 52.0726 63.8594 52.6644L63.7529 52.7432C63.6059 52.8476 63.4568 52.9562 63.3056 53.0457C62.9623 52.6384 62.6558 52.2015 62.3898 51.74L62.3621 51.691L63.131 47.6591L63.2119 47.7421C63.246 47.7741 63.2907 47.8167 63.344 47.8593H63.3546C63.7529 48.2001 64.5942 48.7113 64.9989 47.5228C65.0673 47.3147 65.1165 47.1008 65.1459 46.8838L65.2247 47.1777L65.2715 47.3502L66.1235 50.5643L66.0894 50.6218Z" fill="black"/>
<path d="M66.0894 50.6219C65.4281 51.3873 64.6797 52.0728 63.8594 52.6645L63.7529 52.7433C63.6059 52.8477 63.4568 52.9563 63.3056 53.0458L63.2013 53.1118C62.889 52.7246 62.6084 52.3129 62.3621 51.8807L62.3898 51.738L63.131 47.8487C63.131 47.8487 63.1693 47.8935 63.2353 47.9552L63.3674 48.0724C63.4228 48.1192 63.4867 48.1704 63.5569 48.2172C63.9978 48.5197 64.6688 48.7476 65.0096 47.6847C65.0723 47.4874 65.1179 47.285 65.1459 47.0798L65.2438 47.4419L66.0894 50.6219Z" fill="#293158"/>
<path opacity="0.02" d="M66.0894 50.6219C65.4281 51.3873 64.6797 52.0728 63.8594 52.6645L63.7529 52.7433C63.6059 52.8477 63.4568 52.9563 63.3056 53.0458L63.2013 53.1118C62.889 52.7246 62.6084 52.3129 62.3621 51.8807L62.3898 51.738L63.131 47.8487C63.131 47.8487 63.1693 47.8935 63.2353 47.9552L63.3674 48.0724C63.4228 48.1192 63.4867 48.1704 63.5569 48.2172C63.9978 48.5197 64.6688 48.7476 65.0096 47.6847C65.0723 47.4874 65.1179 47.285 65.1459 47.0798L65.2438 47.4419L66.0894 50.6219Z" fill="black"/>
<path opacity="0.1" d="M50.4345 52.5346L50.4238 52.5516C50.4238 52.541 50.4238 52.5282 50.4238 52.5197C50.558 52.0532 50.6794 51.738 50.788 51.6443C50.788 51.6443 50.9308 52.5921 51.0585 54.0128C50.9968 53.9851 50.9371 53.9595 50.8754 53.9297L50.6901 53.8466C50.6581 53.3887 50.624 53.016 50.5921 52.7604C50.5601 52.5048 50.5452 52.3663 50.5452 52.3663C50.5452 52.3663 50.509 52.4238 50.4345 52.5346Z" fill="black"/>
<path opacity="0.1" d="M54.9137 38.5324C55.0793 38.4416 55.27 38.4072 55.4569 38.4344C55.5376 38.4685 55.6102 38.5193 55.6699 38.5835C55.9191 38.8199 56.1661 39.0947 56.5026 39.1671C56.7105 39.1987 56.9225 39.1893 57.1267 39.1394C57.485 39.098 57.8329 38.9919 58.1533 38.8263C58.8669 38.4003 59.0948 37.4781 59.1395 36.6495C59.1544 36.3705 59.0969 36.0105 58.8221 35.9509C58.4728 35.8764 58.2172 36.4067 57.8637 36.3492C57.7562 36.3231 57.6594 36.2643 57.5868 36.1809C57.3461 35.9403 57.1821 35.6314 56.9478 35.3886C56.5732 35.0385 56.088 34.8306 55.5761 34.8007C55.0685 34.7732 54.5595 34.8213 54.066 34.9434C53.7939 34.9884 53.5311 35.0784 53.2886 35.2097C53.1685 35.2754 53.0642 35.3667 52.9833 35.4771C52.9023 35.5875 52.8466 35.7143 52.82 35.8487C52.7966 36.034 52.8456 36.2257 52.8094 36.4088C52.7736 36.5326 52.7127 36.6476 52.6307 36.7469C52.5486 36.8462 52.4471 36.9276 52.3323 36.986C52.1193 37.1181 51.8679 37.199 51.6592 37.3609C51.3275 37.6186 51.0974 37.9852 51.0096 38.3961C50.9244 38.8046 50.9129 39.2252 50.9755 39.6378C51.0629 40.3547 51.2627 41.0534 51.5676 41.7081C51.6684 41.9366 51.798 42.1514 51.9531 42.3471C52.1809 42.5956 52.4426 42.8107 52.7306 42.986C52.7827 43.0334 52.8448 43.0684 52.9122 43.0887C52.9796 43.109 53.0507 43.1139 53.1203 43.1032C53.1602 43.0889 53.1971 43.0672 53.229 43.0393C53.5016 42.8114 53.5272 42.4003 53.442 42.0531C53.3568 41.706 53.2119 41.3758 53.1949 41.0222C53.184 40.923 53.2033 40.8228 53.2503 40.7347C53.3071 40.6634 53.3713 40.5985 53.442 40.5409C53.5342 40.4348 53.6064 40.3128 53.6549 40.1809C53.8179 39.855 53.9293 39.5058 53.9851 39.1458C54.0159 38.8493 53.951 38.5507 53.7998 38.2938C53.9461 38.4314 54.1272 38.5263 54.3235 38.5683C54.5199 38.6104 54.724 38.5979 54.9137 38.5324Z" fill="black"/>
<path d="M54.9137 38.4218C55.0793 38.331 55.27 38.2966 55.4569 38.3238C55.5376 38.3579 55.6102 38.4087 55.6699 38.4729C55.9191 38.7093 56.1661 38.9841 56.5026 39.0565C56.7105 39.0881 56.9225 39.0787 57.1267 39.0288C57.485 38.9874 57.8329 38.8813 58.1533 38.7157C58.8669 38.2897 59.0948 37.3675 59.1395 36.5389C59.1544 36.2599 59.0969 35.8999 58.8221 35.8403C58.4728 35.7658 58.2172 36.2961 57.8637 36.2386C57.7562 36.2125 57.6594 36.1537 57.5868 36.0703C57.3461 35.8297 57.1821 35.5208 56.9478 35.278C56.5732 34.9279 56.088 34.72 55.5761 34.6901C55.0685 34.6626 54.5595 34.7107 54.066 34.8329C53.7939 34.8778 53.5311 34.9678 53.2886 35.0991C53.1685 35.1648 53.0642 35.2561 52.9833 35.3665C52.9023 35.4769 52.8466 35.6038 52.82 35.7381C52.7966 35.9234 52.8456 36.1151 52.8094 36.2982C52.7736 36.422 52.7127 36.537 52.6307 36.6363C52.5486 36.7356 52.4471 36.817 52.3323 36.8755C52.1193 37.0075 51.8679 37.0884 51.6592 37.2503C51.3275 37.5081 51.0974 37.8747 51.0096 38.2855C50.9244 38.6941 50.9129 39.1146 50.9755 39.5272C51.0629 40.2441 51.2627 40.9428 51.5676 41.5975C51.6684 41.826 51.798 42.0408 51.9531 42.2365C52.1809 42.485 52.4426 42.7001 52.7306 42.8755C52.7827 42.9228 52.8448 42.9579 52.9122 42.9781C52.9796 42.9984 53.0507 43.0033 53.1203 42.9926C53.1602 42.9783 53.1971 42.9566 53.229 42.9287C53.5016 42.7008 53.5272 42.2897 53.442 41.9426C53.3568 41.5954 53.2119 41.2652 53.1949 40.9117C53.184 40.8124 53.2033 40.7122 53.2503 40.6241C53.3071 40.5529 53.3713 40.4879 53.442 40.4303C53.5342 40.3242 53.6064 40.2023 53.6549 40.0703C53.8179 39.7445 53.9293 39.3953 53.9851 39.0352C54.0159 38.7387 53.951 38.4401 53.7998 38.1832C53.9461 38.3208 54.1272 38.4157 54.3235 38.4578C54.5199 38.4998 54.724 38.4874 54.9137 38.4218Z" fill="#463E3B"/>
<path d="M37.4867 120.628C40.4499 120.628 42.852 119.746 42.852 118.658C42.852 117.57 40.4499 116.688 37.4867 116.688C34.5236 116.688 32.1215 117.57 32.1215 118.658C32.1215 119.746 34.5236 120.628 37.4867 120.628Z" fill="#CD9494"/>
<path opacity="0.05" d="M37.4867 119.444C38.9983 119.444 40.2237 118.994 40.2237 118.439C40.2237 117.883 38.9983 117.433 37.4867 117.433C35.9751 117.433 34.7498 117.883 34.7498 118.439C34.7498 118.994 35.9751 119.444 37.4867 119.444Z" fill="black"/>
<path d="M32.1193 118.226C32.1193 118.226 38.032 121.51 42.8499 118.665C42.8499 118.665 42.1939 130.053 38.9074 131.148H34.5304C34.5304 131.148 30.8073 123.474 32.1193 118.226Z" fill="#FF7361"/>
<path d="M42.1193 97.3524C43.6252 102.854 37.2056 118.526 37.2056 118.526C37.2056 118.526 23.704 108.302 22.1981 102.803C21.4754 100.161 21.8316 97.3406 23.1885 94.9615C24.5454 92.5825 26.7918 90.8399 29.4335 90.1171C32.0752 89.3943 34.8959 89.7506 37.2749 91.1074C39.654 92.4643 41.3966 94.7107 42.1193 97.3524Z" fill="#FFB74C"/>
<path opacity="0.1" d="M42.1193 97.3524C43.6252 102.854 37.2056 118.526 37.2056 118.526C37.2056 118.526 23.704 108.302 22.1981 102.803C21.4754 100.161 21.8316 97.3406 23.1885 94.9615C24.5454 92.5825 26.7918 90.8399 29.4335 90.1171C32.0752 89.3943 34.8959 89.7506 37.2749 91.1074C39.654 92.4643 41.3966 94.7107 42.1193 97.3524Z" fill="black"/>
<path d="M29.4888 90.147C29.4888 90.147 37.8935 102.835 37.2609 118.554" stroke="#535461" stroke-miterlimit="10"/>
<path d="M44.264 107.406C44.264 107.406 36.6346 103.259 37.608 118.564C37.608 118.564 43.9658 118.337 46.2214 113.15C46.6622 112.142 46.7178 111.006 46.3779 109.96C46.038 108.913 45.3261 108.027 44.3769 107.47L44.264 107.406Z" fill="#FFB74C"/>
<path d="M44.3898 107.431C44.3898 107.431 43.4058 115.376 37.6082 118.564" stroke="#535461" stroke-miterlimit="10"/>
<path opacity="0.05" d="M42.1342 119.029C41.9212 121.648 41.0032 129.785 38.2535 130.703H34.328C34.4537 130.982 34.5303 131.141 34.5303 131.141H38.9116C42.1938 130.045 42.852 118.652 42.852 118.652C42.6192 118.789 42.3797 118.915 42.1342 119.029Z" fill="black"/>
<path d="M136.164 100.705H91.6123V126.56H136.164V100.705Z" fill="#DDE1EC"/>
<path d="M209.335 49.6721C209.341 49.5884 209.341 49.5045 209.335 49.4208C209.259 48.3814 208.271 47.6295 207.291 47.2291C206.311 46.8287 205.216 46.6327 204.349 46.0257C202.884 44.9991 202.432 43.08 202.3 41.3249C202.26 40.7797 202.243 40.2344 202.241 39.687C202.239 39.1396 202.275 38.5347 202.326 37.9597C202.411 37.0054 202.552 36.0172 202.539 35.0608C202.589 34.1484 202.413 33.2377 202.028 32.4091C201.159 30.6923 199.208 29.8148 197.402 29.0672C196.707 28.7797 195.996 28.4879 195.242 28.4559C194.445 28.4218 193.67 28.6796 192.916 28.9352C191.719 29.3398 190.505 29.8659 189.267 30.1407C188.573 30.2941 187.813 30.179 187.137 30.424C185.813 30.9096 185.529 32.1002 185.551 33.4059C185.551 33.4889 185.551 33.5699 185.551 33.6529C185.419 33.5315 185.282 33.4165 185.144 33.3058L185.063 33.2419C184.921 33.1269 184.77 33.0182 184.609 32.916L184.533 32.867C184.207 32.6561 183.866 32.4702 183.512 32.3111L183.459 32.2877C183.282 32.2096 183.101 32.1386 182.918 32.0747L182.884 32.0619C182.505 31.9297 182.116 31.8272 181.721 31.7552C180.477 31.5245 179.194 31.6024 177.987 31.9818C176.779 32.3613 175.683 33.0309 174.794 33.932L173.331 35.4229C166.679 33.932 166.381 39.7105 166.381 39.7105L166.43 39.6998L166.413 39.7403C166.565 40.4715 166.756 41.1939 166.986 41.9043L115.619 94.3707L110.426 110.464L113.342 109.425L126.662 104.667L174.36 55.9426C177.93 58.4794 181.64 61.8787 181.64 61.8787C181.64 61.8787 179.34 63.0949 180.192 68.6668C181.233 75.4825 179.668 85.1844 179.668 85.1844V91.4591L179.962 91.3782C179.925 91.5912 179.887 91.8042 179.851 92.0491C179.366 95.2018 179.304 98.4051 179.668 101.574C180.456 108.232 183.604 117.323 183.604 117.323C183.604 117.323 184.784 120.518 185.048 123.084C185.089 123.591 185.203 124.09 185.384 124.565C185.977 125.973 186.289 127.482 186.305 129.01C186.305 131.796 186.669 135.977 188.328 140.243C189.659 143.668 190.151 145.674 190.298 146.846C189.355 148.094 188.121 149.455 187.148 149.591C185.312 149.847 181.768 150.102 184.13 153.176C184.212 153.281 184.304 153.379 184.405 153.468C182.611 153.757 180.639 154.396 182.556 156.888C184.918 159.962 198.826 158.554 198.826 158.554C198.826 158.554 198.916 156.85 198.826 154.971C199.802 154.903 200.405 154.841 200.405 154.841C200.405 154.841 200.799 147.414 199.093 146.518C198.777 146.552 198.468 146.628 198.173 146.743C197.989 145.717 197.849 144.441 197.761 143.495L198.437 143.444V132.305C198.437 132.305 197.649 125.391 194.763 122.317C194.395 121.934 194.077 121.504 193.819 121.04C193.84 120.151 193.842 118.91 193.832 117.476C193.947 117.282 194.083 117.102 194.239 116.939C194.239 116.939 195.813 115.022 201.193 102.854C204.366 95.6785 203.659 91.5358 202.545 89.342C202.332 88.5624 201.779 86.3367 201.054 82.2387C200.136 76.9884 201.186 71.8659 201.186 71.8659C201.186 71.8659 204.594 63.031 206.173 59.4463C206.538 58.5829 206.69 57.644 206.616 56.7094C207.027 56.4091 207.225 55.9085 207.402 55.4314L209.018 51.1183C209.193 50.6519 209.372 50.1663 209.333 49.67L209.335 49.6721ZM187.38 41.9064C187.556 42.1804 187.752 42.441 187.966 42.686C187.966 42.686 187.725 42.4346 187.327 42.0299C187.346 41.9895 187.363 41.9469 187.38 41.9064ZM179.431 50.7605L183.881 46.2152C185.419 47.621 187.065 49.0566 188.441 50.2387C188.31 50.8444 188.136 51.4401 187.921 52.0214C187.325 52.3175 186.537 52.4133 185.578 51.8915C184.06 51.0715 181.257 50.8287 179.431 50.7605Z" fill="url(#paint2_linear)"/>
<path d="M175.851 33.9871C175.851 33.9871 172.552 35.8912 173.568 38.5664C173.568 38.5664 176.995 39.5824 178.39 42.1213C179.785 44.6601 190.575 53.7975 190.575 53.7975L198.443 49.855C198.443 49.855 195.706 46.2001 187.048 43.6484C187.048 43.6484 181.936 38.1766 180.166 37.1628C178.396 36.1489 175.851 33.9871 175.851 33.9871Z" fill="#FEBDD5"/>
<path opacity="0.05" d="M175.851 33.9871C175.851 33.9871 172.552 35.8912 173.568 38.5664C173.568 38.5664 176.995 39.5824 178.39 42.1213C179.785 44.6601 190.575 53.7975 190.575 53.7975L198.443 49.855C198.443 49.855 195.706 46.2001 187.048 43.6484C187.048 43.6484 181.936 38.1766 180.166 37.1628C178.396 36.1489 175.851 33.9871 175.851 33.9871Z" fill="black"/>
<path d="M117.065 94.8755L174.313 34.9457C175.666 33.5313 177.525 32.7117 179.482 32.667C181.439 32.6222 183.334 33.356 184.75 34.7072C186.164 36.0602 186.984 37.9193 187.029 39.8762C187.073 41.833 186.339 43.7276 184.988 45.1438L127.749 105.082L112.043 110.833L117.065 94.8755Z" fill="#FFB74C"/>
<path opacity="0.1" d="M181.629 33.6444C183.044 34.9974 183.863 36.8565 183.908 38.8133C183.953 40.7702 183.219 42.6648 181.868 44.081L124.622 104.011L112.831 108.324L112.034 110.829L127.74 105.078L184.995 45.1694C186.346 43.7532 187.08 41.8586 187.035 39.9017C186.99 37.9449 186.171 36.0858 184.756 34.7328C183.577 33.6027 182.055 32.8976 180.43 32.7285C180.86 32.9922 181.262 33.2991 181.629 33.6444Z" fill="white"/>
<path d="M117.065 94.8777L127.749 105.082L114.863 109.798L112.043 110.829L113.83 105.157L117.065 94.8777Z" fill="#EFC8C4"/>
<path d="M113.83 105.155C114.221 105.231 114.594 105.38 114.929 105.595C115.316 105.874 115.597 106.358 115.491 106.822C115.386 107.111 115.237 107.382 115.048 107.625C114.855 107.95 114.739 108.314 114.707 108.69C114.675 109.066 114.728 109.445 114.863 109.798L112.034 110.829L113.83 105.155Z" fill="#727A9C"/>
<path d="M196.413 142.251C196.413 142.251 196.794 147.836 197.429 148.471C198.064 149.105 191.717 149.487 191.717 149.487L192.605 142.245L196.413 142.251Z" fill="#FFB9B9"/>
<path opacity="0.05" d="M196.413 142.251C196.413 142.251 196.794 147.836 197.429 148.471C198.064 149.105 191.717 149.487 191.717 149.487L192.605 142.245L196.413 142.251Z" fill="black"/>
<path d="M197.808 146.566C197.808 146.566 196.92 146.566 193.746 148.217C193.746 148.217 191.589 147.836 190.701 144.79C190.701 144.79 188.036 149.359 186.258 149.612C184.479 149.866 181.054 150.119 183.338 153.167C185.621 156.215 199.076 154.818 199.076 154.818C199.076 154.818 199.459 147.455 197.808 146.566Z" fill="#CBCDDA"/>
<path opacity="0.05" d="M197.808 146.566C197.808 146.566 196.92 146.566 193.746 148.217C193.746 148.217 191.589 147.836 190.701 144.79C190.701 144.79 188.036 149.359 186.258 149.612C184.479 149.866 181.054 150.119 183.338 153.167C185.621 156.215 199.076 154.818 199.076 154.818C199.076 154.818 199.459 147.455 197.808 146.566Z" fill="black"/>
<path d="M195.904 150.882L195.016 153.293L189.178 151.642L189.51 149.248L189.591 148.671L189.804 147.074C189.804 147.074 194.754 145.796 194.754 146.435C194.821 146.958 194.93 147.475 195.08 147.981C195.293 148.76 195.538 149.651 195.719 150.236C195.83 150.628 195.904 150.882 195.904 150.882Z" fill="#FFB9B9"/>
<path d="M192.72 117.781C192.319 118.458 191.868 119.727 192.709 121.312C192.958 121.771 193.264 122.196 193.621 122.577C196.413 125.623 197.176 132.477 197.176 132.477V143.519L195.272 143.666L192.226 143.9L187.646 125.118C187.646 125.118 184.982 111.41 186.251 108.999C187.521 106.588 188.662 91.4845 188.662 91.4845L189.717 90.3939L192.217 87.804H199.459C200.038 88.2192 200.518 88.7565 200.867 89.378C202.081 91.3886 203.171 95.5697 199.84 103.289C194.637 115.346 193.114 117.25 193.114 117.25C192.963 117.412 192.831 117.589 192.72 117.781Z" fill="#4C4C78"/>
<path opacity="0.05" d="M192.72 117.781C192.319 118.458 191.868 119.727 192.709 121.312C192.958 121.771 193.264 122.196 193.621 122.577C196.413 125.623 197.176 132.477 197.176 132.477V143.519L195.272 143.666L192.226 143.9L187.646 125.118C187.646 125.118 184.982 111.41 186.251 108.999C187.521 106.588 188.662 91.4845 188.662 91.4845L189.717 90.3939L192.217 87.804H199.459C200.038 88.2192 200.518 88.7565 200.867 89.378C202.081 91.3886 203.171 95.5697 199.84 103.289C194.637 115.346 193.114 117.25 193.114 117.25C192.963 117.412 192.831 117.589 192.72 117.781Z" fill="black"/>
<path opacity="0.1" d="M195.088 147.985L189.591 148.671L189.804 147.074C189.804 147.074 194.754 145.796 194.754 146.435C194.824 146.96 194.935 147.478 195.088 147.985Z" fill="black"/>
<path d="M192.351 101.51C192.351 101.51 192.667 111.502 192.72 117.781C192.731 119.201 192.72 120.433 192.709 121.312C192.717 121.779 192.682 122.245 192.607 122.705C192.226 123.847 192.988 126.386 192.988 126.386C196.162 134.763 195.274 142.124 195.274 142.124V147.708L189.178 148.471C189.178 148.471 190.194 147.708 187.401 140.347C185.798 136.117 185.45 131.975 185.444 129.212C185.429 127.701 185.127 126.206 184.554 124.807C184.381 124.334 184.275 123.84 184.238 123.338C183.985 120.799 182.843 117.625 182.843 117.625C182.843 117.625 179.798 108.614 179.035 102.013C178.683 98.8713 178.743 95.6972 179.212 92.571C179.324 91.7763 179.477 90.9879 179.67 90.2089C179.67 90.2089 192.077 82.4006 196.762 87.7978C197.216 88.325 197.576 88.9258 197.827 89.5742C198.085 90.2141 198.285 90.8756 198.426 91.5507C199.866 98.7201 192.351 101.51 192.351 101.51Z" fill="#4C4C78"/>
<path d="M191.97 45.9191C195.545 45.9191 198.443 43.0211 198.443 39.4462C198.443 35.8714 195.545 32.9734 191.97 32.9734C188.395 32.9734 185.497 35.8714 185.497 39.4462C185.497 43.0211 188.395 45.9191 191.97 45.9191Z" fill="#FFB9B9"/>
<path d="M188.417 43.506C188.417 43.506 191.082 50.9949 188.417 54.9288C185.753 58.8628 196.92 57.5934 196.92 57.5934L201.235 52.3899C201.235 52.3899 196.158 52.39 195.911 43.506C195.663 34.6221 188.417 43.506 188.417 43.506Z" fill="#FFB9B9"/>
<path opacity="0.1" d="M201.235 90.8478C200.315 91.1664 199.369 91.4038 198.407 91.557C196.826 91.7998 194.963 91.8105 193.872 90.8478C193.233 90.2769 191.634 90.2088 189.721 90.3898C185.693 90.7753 180.241 92.2791 179.197 92.5751C179.309 91.7805 179.462 90.9921 179.655 90.2131C179.655 90.2131 192.062 82.4047 196.748 87.802H199.455C200.034 88.2172 200.514 88.7546 200.863 89.376C201.099 90.3856 201.235 90.8478 201.235 90.8478Z" fill="black"/>
<path opacity="0.1" d="M195.904 150.882L195.016 153.293L189.178 151.642L189.51 149.248C190.513 151.468 192.224 151.768 192.224 151.768C194.068 150.81 195.142 150.407 195.717 150.239C195.83 150.628 195.904 150.882 195.904 150.882Z" fill="black"/>
<path d="M196.285 150.247C196.285 150.247 195.397 150.247 192.224 151.898C192.224 151.898 190.066 151.516 189.178 148.471C189.178 148.471 186.513 153.039 184.735 153.293C182.956 153.546 179.531 153.795 181.817 156.848C184.102 159.9 197.555 158.498 197.555 158.498C197.555 158.498 197.936 151.135 196.285 150.247Z" fill="#CBCDDA"/>
<path d="M166.175 40.6858C166.175 40.6858 166.462 34.9585 172.897 36.4366L171.246 39.5314L166.175 40.6858Z" fill="#FFB9B9"/>
<path d="M196.166 53.9149C196.166 53.9149 189.947 52.899 188.296 51.6295C188.296 51.6295 187.018 54.0406 184.741 52.7712C182.464 51.5017 177.127 51.6295 177.127 51.6295C177.127 51.6295 172.684 49.2185 171.802 43.7595C171.802 43.7595 170.914 40.4602 171.163 39.572C171.163 39.572 167.864 36.145 166.213 40.7137C166.852 43.8873 167.355 43.6338 167.229 46.1705L169.259 51.7552C169.259 51.7552 169.387 53.6594 173.067 56.1982C176.748 58.7371 180.937 62.6711 180.937 62.6711C180.937 62.6711 178.716 63.8766 179.542 69.3974C180.55 76.145 179.035 85.7701 179.035 85.7701V91.9895C179.035 91.9895 191.727 88.309 193.885 90.2131C196.043 92.1173 201.246 90.2131 201.246 90.2131C201.246 90.2131 200.607 88.0555 199.723 82.8521C198.839 77.6487 199.851 72.571 199.851 72.571C199.851 72.571 203.15 63.8127 204.673 60.26C206.196 56.7073 203.531 51.883 200.865 50.1066C198.198 48.3303 197.208 49.3974 197.208 49.3974C197.208 49.3974 201.87 52.7733 196.166 53.9149Z" fill="#FEBDD5"/>
<path opacity="0.1" d="M184.969 37.8615C184.967 38.1257 185.012 38.3882 185.101 38.6368C185.249 38.9196 185.451 39.1707 185.695 39.3759C186.645 40.3046 187.48 41.4079 187.815 42.6943C188.041 43.5655 188.028 44.4771 188.015 45.378C187.96 49.0223 187.802 52.9563 185.557 55.8147C184.731 56.869 183.666 57.706 182.667 58.5985C182.526 58.7034 182.421 58.8481 182.364 59.0138C182.337 59.1872 182.37 59.3648 182.458 59.5165C182.922 60.4813 183.9 61.0735 184.826 61.6102C185.252 61.8551 185.695 62.1086 186.185 62.1235C187.34 62.1619 188.102 60.9414 189.152 60.4622C190.682 59.7636 192.396 60.7348 193.915 61.459C195.014 61.9822 196.167 62.3843 197.353 62.6581C198.978 63.033 200.814 63.1246 202.181 62.1725C202.972 61.6155 203.512 60.7703 203.685 59.8189C203.796 59.1991 203.779 58.4792 204.247 58.0596C204.49 57.8466 204.82 57.7529 205.08 57.5612C205.487 57.263 205.678 56.7625 205.851 56.2833L207.414 52.0085C207.616 51.5568 207.72 51.0676 207.719 50.5729C207.644 49.5442 206.694 48.7966 205.742 48.4004C204.79 48.0042 203.736 47.8104 202.897 47.2076C201.48 46.1895 201.042 44.2875 200.914 42.5474C200.826 41.3523 200.835 40.1522 200.939 38.9584C201.095 37.1885 201.44 35.3014 200.652 33.7082C199.81 32.0042 197.923 31.1374 196.179 30.3961C195.508 30.1107 194.818 29.8232 194.089 29.7912C193.318 29.7572 192.569 30.0042 191.84 30.2662C190.682 30.6688 189.497 31.1885 188.311 31.4611C187.64 31.6145 186.903 31.4994 186.256 31.7423C183.877 32.6368 184.969 35.9467 184.969 37.8615Z" fill="black"/>
<path d="M184.969 37.6081C184.967 37.8723 185.012 38.1347 185.101 38.3834C185.249 38.6662 185.451 38.9172 185.695 39.1225C186.645 40.0511 187.48 41.1544 187.815 42.4409C188.04 43.312 188.028 44.2236 188.015 45.1246C187.96 48.7689 187.802 52.7029 185.557 55.5612C184.731 56.6155 183.666 57.4526 182.667 58.345C182.527 58.4473 182.421 58.589 182.362 58.7518C182.334 58.9252 182.367 59.1028 182.456 59.2545C182.92 60.2194 183.898 60.8115 184.824 61.3482C185.25 61.5932 185.693 61.8466 186.183 61.8615C187.338 61.8999 188.1 60.6794 189.15 60.2002C190.679 59.5016 192.394 60.4728 193.913 61.197C195.012 61.7202 196.164 62.1223 197.35 62.3961C198.976 62.771 200.812 62.8626 202.179 61.9105C202.969 61.3536 203.509 60.5083 203.683 59.557C203.793 58.9371 203.776 58.2172 204.245 57.7976C204.488 57.5846 204.818 57.4909 205.078 57.2992C205.485 57.001 205.676 56.5005 205.849 56.0213L207.412 51.7465C207.614 51.2948 207.717 50.8056 207.717 50.311C207.642 49.2822 206.692 48.5346 205.74 48.1384C204.788 47.7423 203.734 47.5484 202.895 46.9457C201.478 45.9276 201.039 44.0255 200.912 42.2854C200.824 41.0903 200.833 39.8902 200.937 38.6965C201.093 36.9265 201.438 35.0394 200.65 33.4462C199.808 31.7423 197.921 30.8754 196.177 30.1342C195.506 29.8488 194.816 29.5612 194.087 29.5293C193.316 29.4952 192.567 29.7423 191.838 30.0043C190.679 30.4068 189.495 30.9265 188.309 31.1991C187.638 31.3525 186.901 31.2375 186.253 31.4803C183.876 32.3898 184.969 35.6933 184.969 37.6081Z" fill="#B96B6B"/>
<path opacity="0.05" d="M179.853 72.2471C179.853 72.2471 180.865 72.0064 185.942 71.2397C191.02 70.4729 199.904 72.2556 199.904 72.2556" fill="black"/>
</g>
<defs>
<linearGradient id="paint0_linear" x1="124.82" y1="132.375" x2="124.82" y2="0" gradientUnits="userSpaceOnUse">
<stop stop-color="#808080" stop-opacity="0.25"/>
<stop offset="0.54" stop-color="#808080" stop-opacity="0.12"/>
<stop offset="1" stop-color="#808080" stop-opacity="0.1"/>
</linearGradient>
<linearGradient id="paint1_linear" x1="-4472.6" y1="3844.5" x2="-4472.6" y2="3112.97" gradientUnits="userSpaceOnUse">
<stop stop-color="#808080" stop-opacity="0.25"/>
<stop offset="0.54" stop-color="#808080" stop-opacity="0.12"/>
<stop offset="1" stop-color="#808080" stop-opacity="0.1"/>
</linearGradient>
<linearGradient id="paint2_linear" x1="79602.4" y1="103956" x2="79602.4" y2="24091.5" gradientUnits="userSpaceOnUse">
<stop stop-color="#808080" stop-opacity="0.25"/>
<stop offset="0.54" stop-color="#808080" stop-opacity="0.12"/>
<stop offset="1" stop-color="#808080" stop-opacity="0.1"/>
</linearGradient>
<clipPath id="clip0">
<rect width="233.014" height="170" fill="white"/>
</clipPath>
</defs>
</svg>
