<svg width="28" height="31" viewBox="0 0 28 31" fill="none" xmlns="http://www.w3.org/2000/svg">
<path d="M22.3 0C19.2624 0 16.8 2.4624 16.8 5.5C16.8 8.5376 19.2624 11 22.3 11C25.3363 10.997 27.797 8.53634 27.8 5.5C27.8 2.4624 25.3376 0 22.3 0ZM22.3 9.16667C20.275 9.16667 18.6333 7.52503 18.6333 5.5C18.6333 3.47497 20.275 1.83333 22.3 1.83333C24.325 1.83333 25.9667 3.47497 25.9667 5.5C25.9667 7.52503 24.325 9.16667 22.3 9.16667Z" fill="white"/>
<path d="M22.3 19.3447C19.2624 19.3447 16.8 21.8071 16.8 24.8447C16.8 27.8823 19.2624 30.3447 22.3 30.3447C25.3363 30.3417 27.797 27.8811 27.8 24.8447C27.8 21.8071 25.3376 19.3447 22.3 19.3447ZM22.3 28.5114C20.275 28.5114 18.6333 26.8698 18.6333 24.8447C18.6333 22.8197 20.275 21.1781 22.3 21.1781C24.325 21.1781 25.9667 22.8197 25.9667 24.8447C25.9667 26.8698 24.325 28.5114 22.3 28.5114Z" fill="white"/>
<path d="M5.5 0C2.4624 0 0 2.4624 0 5.5C0 8.5376 2.4624 11 5.5 11C8.53634 10.997 10.997 8.53634 11 5.5C11 2.4624 8.5376 0 5.5 0ZM5.5 9.16667C3.47497 9.16667 1.83333 7.52503 1.83333 5.5C1.83333 3.47497 3.47497 1.83333 5.5 1.83333C7.52503 1.83333 9.16667 3.47497 9.16667 5.5C9.16667 7.52503 7.52503 9.16667 5.5 9.16667Z" fill="white"/>
<path d="M5.5 19.3447C2.4624 19.3447 0 21.8071 0 24.8447C0 27.8823 2.4624 30.3447 5.5 30.3447C8.53634 30.3417 10.997 27.8811 11 24.8447C11 21.8071 8.5376 19.3447 5.5 19.3447ZM5.5 28.5114C3.47497 28.5114 1.83333 26.8698 1.83333 24.8447C1.83333 22.8197 3.47497 21.1781 5.5 21.1781C7.52503 21.1781 9.16667 22.8197 9.16667 24.8447C9.16667 26.8698 7.52503 28.5114 5.5 28.5114Z" fill="white"/>
</svg>
