<svg width="28" height="28" viewBox="0 0 28 28" fill="none" xmlns="http://www.w3.org/2000/svg">
<path d="M17.5583 5.83329C18.6979 6.05562 19.7451 6.61293 20.5661 7.43388C21.387 8.25484 21.9443 9.3021 22.1667 10.4416L17.5583 5.83329ZM17.5583 1.16663C19.9258 1.42963 22.1335 2.48983 23.819 4.17313C25.5044 5.85644 26.5673 8.0628 26.8333 10.43L17.5583 1.16663ZM25.6667 19.74V23.24C25.668 23.5649 25.6014 23.8865 25.4713 24.1842C25.3411 24.4819 25.1502 24.7491 24.9108 24.9688C24.6713 25.1885 24.3887 25.3557 24.0809 25.4598C23.7731 25.5639 23.4469 25.6025 23.1233 25.5733C19.5333 25.1832 16.0848 23.9565 13.055 21.9916C10.2361 20.2004 7.84623 17.8105 6.055 14.9916C4.08331 11.948 2.85629 8.48279 2.47334 4.87663C2.44418 4.554 2.48252 4.22885 2.58592 3.92185C2.68932 3.61486 2.8555 3.33276 3.0739 3.09352C3.29229 2.85427 3.55811 2.66312 3.85443 2.53223C4.15074 2.40135 4.47107 2.3336 4.795 2.33329H8.295C8.86119 2.32772 9.41009 2.52822 9.83939 2.89741C10.2687 3.26661 10.5491 3.77931 10.6283 4.33996C10.7761 5.46004 11.05 6.55981 11.445 7.61829C11.602 8.03587 11.6359 8.48969 11.5429 8.92599C11.4498 9.36228 11.2337 9.76276 10.92 10.08L9.43834 11.5616C11.0992 14.4824 13.5175 16.9008 16.4383 18.5616L17.92 17.08C18.2372 16.7663 18.6377 16.5501 19.074 16.4571C19.5103 16.364 19.9641 16.398 20.3817 16.555C21.4402 16.9499 22.5399 17.2239 23.66 17.3716C24.2267 17.4516 24.7443 17.737 25.1143 18.1737C25.4843 18.6104 25.6809 19.1678 25.6667 19.74Z" stroke="white" stroke-width="2" stroke-linecap="round" stroke-linejoin="round"/>
</svg>
