<svg width="204" height="170" viewBox="0 0 204 170" fill="none" xmlns="http://www.w3.org/2000/svg">
<g clip-path="url(#clip0)">
<path d="M165.393 160.592H41.7943L41.8501 147.487C41.9911 114.328 68.4579 87.0052 101.612 86.4413C101.971 86.4352 102.329 86.4322 102.689 86.4321C110.149 86.4265 117.55 87.7562 124.542 90.3582C148.002 99.0949 163.748 121.292 164.795 146.304L165.393 160.592Z" fill="#FFB74C"/>
<path d="M203.62 160.592H0V161.101H203.62V160.592Z" fill="#2F2E41"/>
<path d="M101.501 101.98L106.947 105.941L112.393 152.481H125.266L120.81 99.504L102.986 92.5725L101.501 101.98Z" fill="#2F2E41"/>
<path d="M78.7258 87.1265C78.7258 87.1265 77.2405 103.96 83.1818 104.455C89.1231 104.95 111.898 99.5041 111.898 99.5041L122.79 138.122L139.129 129.706C139.129 129.706 129.227 86.1363 123.285 83.6607C117.344 81.1852 97.5399 76.2341 97.5399 76.2341L83.1818 78.7097L78.7258 87.1265Z" fill="#2F2E41"/>
<path d="M114.374 151.49C114.374 151.49 111.403 162.878 113.383 163.868C114.575 164.463 115.732 165.124 116.849 165.848V163.868C116.849 163.868 119.325 166.343 119.325 168.324C119.325 170.304 132.693 170.799 132.693 168.324C132.693 165.848 132.197 162.878 129.722 161.392C127.246 159.907 124.276 151.49 124.276 151.49H114.374Z" fill="#2F2E41"/>
<path d="M128.732 131.191L129.722 140.598L133.188 146.539L141.604 137.132L135.168 126.735L128.732 131.191Z" fill="#2F2E41"/>
<path d="M136.653 140.598C136.653 140.598 138.476 134.364 140.288 135.006C142.1 135.647 149.031 142.083 149.031 142.083L153.982 145.054C153.982 145.054 163.884 146.044 160.914 149.015C157.943 151.985 147.051 155.946 142.1 153.966C137.148 151.985 136.158 151.49 136.158 151.49L134.673 152.48L128.732 150.995L129.722 140.598C129.722 140.598 131.207 145.054 136.653 140.598Z" fill="#2F2E41"/>
<path d="M95.5596 25.238C101.849 25.238 106.947 20.1397 106.947 13.8506C106.947 7.56147 101.849 2.46313 95.5596 2.46313C89.2705 2.46313 84.1721 7.56147 84.1721 13.8506C84.1721 20.1397 89.2705 25.238 95.5596 25.238Z" fill="#9F616A"/>
<path d="M88.3805 20.5345C88.3805 20.5345 89.3707 30.9318 86.4001 30.9318C83.4295 30.9318 86.8952 43.8046 94.8169 43.8046C102.739 43.8046 105.709 28.4562 105.709 28.4562C105.709 28.4562 100.263 26.4758 101.253 20.0394C102.244 13.603 88.3805 20.5345 88.3805 20.5345Z" fill="#9F616A"/>
<path d="M87.5915 30.1388L83.4294 31.9221L72.1335 36.7012C71.6781 36.8938 71.2971 37.2286 71.0474 37.6554C70.7978 38.0823 70.6927 38.5784 70.748 39.0698L75.0126 76.9769C75.0126 76.9769 70.5566 86.3839 77.4881 86.879L78.4783 90.3447L86.4 80.9377L116.106 79.9475L116.602 31.9221L103.009 26.551C103.009 26.551 101.161 36.7723 87.5915 30.1388Z" fill="#3F3D56"/>
<path d="M73.7748 38.1108L71.9452 37.5881C71.74 37.5295 71.5248 37.515 71.3136 37.5457C71.1025 37.5765 70.9003 37.6516 70.7204 37.7662C70.5404 37.8809 70.3868 38.0324 70.2698 38.2107C70.1527 38.3891 70.0748 38.5903 70.0412 38.801L65.1859 69.2567C64.8072 71.5121 65.1698 73.8294 66.2193 75.8614C67.7194 78.7018 70.8351 81.2779 77.2406 78.2145L81.6965 46.0325L73.7748 38.1108Z" fill="#3F3D56"/>
<path d="M110.908 31.1792L116.849 32.1694L133.188 54.9443L134.673 58.9052L144.08 55.9345C144.08 55.9345 143.585 60.3905 148.536 59.8954C148.536 59.8954 142.595 76.2339 130.217 71.2828C117.839 66.3318 113.878 51.4786 113.878 51.4786L110.908 31.1792Z" fill="#3F3D56"/>
<path d="M117.839 41.0816L95.5595 32.1694L94.5695 35.1401L104.967 44.052L117.839 41.0816Z" fill="#CCCCCC"/>
<path d="M88.7033 14.5764C89.1239 14.4641 89.1857 13.9058 89.1998 13.4707C89.2753 11.1408 90.6782 8.75003 92.9085 8.07176C93.7643 7.83707 94.6603 7.78777 95.5367 7.92713C96.7877 8.09375 97.9956 8.49673 99.096 9.11458C99.6769 9.44115 100.247 9.83447 100.906 9.93422C101.341 10.0001 103.225 10.5479 103.658 10.625C104.611 10.7945 105.496 11.6468 106.41 11.3296C107.285 11.0262 107.478 9.89385 107.499 8.96839C107.548 6.86001 105.947 3.94192 104.537 2.37345C103.467 1.18319 101.857 0.633752 100.282 0.348055C98.4424 0.0524897 96.5783 -0.060912 94.7166 0.00949723C92.1966 0.0544415 89.6067 0.24895 87.3343 1.33934C85.0619 2.42973 83.1532 4.59988 83.0443 7.11796C83.0216 7.6425 83.0757 8.16923 83.0316 8.69241C82.924 9.96869 82.2463 11.1215 81.9284 12.3622C81.7011 13.2726 81.6671 14.2204 81.8286 15.1447C81.9902 16.069 82.3436 16.9492 82.8661 17.7286C83.7095 18.9697 87.082 20.0963 87.0332 21.5961C87.6427 20.9646 86.2053 20.3289 86.8148 19.6974C87.088 19.4888 87.2813 19.1929 87.3626 18.859C87.4439 18.5251 87.4081 18.1735 87.2614 17.8627L86.6142 15.3381C86.4957 14.8758 86.3791 14.3754 86.5581 13.933C87.252 12.2184 88.0021 14.7637 88.7033 14.5764Z" fill="#2F2E41"/>
<path d="M94.5694 35.1401L85.1624 71.778L121.8 84.6509L143.09 66.8268L156.458 26.7234L134.673 42.5668L94.5694 35.1401Z" fill="#F2F2F2"/>
<path d="M96.3653 39.1093L96.239 39.5879L131.887 48.9949L132.013 48.5163L96.3653 39.1093Z" fill="#E6E6E6"/>
<path d="M95.3751 41.5848L95.2488 42.0635L130.896 51.4705L131.023 50.9919L95.3751 41.5848Z" fill="#E6E6E6"/>
<path d="M94.8801 44.0604L94.7538 44.5391L130.401 53.9461L130.528 53.4675L94.8801 44.0604Z" fill="#E6E6E6"/>
<path d="M94.3849 46.536L94.2585 47.0146L129.906 56.4217L130.033 55.943L94.3849 46.536Z" fill="#E6E6E6"/>
<path d="M93.8897 49.0114L93.7634 49.49L129.411 58.897L129.537 58.4184L93.8897 49.0114Z" fill="#E6E6E6"/>
<path d="M93.3947 51.4869L93.2684 51.9656L128.916 61.3726L129.042 60.894L93.3947 51.4869Z" fill="#E6E6E6"/>
<path d="M92.8996 53.9625L92.7733 54.4412L128.421 63.8482L128.547 63.3695L92.8996 53.9625Z" fill="#E6E6E6"/>
<path d="M92.4045 56.4381L92.2782 56.9167L127.926 66.3238L128.052 65.8451L92.4045 56.4381Z" fill="#E6E6E6"/>
<path d="M91.9094 58.9135L91.7831 59.3921L127.431 68.7991L127.557 68.3205L91.9094 58.9135Z" fill="#E6E6E6"/>
<path d="M79.4731 62.0907C79.4731 62.0907 90.6085 55.4396 95.5596 59.8955C100.511 64.3515 81.2015 70.7879 81.2015 70.7879L79.4731 62.0907Z" fill="#9F616A"/>
<path d="M67.3384 65.3417L81.6965 59.8955C81.6965 59.8955 79.221 69.3025 84.1721 69.7976L77.2406 78.2145C77.2406 78.2145 63.3776 78.2145 67.3384 65.3417Z" fill="#3F3D56"/>
<path d="M105.121 65.1384L124.174 71.5597L119.665 81.388L100.613 74.967L105.121 65.1384Z" fill="#E6E6E6"/>
<path d="M138.881 44.2998L153.24 33.4072L149.279 46.7753L134.425 57.6676L138.881 44.2998Z" fill="#CCCCCC"/>
<path d="M146.158 51.5292L131.8 62.4211L132.099 62.8157L146.458 51.9237L146.158 51.5292Z" fill="#E6E6E6"/>
<path d="M145.168 56.9755L130.81 67.8674L131.109 68.262L145.467 57.37L145.168 56.9755Z" fill="#E6E6E6"/>
<path d="M147.051 60.3906C147.051 60.3906 159.428 52.964 151.507 49.9934C143.585 47.0228 143.585 58.4102 143.585 58.4102C143.585 58.4102 143.09 60.8857 147.051 60.3906Z" fill="#9F616A"/>
<path opacity="0.1" d="M74.5175 43.8047L74.0223 63.1139L81.6964 60.9238L75.5076 61.1333L74.5175 43.8047Z" fill="black"/>
<path d="M20.4916 151.859C22.0393 157.58 27.3406 161.124 27.3406 161.124C27.3406 161.124 30.1325 155.391 28.5848 149.67C27.0371 143.949 21.7358 140.405 21.7358 140.405C21.7358 140.405 18.9439 146.138 20.4916 151.859Z" fill="#8985A8"/>
<path d="M22.7659 150.63C27.0128 154.764 27.5315 161.119 27.5315 161.119C27.5315 161.119 21.1646 160.772 16.9177 156.637C12.6708 152.503 12.152 146.148 12.152 146.148C12.152 146.148 18.5189 146.496 22.7659 150.63Z" fill="#3F3D56"/>
<path d="M167.177 96.626H159.532V104.271H167.177V96.626Z" fill="#F2F2F2"/>
<path d="M136.596 9.979H128.951V17.6243H136.596V9.979Z" fill="#F2F2F2"/>
<path d="M40.5202 87.4515C42.6314 87.4515 44.3428 85.74 44.3428 83.6288C44.3428 81.5176 42.6314 79.8062 40.5202 79.8062C38.409 79.8062 36.6975 81.5176 36.6975 83.6288C36.6975 85.74 38.409 87.4515 40.5202 87.4515Z" fill="#F2F2F2"/>
</g>
<defs>
<clipPath id="clip0">
<rect width="203.62" height="170" fill="white"/>
</clipPath>
</defs>
</svg>
