<svg width="211" height="170" viewBox="0 0 211 170" fill="none" xmlns="http://www.w3.org/2000/svg">
<g clip-path="url(#clip0)">
<path opacity="0.1" d="M108.413 170.002C161.014 170.002 203.656 131.946 203.656 85.001C203.656 38.0563 161.014 0 108.413 0C55.8126 0 13.1711 38.0563 13.1711 85.001C13.1711 131.946 55.8126 170.002 108.413 170.002Z" fill="#FFB74C"/>
<path opacity="0.1" d="M35.1176 133.925C54.5126 133.925 70.2353 131.488 70.2353 128.482C70.2353 125.475 54.5126 123.038 35.1176 123.038C15.7227 123.038 0 125.475 0 128.482C0 131.488 15.7227 133.925 35.1176 133.925Z" fill="#FFB74C"/>
<path opacity="0.1" d="M51.9965 159.857C59.5402 159.857 65.6556 158.593 65.6556 157.035C65.6556 155.477 59.5402 154.213 51.9965 154.213C44.4528 154.213 38.3374 155.477 38.3374 157.035C38.3374 158.593 44.4528 159.857 51.9965 159.857Z" fill="#FFB74C"/>
<path opacity="0.1" d="M145.33 149.001C152.874 149.001 158.989 147.738 158.989 146.179C158.989 144.621 152.874 143.358 145.33 143.358C137.786 143.358 131.671 144.621 131.671 146.179C131.671 147.738 137.786 149.001 145.33 149.001Z" fill="#FFB74C"/>
<path opacity="0.1" d="M98.9807 146.632C111.248 146.632 121.193 144.948 121.193 142.87C121.193 140.791 111.248 139.107 98.9807 139.107C86.7134 139.107 76.7688 140.791 76.7688 142.87C76.7688 144.948 86.7134 146.632 98.9807 146.632Z" fill="#FFB74C"/>
<path opacity="0.1" d="M164.428 131.499C190.015 131.499 210.757 128.25 210.757 124.243C210.757 120.235 190.015 116.987 164.428 116.987C138.842 116.987 118.099 120.235 118.099 124.243C118.099 128.25 138.842 131.499 164.428 131.499Z" fill="#FFB74C"/>
<path d="M9.60223 111.578C8.56155 113.603 8.07549 115.867 8.19348 118.14C8.31146 120.413 9.02928 122.615 10.274 124.521C10.6823 125.133 11.058 125.574 11.3581 125.691C12.7975 126.256 15.6804 127.647 15.6804 127.647L22.6223 124.919C22.6223 124.919 23.7493 118.957 24.8151 113.838C25.542 110.347 26.2443 107.25 26.5322 106.707C27.2509 105.369 26.5322 90.8098 26.5322 90.8098C26.5322 90.8098 19.5903 90.3443 17.6813 95.6956L16.8463 97.329L9.60223 111.578Z" fill="#A8A8A8"/>
<path opacity="0.1" d="M18.8186 113.187C23.0388 118.024 24.8192 113.84 24.8192 113.84C25.5461 110.349 26.2484 107.252 26.5363 106.709C27.255 105.371 26.5363 90.8117 26.5363 90.8117C26.5363 90.8117 19.5945 90.3462 17.6855 95.6976L16.8504 97.331C16.3155 101.612 15.7866 109.706 18.8186 113.187Z" fill="white"/>
<path d="M19.7455 126.669L44.2462 123.839L48.6175 95.075L45.3119 87.6043C43.9154 84.4228 41.9816 81.5054 39.5951 78.9801C37.9311 77.2263 35.92 75.5398 33.8048 74.6925C33.5157 74.576 33.2206 74.4751 32.9207 74.3903C32.576 74.2856 32.2114 74.2637 31.8566 74.3265C31.5018 74.3893 31.1669 74.535 30.879 74.7517C27.8572 76.8935 26.7772 85.9995 26.428 90.3831C26.2844 92.1844 26.0411 93.9764 25.6991 95.7508L19.7455 126.669Z" fill="#A8A8A8"/>
<path opacity="0.1" d="M36.0569 94.7645L30.9526 107.321C33.6272 105.365 37.5902 94.7135 37.5902 94.7135L41.1408 106.858L38.3109 94.0581C38.7252 91.2786 38.8457 88.4632 38.6703 85.6584C38.4457 82.4448 35.4301 77.2874 33.7926 74.6903C33.5036 74.5738 33.2084 74.4729 32.9085 74.3881C32.5638 74.2834 32.1992 74.2615 31.8444 74.3243C31.4896 74.3871 31.1547 74.5328 30.8668 74.7495C32.1531 77.3323 35.3688 83.7903 36.3488 85.7095C37.5923 88.1269 36.0569 94.7645 36.0569 94.7645Z" fill="white"/>
<path d="M40.224 127.646H53.5177C54.0645 127.647 54.6056 127.536 55.1082 127.32C55.6107 127.104 56.0642 126.789 56.441 126.393C56.8178 125.996 57.1101 125.528 57.3 125.015C57.49 124.502 57.5737 123.956 57.546 123.41C57.252 117.709 56.5067 107.546 54.7345 101.094C53.777 97.6128 52.6642 95.7854 51.6434 94.885C51.1646 94.423 50.5466 94.1323 49.8854 94.0581C49.3839 94.0148 48.882 94.1367 48.4562 94.4052C45.9878 96.7716 43.1049 109.224 43.1049 109.224L40.224 127.646Z" fill="#A8A8A8"/>
<path opacity="0.1" d="M52.4968 116.603C53.044 118.12 53.2604 119.87 52.4968 121.575L49.5343 123.038C49.5343 123.038 41.5716 119.664 42.5393 112.746C42.5393 112.746 42.8007 111.317 45.5427 111.427C47.0848 111.502 48.5698 112.034 49.8083 112.956C51.0468 113.877 51.9828 115.147 52.4968 116.603Z" fill="white"/>
<path opacity="0.1" d="M49.3321 98.4192C49.2402 95.9937 50.5572 95.1525 51.6454 94.885C51.1667 94.423 50.5486 94.1323 49.8875 94.0581C49.13 94.692 48.5931 95.5498 48.3541 96.5082L45.5774 110.043C45.5774 110.043 49.4873 102.484 49.3321 98.4192Z" fill="white"/>
<path d="M36.7265 109.122L43.309 118.126L44.4504 125.558L40.2199 127.647L34.1213 128.994C33.5339 129.125 32.93 129.164 32.3307 129.111L15.6886 127.647L17.9529 122.397L25.7727 111.419L36.7265 109.122Z" fill="#A8A8A8"/>
<path opacity="0.1" d="M34.1784 106.031C34.1784 106.031 38.6702 106.339 36.9838 114.057C35.2973 121.775 17.9447 122.393 17.9447 122.393C17.9447 122.393 21.6321 115.86 27.304 111.178C27.941 110.653 28.5555 110.106 29.1415 109.522C30.4462 108.218 32.9412 105.925 34.1784 106.031Z" fill="white"/>
<path opacity="0.1" d="M38.219 111.85C38.219 111.85 44.3054 117.389 43.7316 125.913L38.219 111.85Z" fill="black"/>
<path opacity="0.1" d="M48.4583 94.4053C48.4583 94.4053 42.0717 102.899 41.3551 115.968L48.4583 94.4053Z" fill="black"/>
<path opacity="0.1" d="M26.5383 90.8057C26.5383 90.8057 29.6295 104.843 21.9117 115.423L26.5383 90.8057Z" fill="black"/>
<path d="M82.8389 142.792H116.148C116.47 142.79 116.786 142.705 117.065 142.545C117.344 142.385 117.578 142.156 117.742 141.879C117.906 141.602 117.996 141.287 118.003 140.965C118.01 140.643 117.933 140.325 117.781 140.042L101.135 109.114C100.975 108.817 100.738 108.569 100.449 108.397C100.16 108.224 99.8299 108.133 99.4932 108.133C99.1565 108.133 98.8261 108.224 98.5371 108.397C98.248 108.569 98.0112 108.817 97.8517 109.114L81.1973 140.042C81.0445 140.326 80.9679 140.645 80.9751 140.967C80.9823 141.29 81.073 141.605 81.2383 141.882C81.4037 142.159 81.6381 142.389 81.9186 142.548C82.1991 142.708 82.5162 142.792 82.8389 142.792ZM101.613 137.14H97.3739V132.904H101.613V137.14ZM101.613 130.078H97.3739V121.603H101.613V130.078Z" fill="#464353"/>
<path opacity="0.1" d="M82.8389 142.792H116.148C116.47 142.79 116.786 142.705 117.065 142.545C117.344 142.385 117.578 142.156 117.742 141.879C117.906 141.602 117.996 141.287 118.003 140.965C118.01 140.643 117.933 140.325 117.781 140.042L101.135 109.114C100.975 108.817 100.738 108.569 100.449 108.397C100.16 108.224 99.8299 108.133 99.4932 108.133C99.1565 108.133 98.8261 108.224 98.5371 108.397C98.248 108.569 98.0112 108.817 97.8517 109.114L81.1973 140.042C81.0445 140.326 80.9679 140.645 80.9751 140.967C80.9823 141.29 81.073 141.605 81.2383 141.882C81.4037 142.159 81.6381 142.389 81.9186 142.548C82.1991 142.708 82.5162 142.792 82.8389 142.792ZM101.613 137.14H97.3739V132.904H101.613V137.14ZM101.613 130.078H97.3739V121.603H101.613V130.078Z" fill="black"/>
<path d="M82.8389 143.813H116.148C116.47 143.811 116.786 143.726 117.065 143.566C117.344 143.406 117.578 143.176 117.742 142.9C117.906 142.623 117.996 142.308 118.003 141.986C118.01 141.664 117.933 141.346 117.781 141.063L101.135 110.135C100.975 109.838 100.738 109.59 100.449 109.418C100.16 109.245 99.8299 109.154 99.4932 109.154C99.1565 109.154 98.8261 109.245 98.5371 109.418C98.248 109.59 98.0112 109.838 97.8517 110.135L81.1973 141.063C81.0445 141.347 80.9679 141.666 80.9751 141.988C80.9823 142.311 81.073 142.626 81.2383 142.903C81.4037 143.18 81.6381 143.41 81.9186 143.569C82.1991 143.729 82.5162 143.813 82.8389 143.813ZM101.613 138.161H97.3739V133.925H101.613V138.161ZM101.613 131.099H97.3739V122.624H101.613V131.099Z" fill="#464353"/>
<path d="M47.7376 48.3317C47.7151 48.7584 47.9274 49.1484 48.052 49.5567C48.258 50.3454 48.2375 51.1762 47.9928 51.9537C47.7641 52.7704 47.3802 53.634 47.6722 54.4324C47.7396 54.6202 47.8417 54.7917 47.9029 54.9795C48.1561 55.7554 47.6865 56.5721 47.172 57.2071L49.1913 58.622C49.4861 58.8663 49.8368 59.034 50.2121 59.11C50.5898 59.1549 51.0288 58.9527 51.1064 58.5811C51.1329 58.4546 51.1064 58.3218 51.1309 58.1932C51.1557 58.0269 51.22 57.8689 51.3184 57.7325C51.4168 57.5961 51.5464 57.4852 51.6965 57.4092C51.9997 57.2605 52.338 57.1976 52.6744 57.2275C53.9138 57.2949 54.9673 58.1095 56.0943 58.6322C56.8374 58.9539 57.6074 59.2095 58.3954 59.3958C58.8425 59.5122 59.3386 59.6183 59.7429 59.3958C60.1472 59.1732 60.333 58.6567 60.3023 58.1891C60.2396 57.7241 60.0944 57.274 59.8736 56.86C59.6507 56.4464 59.5165 55.9909 59.4795 55.5226C59.4795 54.8366 59.8552 54.2119 59.9818 53.5381C60.1594 52.5805 59.798 51.6066 59.357 50.7368C58.916 49.8671 58.3811 49.03 58.1667 48.0826C58.1241 47.7954 58.0495 47.514 57.9441 47.2434C57.842 47.038 57.7036 46.8527 57.5358 46.6963C56.7783 45.947 55.6982 45.5917 54.6406 45.5141C53.583 45.4365 52.5152 45.6101 51.4657 45.7918C51.0654 45.8489 50.671 45.9426 50.2877 46.0715C49.7399 46.2892 49.2197 46.5709 48.738 46.9106C48.2602 47.2414 47.7682 47.7253 47.7376 48.3317Z" fill="#464353"/>
<g opacity="0.1">
<path opacity="0.1" d="M59.4734 55.1038C59.4734 55.1651 59.4734 55.2263 59.4856 55.2856C59.5489 54.6873 59.8634 54.1259 59.9757 53.5276C60.019 53.2879 60.0321 53.0437 60.0145 52.8008C60.0145 52.907 59.994 53.005 59.9757 53.1193C59.847 53.7931 59.4652 54.4178 59.4734 55.1038Z" fill="black"/>
<path opacity="0.1" d="M48.1888 50.3733C48.2129 49.9601 48.1666 49.5459 48.052 49.1482C47.9312 48.8384 47.8323 48.5205 47.756 48.1968C47.756 48.2397 47.7397 48.2805 47.7376 48.3234C47.7152 48.7501 47.9275 49.1401 48.052 49.5484C48.1309 49.8168 48.1769 50.0938 48.1888 50.3733Z" fill="black"/>
<path opacity="0.1" d="M60.284 58.0767C60.2697 58.2591 60.2127 58.4357 60.1177 58.5921C60.0226 58.7485 59.8922 58.8803 59.7368 58.9771C59.3284 59.1996 58.8364 59.0934 58.3893 58.9771C57.6009 58.791 56.8309 58.5347 56.0882 58.2114C54.9612 57.6908 53.9077 56.8761 52.6683 56.8088C52.3319 56.7789 51.9936 56.8417 51.6904 56.9905C51.5403 57.0665 51.4107 57.1774 51.3123 57.3138C51.2139 57.4502 51.1496 57.6081 51.1248 57.7745C51.1105 57.9031 51.1248 58.0358 51.1003 58.1624C51.0207 58.534 50.5837 58.7361 50.206 58.6912C49.8307 58.6152 49.48 58.4476 49.1852 58.2032L47.3701 56.9292C47.3027 57.0211 47.2353 57.1109 47.1659 57.1946L49.1852 58.6116C49.48 58.856 49.8307 59.0236 50.206 59.0996C50.5837 59.1445 51.0227 58.9423 51.1003 58.5708C51.1268 58.4442 51.1003 58.3115 51.1248 58.1828C51.1496 58.0165 51.2139 57.8585 51.3123 57.7221C51.4107 57.5857 51.5403 57.4749 51.6904 57.3988C51.9936 57.2501 52.3319 57.1872 52.6683 57.2171C53.9077 57.2845 54.9612 58.0991 56.0882 58.6198C56.8309 58.9431 57.6009 59.1993 58.3893 59.3854C58.8364 59.5018 59.3325 59.6079 59.7368 59.3854C60.1411 59.1629 60.3269 58.6463 60.2962 58.1787C60.2942 58.144 60.2881 58.1114 60.284 58.0767Z" fill="black"/>
<path opacity="0.1" d="M47.9029 54.9692C47.9281 55.0513 47.9465 55.1353 47.958 55.2204C47.9896 54.9992 47.9708 54.7737 47.9029 54.5609C47.8416 54.373 47.7396 54.2015 47.6722 54.0137C47.6231 53.8774 47.5915 53.7354 47.5783 53.5911C47.5481 53.8716 47.5802 54.1553 47.6722 54.4221C47.7396 54.6099 47.8416 54.7834 47.9029 54.9692Z" fill="black"/>
</g>
<path d="M50.2999 132.442C50.2859 132.501 50.2529 132.552 50.206 132.589C50.1563 132.615 50.1006 132.627 50.0447 132.624C49.3179 132.641 48.591 132.624 47.8662 132.675C47.1802 132.734 46.4921 132.879 45.8081 132.802C45.5893 132.81 45.3735 132.749 45.1906 132.629C45.0077 132.508 44.8668 132.334 44.7873 132.13C44.7441 132.041 44.706 131.95 44.6729 131.856C44.4845 131.375 44.3896 130.862 44.3932 130.346C44.3932 130.209 44.3932 130.076 44.3932 129.937C44.3843 129.788 44.3645 129.639 44.334 129.492C44.2721 129.324 44.2794 129.138 44.3544 128.976C44.6444 128.447 45.3447 128.341 45.8837 128.3C47.1324 128.206 48.3882 128.298 49.6098 128.573C49.7058 129.043 49.814 129.509 49.9283 129.974C50.0127 130.316 50.1026 130.656 50.1978 130.995C50.2618 131.205 50.3136 131.418 50.353 131.634C50.4035 131.904 50.3853 132.182 50.2999 132.442Z" fill="#464353"/>
<path opacity="0.06" d="M50.2998 132.442C50.2858 132.501 50.2528 132.552 50.2059 132.589C50.1562 132.615 50.1005 132.627 50.0446 132.624C49.3178 132.64 48.5909 132.624 47.8661 132.675C47.1801 132.734 46.492 132.879 45.808 132.802C45.5892 132.809 45.3734 132.749 45.1905 132.629C45.0076 132.508 44.8667 132.334 44.7872 132.13C44.744 132.041 44.7059 131.95 44.6729 131.856H44.9342C45.7938 131.856 46.6554 131.826 47.5149 131.826C47.7742 131.826 48.0356 131.814 48.2928 131.783C48.5501 131.752 48.7604 131.709 48.9952 131.681C49.3467 131.647 49.6997 131.633 50.0528 131.638H50.3427C50.3958 131.905 50.3811 132.182 50.2998 132.442Z" fill="black"/>
<path d="M65.3373 128.651C65.1097 128.917 64.8191 129.121 64.492 129.245C63.0383 129.858 61.3579 129.582 59.8573 129.084C59.5216 128.959 59.1769 128.86 58.8262 128.788C58.5062 128.743 58.1835 128.72 57.8605 128.72C57.6297 128.72 57.399 128.702 57.1683 128.688C56.5844 128.651 56.0025 128.594 55.4226 128.537C55.0184 128.507 54.617 128.446 54.2221 128.355C54.1098 128.326 54.002 128.282 53.9016 128.224C53.8159 128.187 53.7427 128.125 53.6906 128.048C53.6386 127.97 53.6097 127.879 53.6075 127.785C53.6239 127.526 53.8934 127.377 54.1302 127.265C56.2312 126.356 58.5138 125.962 60.7801 125.646C61.0107 125.607 61.2351 125.538 61.4478 125.441C61.703 125.339 61.7295 125.507 61.8561 125.695C61.9159 125.781 61.9843 125.862 62.0603 125.935C62.3064 126.158 62.5955 126.327 62.9096 126.434C63.4609 126.638 64.051 126.693 64.6022 126.887C64.769 126.945 64.9286 127.021 65.078 127.116C65.2098 127.187 65.3235 127.288 65.4102 127.411C65.497 127.533 65.5546 127.674 65.5787 127.822C65.6027 127.97 65.5926 128.122 65.5489 128.266C65.5053 128.409 65.4294 128.541 65.327 128.651H65.3373Z" fill="#464353"/>
<path opacity="0.06" d="M65.3371 128.651C65.1096 128.917 64.8189 129.121 64.4919 129.245C63.0382 129.858 61.3578 129.582 59.8572 129.084C59.5215 128.959 59.1768 128.86 58.8261 128.788C58.5061 128.743 58.1834 128.721 57.8604 128.721C57.6296 128.721 57.3989 128.702 57.1682 128.688C57.3561 128.51 57.548 128.337 57.744 128.169C57.886 128.036 58.0497 127.929 58.2279 127.851C58.4497 127.778 58.6862 127.762 58.9159 127.804C60.0838 127.965 61.1332 128.784 62.3113 128.712C62.8602 128.649 63.3911 128.478 63.8732 128.208C64.2653 128.048 64.6149 127.799 64.8941 127.481C64.9783 127.371 65.0426 127.248 65.084 127.116C65.2158 127.188 65.3295 127.289 65.4162 127.411C65.503 127.533 65.5606 127.674 65.5847 127.822C65.6087 127.971 65.5986 128.122 65.5549 128.266C65.5113 128.41 65.4354 128.541 65.333 128.651H65.3371Z" fill="black"/>
<path d="M64.9268 93.1678C64.7226 93.5762 64.4613 94.0192 64.0203 94.1458C63.3792 94.3296 62.7626 93.7538 62.4829 93.1495C62.1016 92.2624 62.0297 91.2729 62.2787 90.34C62.3951 89.8684 62.5727 89.4151 62.6727 88.9415C62.7449 88.5429 62.7886 88.1396 62.8034 87.7348C62.8637 87.131 62.8493 86.5221 62.7605 85.9218C62.4318 84.1679 60.923 82.8592 60.4207 81.136C60.1675 80.2764 60.1798 79.3617 60.1941 78.4654C60.1893 78.2388 60.2126 78.0125 60.2635 77.7916C60.2787 77.7314 60.2992 77.6727 60.3247 77.616C60.6616 76.8688 61.66 76.7667 62.3542 76.3318C62.7381 76.0929 63.6099 75.3232 63.9325 76.0256C64.0021 76.182 64.0542 76.3456 64.0877 76.5135C64.2204 77.1383 64.1673 77.8713 64.2 78.4613C64.3245 80.6909 64.8799 82.9164 64.6226 85.1337C64.5613 85.5117 64.5312 85.8941 64.5328 86.277C64.5879 87.2366 65.1882 88.0676 65.4638 88.9864C65.8885 90.3686 65.5475 91.8734 64.9268 93.1678Z" fill="#FBBEBE"/>
<path opacity="0.1" d="M64.0978 76.5178C63.9461 76.4627 63.7799 76.4627 63.6282 76.5178L62.246 76.9261C61.7616 77.0553 61.2895 77.2268 60.8352 77.4386C60.6368 77.536 60.4487 77.6529 60.2737 77.7878C60.2889 77.7275 60.3094 77.6688 60.3349 77.6122C60.6718 76.8649 61.6702 76.7628 62.3644 76.3279C62.7482 76.089 63.6201 75.3193 63.9427 76.0216C64.0129 76.1807 64.0649 76.3471 64.0978 76.5178Z" fill="black"/>
<path d="M64.1878 76.3624C64.1045 76.3118 64.0105 76.2814 63.9134 76.2736C63.8162 76.2658 63.7186 76.2808 63.6283 76.3175L62.2461 76.7258C61.7617 76.855 61.2896 77.0265 60.8352 77.2383C60.5941 77.3556 60.3685 77.5023 60.1635 77.6752C59.5183 76.5543 59.3468 75.2251 59.2284 73.9389C59.1631 73.1895 59.1141 72.4382 59.0855 71.693C59.0534 71.1567 59.0644 70.6186 59.1181 70.0841C59.1957 69.4716 59.3734 68.8733 59.4836 68.2649C59.5493 67.9087 59.5916 67.5486 59.6102 67.1869C59.6631 66.3965 59.6268 65.6027 59.502 64.8205C59.3833 63.9891 59.1934 63.1694 58.9344 62.3705C58.8037 62.005 58.6465 61.6518 58.5036 61.2924L58.4546 61.1658C58.1965 60.5072 57.9856 59.8311 57.8237 59.1425C57.7583 58.8607 57.7543 58.5647 57.5378 58.3728C57.741 58.3483 57.9459 58.3401 58.1504 58.3483C58.1912 58.3483 58.232 58.3483 58.2729 58.3483C59.1116 58.401 59.9197 58.6836 60.6086 59.165C61.4958 59.8051 62.1702 60.6971 62.5442 61.7253C62.975 62.8748 63.0464 64.1243 63.1016 65.3514C63.2118 67.7633 63.2799 70.1766 63.3057 72.5913C63.3057 73.0548 63.3261 73.5489 63.5916 73.9307C63.666 74.0248 63.7343 74.1237 63.7957 74.2267C63.8917 74.4309 63.8774 74.6575 63.955 74.8638C64.012 74.9875 64.0768 75.1075 64.149 75.2231C64.2404 75.398 64.2913 75.5911 64.298 75.7883C64.3047 75.9855 64.267 76.1817 64.1878 76.3624Z" fill="#464353"/>
<path d="M50.598 52.3968C50.3938 52.3294 50.1896 52.258 49.9855 52.1926L50.4101 52.2253C50.4809 52.2728 50.5442 52.3306 50.598 52.3968Z" fill="#FBBEBE"/>
<path d="M58.9588 59.7654C58.918 59.9042 58.8771 60.043 58.8322 60.1737C58.7286 60.5092 58.6024 60.8373 58.4545 61.1558C58.2231 61.679 57.8955 62.1541 57.4888 62.5564C57.3545 62.6978 57.1897 62.8068 57.0069 62.8749C56.8523 62.9145 56.6925 62.9296 56.5332 62.9198C55.9888 62.9198 55.4443 62.9117 54.8999 62.8953C54.476 62.9 54.0529 62.8583 53.6381 62.7708C53.1815 62.6462 52.7475 62.4506 52.3518 62.1909C50.8266 61.2477 49.573 59.8103 49.036 58.1075C48.9687 57.8911 48.9217 57.6318 49.0707 57.4623C49.2174 57.3427 49.4022 57.2796 49.5914 57.2847H49.6159C50.0549 57.2276 50.4778 57.0824 50.8593 56.858C51.1065 56.7315 51.3057 56.5279 51.4269 56.2781C51.5096 55.982 51.5032 55.6681 51.4085 55.3757L50.9553 53.3176C50.9081 52.988 50.7843 52.674 50.5939 52.4009C50.7266 52.4478 50.8593 52.4907 51.0022 52.5275C52.264 52.8684 53.6442 52.6622 54.8815 53.1094C55.3552 53.2829 55.8289 53.5953 55.9718 54.0812C56.2107 54.8979 55.4123 55.7452 55.641 56.5619C55.7941 57.1173 56.3597 57.4378 56.866 57.6971L57.207 57.8707L58.1523 58.3505L58.283 58.4158L58.3034 58.426C58.6015 58.5771 58.9159 58.7649 59.0201 59.0855C59.0645 59.3133 59.0432 59.5491 58.9588 59.7654Z" fill="#FBBEBE"/>
<path opacity="0.1" d="M61.4497 64.5594C61.4151 65.0813 61.2879 65.5929 61.074 66.0703C60.6641 66.8959 60.4444 67.8028 60.4309 68.7245C60.2737 71.4808 59.2263 74.7619 60.7269 77.0772C60.7637 77.1344 60.8004 77.1915 60.8352 77.2507C60.594 77.368 60.3684 77.5148 60.1634 77.6877C59.5182 76.5668 59.3467 75.2376 59.2283 73.9513C59.163 73.202 59.114 72.4506 59.0854 71.7054C59.0534 71.1691 59.0643 70.6311 59.1181 70.0965C59.1956 69.484 59.3733 68.8858 59.4835 68.2774C59.5492 67.9212 59.5915 67.5611 59.6101 67.1993C59.6631 66.409 59.6268 65.6152 59.5019 64.833C59.3832 64.0015 59.1933 63.1818 58.9343 62.3829C58.8036 62.0174 58.6464 61.6642 58.5035 61.3049L58.4545 61.1783C58.2231 61.7015 57.8955 62.1766 57.4888 62.5789C57.3545 62.7203 57.1897 62.8293 57.0069 62.8974C56.8523 62.937 56.6925 62.9521 56.5332 62.9423C55.9888 62.9423 55.4443 62.9342 54.8999 62.9178C54.476 62.9225 54.0529 62.8808 53.6381 62.7933C53.1815 62.6688 52.7475 62.4731 52.3518 62.2134C50.8266 61.2702 49.573 59.8328 49.036 58.13C48.9687 57.9136 48.9217 57.6543 49.0707 57.4848C49.2174 57.3652 49.4022 57.3021 49.5914 57.3072H49.6159L51.4534 59.5796C51.6642 59.8201 51.8426 60.0871 51.9843 60.3739C52.0117 60.4701 52.0689 60.5551 52.1476 60.6168C52.2115 60.646 52.2817 60.6586 52.3518 60.6536C54.0771 60.6536 56.376 60.6536 58.1013 60.6536C58.1069 60.3479 58.0186 60.0478 57.8481 59.794C57.795 59.8063 57.7236 59.8103 57.8338 59.7777C57.7341 59.1149 57.5199 58.4745 57.2009 57.885C57.1818 57.8445 57.1607 57.8049 57.1376 57.7666C57.0005 57.5646 56.8983 57.3409 56.8354 57.1051C57.0532 57.0356 57.2873 57.0356 57.5051 57.1051C57.7562 57.2133 57.8869 57.4848 57.9972 57.7359C58.0911 57.9401 58.185 58.1586 58.2687 58.373C58.2687 58.3954 58.2891 58.4199 58.2973 58.4424C58.4754 58.8648 58.5896 59.3114 58.6362 59.7675C58.6485 59.9349 58.6893 60.1472 58.8281 60.2024C58.85 60.2123 58.8736 60.2179 58.8976 60.2187C59.0413 60.1661 59.1975 60.1574 59.3461 60.1937C59.4948 60.2301 59.6294 60.3098 59.7326 60.4229C59.9335 60.6529 60.0738 60.9294 60.141 61.2273C60.2073 61.5251 60.3045 61.8152 60.4309 62.093C60.6943 62.5952 60.2921 62.8198 60.7678 63.1281C60.9903 63.2505 61.1817 63.4223 61.3272 63.6304C61.4618 63.9203 61.5045 64.2445 61.4497 64.5594Z" fill="black"/>
<path opacity="0.1" d="M49.5914 128.582C49.6874 129.051 49.7956 129.517 49.9099 129.982L49.8977 130.011C48.9646 129.603 48.0091 129.176 46.9902 129.086C46.0449 129.004 45.0179 129.26 44.3748 129.946C44.3659 129.796 44.3461 129.647 44.3156 129.501C44.2537 129.332 44.261 129.147 44.336 128.984C44.6259 128.455 45.3262 128.349 45.8653 128.308C47.114 128.214 48.3698 128.306 49.5914 128.582Z" fill="black"/>
<path opacity="0.1" d="M57.6338 60.1675C57.7297 60.1675 57.695 60.1675 57.6481 60.1838C57.6012 60.2002 57.5236 60.2002 57.6338 60.1675Z" fill="black"/>
<path opacity="0.1" d="M62.0705 125.935C61.16 126.516 60.3043 127.178 59.5142 127.914C59.2848 128.159 59.0113 128.36 58.7078 128.504C58.3944 128.605 58.0633 128.639 57.7359 128.604C56.4515 128.552 55.1712 128.425 53.9016 128.224C53.8159 128.187 53.7427 128.125 53.6906 128.048C53.6386 127.97 53.6097 127.879 53.6075 127.785C53.6239 127.526 53.8934 127.377 54.1302 127.265C56.2312 126.356 58.5138 125.962 60.7801 125.646C61.0107 125.607 61.2351 125.538 61.4478 125.441C61.703 125.339 61.7295 125.507 61.8561 125.695C61.9191 125.782 61.991 125.863 62.0705 125.935Z" fill="black"/>
<path d="M47.0903 57.7991C47.3905 58.0666 47.7335 58.283 48.0377 58.5423C48.8544 59.2345 49.3689 60.2022 49.8753 61.1455C49.575 61.2541 49.2502 61.276 48.9381 61.2088C48.7776 62.1146 48.8047 63.0437 49.0177 63.9386C48.6092 64.2189 48.2919 64.6129 48.1051 65.0717C47.9599 65.5374 47.8601 66.0161 47.807 66.501C47.513 68.6257 47.2176 70.7505 46.9209 72.8752C46.9149 73.0832 46.8435 73.284 46.7167 73.4489C46.66 73.4947 46.6081 73.546 46.5615 73.6021C46.4991 73.7394 46.4744 73.891 46.4901 74.041C46.4778 74.1901 46.3798 74.3677 46.2308 74.3473C46.1584 74.33 46.0942 74.2881 46.0491 74.2289C45.9 74.071 45.7634 73.9017 45.6407 73.7225C44.4361 76.0338 43.8563 78.5247 43.2192 81.0523C42.7639 82.8531 42.3086 84.6743 42.2862 86.5323C42.2923 87.4113 42.3475 88.2892 42.4515 89.162L42.6312 90.9547C42.7762 92.3961 42.9211 93.8396 43.0784 95.2811C43.1804 96.1958 43.2825 97.1186 43.6112 97.9802C44.1013 99.289 43.5582 100.765 43.7664 102.149C43.9298 103.234 44.2544 104.354 43.9277 105.4C43.797 105.818 43.5684 106.2 43.3969 106.604C42.9763 107.609 42.9334 108.726 42.8966 109.814C42.8305 110.768 42.8661 111.726 43.0028 112.672C43.1784 113.65 43.5725 114.608 43.4949 115.596C43.3867 117.003 42.3495 118.206 42.2229 119.61C42.1228 120.731 42.6149 121.813 43.1437 122.808C43.5337 123.541 42.9906 124.488 42.7843 125.294C42.376 126.875 43.0559 128.529 43.8889 129.931C43.9102 129.979 43.9478 130.018 43.9951 130.041C44.091 130.076 44.1768 129.982 44.2401 129.903C44.8669 129.098 45.9776 128.794 46.9964 128.882C48.0152 128.97 48.9687 129.39 49.9038 129.807L51.2289 126.856C51.4535 126.356 51.6822 125.815 51.5699 125.278C51.4903 124.894 51.2432 124.57 51.0676 124.218C50.6593 123.389 50.6389 122.424 50.6348 121.495L50.6103 116.248C51.6434 114.949 52.2743 113.405 52.6724 111.792C53.2832 114.061 53.3253 116.446 52.7949 118.734C52.6968 119.08 52.6285 119.434 52.5907 119.792C52.5111 121.248 53.6524 122.479 53.9567 123.904C53.9861 124.013 53.9945 124.127 53.9812 124.239C53.9469 124.377 53.8896 124.508 53.8117 124.627C53.2645 125.619 53.3237 126.822 53.4034 127.953C54.8351 128.202 56.2817 128.357 57.7338 128.416C58.0612 128.449 58.3918 128.415 58.7057 128.316C59.0093 128.171 59.2829 127.97 59.5122 127.724C60.4392 126.852 61.4571 126.082 62.5482 125.427C61.9389 124.416 61.086 123.574 60.0675 122.977C60.3963 122.493 61.1456 122.532 61.5825 122.144C61.8019 121.927 61.9451 121.645 61.9908 121.34C62.1542 120.539 61.952 119.706 61.7499 118.92C61.3579 117.373 60.9639 115.819 60.3207 114.357C60.0299 113.756 59.7735 113.139 59.553 112.509C59.0181 110.749 59.3917 108.834 58.9875 107.035C58.8568 106.46 58.6465 105.865 58.7935 105.292C59.0181 104.408 60.0185 103.883 60.239 102.997C61.0292 99.8423 61.1701 96.5735 61.6192 93.3537C61.7197 92.7386 61.7736 92.1169 61.7805 91.4937C61.7805 90.8424 61.6642 90.1972 61.6172 89.5479C61.4335 86.9488 62.2644 84.3558 62.0521 81.7587C61.9161 80.1583 61.3889 78.6158 60.5167 77.267C59.016 74.9496 60.0634 71.6706 60.2207 68.9143C60.2325 67.9926 60.4516 67.0855 60.8618 66.26C61.0774 65.7832 61.2054 65.2714 61.2395 64.7492C61.3025 64.4272 61.2624 64.0936 61.1252 63.7957C60.9815 63.5867 60.7905 63.4146 60.5678 63.2934C60.092 62.9831 60.4943 62.7585 60.2309 62.2562C60.1042 61.9786 60.007 61.6884 59.9409 61.3905C59.8741 61.0931 59.7337 60.8172 59.5326 60.5881C59.4294 60.4751 59.2948 60.3954 59.1461 60.359C58.9974 60.3226 58.8413 60.3313 58.6975 60.3839C58.5036 60.3839 58.4505 60.1267 58.4342 59.9327C58.379 59.2222 58.085 58.5546 57.7971 57.9012C57.6869 57.6501 57.5562 57.3785 57.3051 57.2703C57.0864 57.2019 56.852 57.2019 56.6334 57.2703C56.6966 57.5071 56.7994 57.7315 56.9376 57.9339C57.2915 58.5548 57.5269 59.236 57.6318 59.9429C57.4276 60.0042 57.8359 59.9429 57.6318 59.9429C57.8146 60.1977 57.9086 60.5054 57.8992 60.8188C56.176 60.8188 53.877 60.8188 52.1518 60.8188C52.0817 60.8244 52.0114 60.8117 51.9476 60.7821C51.8689 60.7199 51.8112 60.6351 51.7822 60.5391C51.6418 60.2523 51.4633 59.9858 51.2514 59.7469L49.2301 57.254C49.1852 57.1888 49.1258 57.135 49.0565 57.0968C48.9731 57.0732 48.8847 57.0732 48.8013 57.0968C48.1459 57.1927 47.662 57.4663 47.0903 57.7991Z" fill="#FFB74C"/>
<path opacity="0.1" d="M54.3446 91.5776C54.6931 91.5728 55.0365 91.6617 55.3389 91.8348C55.489 91.9232 55.6135 92.0491 55.7002 92.2001C55.7868 92.3512 55.8326 92.5223 55.833 92.6964C55.8105 93.0823 55.5145 93.3886 55.3001 93.7173C55.1674 93.9176 55.0617 94.1345 54.9857 94.3625C54.9622 94.4143 54.9565 94.4724 54.9694 94.5279C54.9939 94.6054 55.0776 94.6442 55.149 94.6789C55.4088 94.7964 55.6306 94.984 55.7897 95.2206C55.9487 95.4572 56.0387 95.7334 56.0494 96.0183C56.031 96.8146 55.2532 97.4598 55.296 98.2642C55.3155 98.4317 55.3441 98.598 55.3818 98.7624C55.4752 99.448 55.3799 100.146 55.1061 100.782C54.8591 101.423 54.5222 102.025 54.2568 102.66C53.5401 104.385 53.385 106.296 53.4401 108.173C53.483 109.447 53.0318 110.659 52.6234 111.872C52.8542 109.429 52.9156 106.973 52.8072 104.522C52.7786 103.856 52.6949 103.228 52.7255 102.56C52.7745 101.5 53.3666 100.537 53.5177 99.4974C53.6034 98.9033 53.5463 98.2989 53.5606 97.6987C53.5891 96.4736 53.9219 95.2649 53.9444 94.0358C53.973 93.1681 53.8934 92.2738 54.3446 91.5776Z" fill="black"/>
<path d="M45.8244 58.236C45.4185 58.4383 45.0387 58.6893 44.6933 58.9833C44.3324 59.3418 44.0306 59.7553 43.799 60.2083C43.5171 60.7218 43.2642 61.2508 43.0416 61.7927C42.7537 62.495 42.5148 63.2729 42.7128 64.0059C42.8925 64.6695 43.4009 65.186 43.7521 65.7761C44.1033 66.3661 44.3095 67.0583 44.579 67.7055C44.9383 68.5691 45.4304 69.3736 45.7856 70.2393C46.1409 71.105 46.3553 72.0768 46.1307 72.9772C46.0654 73.2426 45.6346 73.4489 45.6346 73.7204C45.6346 74.1696 46.2838 74.6576 46.7146 74.7882C47.2108 74.9414 47.7518 74.7127 48.1581 74.3799C48.9033 73.7898 49.3566 72.9058 49.6915 72.0156C50.2305 70.5864 50.5183 69.0694 50.7776 67.5626C50.9655 66.456 51.1411 65.3473 51.2411 64.2325C51.333 63.228 51.3616 62.1908 51.0962 61.2271C50.8485 60.3426 50.3667 59.5413 49.7017 58.9077C49.1708 58.3973 48.301 57.7113 47.5293 57.6929C46.9188 57.6908 46.3471 57.9481 45.8244 58.236Z" fill="#464353"/>
<path d="M51.6291 82.849C51.6069 82.9886 51.5547 83.1216 51.4761 83.239C51.3975 83.3564 51.2943 83.4553 51.1738 83.5289C50.9328 83.6753 50.6703 83.7828 50.3959 83.8474C49.8487 84.0067 49.2688 84.1537 48.7155 84.0128C48.2807 83.8712 47.8792 83.6427 47.5354 83.3411L41.3531 78.6084C40.8564 78.2563 40.3998 77.851 39.9912 77.3997C39.7567 77.1083 39.5412 76.8021 39.3461 76.4829C39.0877 76.1176 38.8854 75.7157 38.7458 75.2906C38.6959 75.1035 38.6712 74.9105 38.6723 74.7169C38.6706 74.5337 38.7156 74.3531 38.803 74.1921C38.952 73.943 39.2705 73.892 39.5318 73.8226C40.409 73.5958 41.3195 73.5267 42.2208 73.6184C42.3 73.6146 42.3782 73.6367 42.4438 73.6812C42.5093 73.7258 42.5586 73.7904 42.5842 73.8655C42.721 74.1166 42.8394 74.3779 42.9619 74.6393C43.15 75.0849 43.395 75.5042 43.6908 75.8868C43.9759 76.1966 44.2793 76.4891 44.5994 76.7627C45.2528 77.3752 45.7877 78.1102 46.4839 78.6737C47.2904 79.325 48.2704 79.715 49.1892 80.1948C50.108 80.6746 51.0145 81.2973 51.4759 82.2263C51.583 82.416 51.6359 82.6314 51.6291 82.849Z" fill="#FBBEBE"/>
<path opacity="0.1" d="M58.7853 49.8303C58.7855 51.1193 58.2933 52.3598 57.4093 53.298C56.5254 54.2362 55.3164 54.8012 54.0296 54.8776C52.7428 54.954 51.4754 54.536 50.4867 53.7089C49.4979 52.8819 48.8624 51.7084 48.7101 50.4284C48.5578 49.1484 48.9003 47.8585 49.6674 46.8226C50.4346 45.7867 51.5685 45.083 52.8373 44.8553C54.1061 44.6277 55.4139 44.8934 56.4933 45.598C57.5727 46.3026 58.3422 47.393 58.6444 48.6461C58.7381 49.0338 58.7854 49.4314 58.7853 49.8303Z" fill="black"/>
<path d="M58.7853 49.6262C58.7855 50.9152 58.2933 52.1557 57.4093 53.0939C56.5254 54.032 55.3164 54.5971 54.0296 54.6735C52.7428 54.7499 51.4754 54.3318 50.4867 53.5048C49.4979 52.6778 48.8624 51.5043 48.7101 50.2243C48.5578 48.9443 48.9003 47.6544 49.6674 46.6185C50.4346 45.5826 51.5685 44.8789 52.8373 44.6512C54.1061 44.4236 55.4139 44.6893 56.4933 45.3939C57.5727 46.0985 58.3422 47.1888 58.6444 48.442C58.7381 48.8297 58.7854 49.2272 58.7853 49.6262Z" fill="#FBBEBE"/>
<path opacity="0.1" d="M42.9619 74.6311C42.7292 74.7801 42.3841 74.7311 42.0963 74.6658C40.9611 74.4126 39.7074 74.2309 38.6723 74.7168C38.6706 74.5337 38.7156 74.3531 38.803 74.1921C38.952 73.943 39.2705 73.892 39.5318 73.8226C40.409 73.5958 41.3195 73.5267 42.2208 73.6184C42.3 73.6146 42.3782 73.6367 42.4438 73.6812C42.5093 73.7258 42.5586 73.7904 42.5842 73.8655C42.721 74.1084 42.8394 74.3698 42.9619 74.6311Z" fill="black"/>
<path d="M40.8283 67.7565C40.5772 68.5732 40.371 69.4124 39.8789 70.1045C39.7163 70.2865 39.5938 70.5008 39.5196 70.7334C39.514 70.9051 39.4859 71.0753 39.4359 71.2397C39.3665 71.3786 39.2195 71.4704 39.1603 71.6134C39.0725 71.8175 39.1868 72.0809 39.0704 72.2728C39.0159 72.3499 38.9506 72.4187 38.8765 72.477C38.5988 72.7343 38.5294 73.1447 38.5232 73.5244C38.5171 73.9042 38.5539 74.2921 38.4293 74.6494C39.5074 74.0063 40.8794 74.1982 42.1044 74.4718C42.4454 74.5473 42.868 74.6045 43.0885 74.3309C43.309 74.0573 43.1825 73.698 43.2131 73.3693C43.2539 72.9405 43.5479 72.5852 43.7296 72.1953C43.9338 71.7563 44.0032 71.2663 44.1604 70.8089C44.4851 69.8473 45.1813 69.0632 45.6284 68.1547C45.794 67.8422 45.8927 67.4987 45.9184 67.1461C45.9029 66.689 45.7835 66.2414 45.5692 65.8373C45.1443 64.8964 44.6388 63.994 44.0584 63.1402C43.7991 62.7584 43.3519 62.052 42.9497 62.6624C42.623 63.1545 42.4188 63.7813 42.1779 64.3203C41.6587 65.4373 41.208 66.5848 40.8283 67.7565Z" fill="#464353"/>
<path d="M59.2509 59.8307C58.6378 59.8729 58.0231 59.7777 57.4515 59.552C56.88 59.3263 56.3661 58.9757 55.9473 58.526C55.8768 58.4618 55.8259 58.379 55.8003 58.2871C55.7887 58.1677 55.8222 58.0482 55.8943 57.9523C56.1393 57.5746 56.5619 57.3255 56.7579 56.9192C56.9539 56.5129 56.8865 56.0453 56.9049 55.6002C56.9376 54.8019 57.252 54.0118 57.2786 53.2257C57.288 53.0245 57.2729 52.823 57.2336 52.6254C57.1397 52.3321 57.0821 52.0283 57.0621 51.721C57.0887 51.1227 57.6277 50.6572 57.7175 50.0672C57.8339 49.3158 57.2112 48.6625 56.5844 48.2296C56.1064 47.8981 55.5876 47.6298 55.0408 47.4313C54.705 47.311 54.3573 47.2268 54.0036 47.1802C53.3443 47.0911 52.6731 47.1661 52.0497 47.3986C51.7917 47.496 51.5474 47.6264 51.3228 47.7866C51.1891 47.8711 51.0778 47.9867 50.9982 48.1234C50.9328 48.2774 50.9034 48.4443 50.9125 48.6114C50.9002 49.4465 50.9941 50.3346 50.596 51.0615C50.3918 51.4515 50.0447 51.7679 49.8753 52.1803C49.8059 52.3519 49.7626 52.5329 49.7466 52.7173C49.7262 52.9086 49.716 53.1008 49.716 53.2931C49.7038 54.3691 49.716 55.5043 50.2632 56.4373C50.4563 56.7194 50.6315 57.0133 50.7879 57.3173C50.8638 57.4711 50.8989 57.6418 50.8899 57.813C50.881 57.9842 50.8283 58.1503 50.7369 58.2953C50.6263 58.4277 50.4865 58.5325 50.3285 58.6016C49.9232 58.7961 49.482 58.9048 49.0326 58.921C48.5833 58.9372 48.1355 58.8604 47.7172 58.6955C48.2063 58.2319 48.5423 57.6301 48.6803 56.9704C48.8182 56.3108 48.7514 55.6247 48.4889 55.0041C48.3414 54.7534 48.2456 54.4757 48.2072 54.1874C48.2277 53.9277 48.2969 53.6741 48.4113 53.4401C48.6912 52.6729 48.7346 51.8393 48.5359 51.0472C48.4114 50.5613 48.1949 50.0917 48.1561 49.5914C48.1237 49.2139 48.1402 48.8337 48.2051 48.4603C48.317 47.7923 48.6114 47.1682 49.0556 46.657C49.4998 46.1457 50.0767 45.7672 50.7226 45.5631C50.8267 45.5284 50.9268 45.4957 51.0411 45.4672C51.5364 45.3572 52.0425 45.3031 52.5499 45.3059C53.6831 45.2691 54.8326 45.2364 55.9249 45.5325C56.5662 45.7004 57.1628 46.0071 57.6726 46.4309C58.0345 46.7351 58.3234 47.1168 58.5179 47.5477C58.6241 47.7959 58.7042 48.0546 58.7568 48.3194C58.8037 48.5379 58.8384 48.7584 58.8731 48.9789C59.1202 50.549 59.3672 52.1497 59.1039 53.7178C58.9997 54.3303 58.818 54.9428 58.7363 55.5676C58.5383 57.007 58.8956 58.4382 59.2509 59.8307Z" fill="#464353"/>
<path d="M51.9966 61.8479C52.2063 61.8479 52.3763 61.6779 52.3763 61.4681C52.3763 61.2584 52.2063 61.0884 51.9966 61.0884C51.7868 61.0884 51.6168 61.2584 51.6168 61.4681C51.6168 61.6779 51.7868 61.8479 51.9966 61.8479Z" fill="white"/>
<path d="M58.4055 61.6682C58.6153 61.6682 58.7853 61.4982 58.7853 61.2885C58.7853 61.0787 58.6153 60.9087 58.4055 60.9087C58.1958 60.9087 58.0258 61.0787 58.0258 61.2885C58.0258 61.4982 58.1958 61.6682 58.4055 61.6682Z" fill="white"/>
<path opacity="0.1" d="M51.9966 42.276L51.1799 40.7345C51.2317 40.6729 51.2884 40.6155 51.3494 40.563C51.4673 40.4904 51.6054 40.4574 51.7434 40.4691L51.9966 42.276Z" fill="black"/>
<path opacity="0.1" d="M54.2487 40.3975L53.3238 41.7654L52.797 40.2648C53.0218 40.1682 53.265 40.1222 53.5096 40.13C53.7691 40.1774 54.0189 40.2678 54.2487 40.3975Z" fill="black"/>
<g opacity="0.1">
<path opacity="0.1" d="M50.7369 57.8911C50.6263 58.0235 50.4865 58.1283 50.3285 58.1974C49.6045 58.5438 48.7786 58.6128 48.0071 58.3913C47.9174 58.5004 47.8205 58.6034 47.7172 58.6996C48.1355 58.8645 48.5833 58.9413 49.0326 58.9251C49.482 58.909 49.9232 58.8002 50.3285 58.6057C50.4865 58.5366 50.6263 58.4318 50.7369 58.2994C50.8071 58.1975 50.8551 58.0819 50.8776 57.9602C50.9001 57.8384 50.8967 57.7133 50.8675 57.593C50.8471 57.701 50.8025 57.8029 50.7369 57.8911Z" fill="black"/>
<path opacity="0.1" d="M48.5216 51.0533C48.5883 51.3209 48.6273 51.5945 48.638 51.87C48.6615 51.4582 48.6223 51.0451 48.5216 50.645C48.3971 50.1591 48.1807 49.6895 48.1419 49.1892C48.1419 49.1259 48.1419 49.0627 48.1317 48.9973C48.1219 49.1974 48.1253 49.3979 48.1419 49.5976C48.1807 50.0978 48.3971 50.5674 48.5216 51.0533Z" fill="black"/>
<path opacity="0.1" d="M59.0896 53.7239C59.1762 53.184 59.2131 52.6373 59.1998 52.0906C59.1927 52.501 59.1558 52.9105 59.0896 53.3156C58.9854 53.9281 58.8037 54.5406 58.722 55.1654C58.6799 55.5005 58.6642 55.8385 58.6751 56.176C58.6807 55.9746 58.6963 55.7736 58.722 55.5737C58.8037 54.949 58.9854 54.3426 59.0896 53.7239Z" fill="black"/>
<path opacity="0.1" d="M48.4808 54.5996C48.3739 54.3986 48.2877 54.1872 48.2236 53.9688C48.2062 54.0423 48.198 54.1178 48.1991 54.1933C48.2375 54.4816 48.3333 54.7593 48.4808 55.01C48.6307 55.3523 48.7172 55.719 48.736 56.0921C48.773 55.5813 48.6854 55.0692 48.4808 54.5996Z" fill="black"/>
<path opacity="0.1" d="M57.2337 52.6172C57.2516 52.7103 57.2645 52.8044 57.2724 52.8989C57.2724 52.8683 57.2724 52.8397 57.2724 52.8091C57.2819 52.6079 57.2668 52.4063 57.2275 52.2088C57.1826 51.9944 57.1091 51.7821 57.0744 51.5657C57.0643 51.6141 57.0581 51.6633 57.056 51.7127C57.0779 52.0203 57.1376 52.3241 57.2337 52.6172Z" fill="black"/>
<path opacity="0.1" d="M55.9474 58.1095C55.916 58.0767 55.8866 58.0419 55.8596 58.0054C55.8094 58.0872 55.7885 58.1837 55.8004 58.279C55.8259 58.3708 55.8769 58.4537 55.9474 58.5178C56.3661 58.9676 56.8801 59.3181 57.4516 59.5438C58.0231 59.7695 58.6379 59.8647 59.2509 59.8225C59.2162 59.6878 59.1815 59.555 59.1488 59.4142C58.5525 59.4416 57.9574 59.3391 57.4047 59.1138C56.8519 58.8886 56.3547 58.5459 55.9474 58.1095Z" fill="black"/>
<path opacity="0.1" d="M57.7134 49.6793C57.7124 49.6718 57.7124 49.6643 57.7134 49.6568C57.8298 48.9054 57.2071 48.2521 56.5802 47.8192C56.1023 47.4878 55.5835 47.2194 55.0367 47.0209C54.7009 46.9006 54.3532 46.8165 53.9995 46.7698C53.3401 46.6807 52.669 46.7558 52.0456 46.9883C51.7875 47.0856 51.5432 47.216 51.3187 47.3762C51.185 47.4608 51.0736 47.5763 50.9941 47.7131C50.9286 47.8671 50.8993 48.034 50.9083 48.201C50.9083 48.3419 50.9083 48.4828 50.9083 48.6257V48.6094C50.8993 48.4423 50.9286 48.2754 50.9941 48.1214C51.0736 47.9847 51.185 47.8691 51.3187 47.7845C51.5432 47.6244 51.7875 47.494 52.0456 47.3966C52.669 47.1641 53.3401 47.0891 53.9995 47.1781C54.3532 47.2248 54.7009 47.309 55.0367 47.4293C55.5835 47.6278 56.1023 47.8961 56.5802 48.2276C57.1009 48.5788 57.6134 49.0851 57.7134 49.6793Z" fill="black"/>
<path opacity="0.1" d="M50.5959 50.6572C50.3918 51.0472 50.0447 51.3636 49.8752 51.7761C49.8058 51.9477 49.7625 52.1287 49.7466 52.313C49.7261 52.5043 49.7159 52.6965 49.7159 52.8888C49.7159 53.0624 49.7159 53.2379 49.7159 53.4135C49.7159 53.3747 49.7159 53.3359 49.7159 53.2972C49.7159 53.1048 49.7261 52.9126 49.7466 52.7214C49.7625 52.537 49.8058 52.356 49.8752 52.1844C50.0447 51.7761 50.3836 51.4555 50.5959 51.0656C50.9246 50.453 50.9185 49.7486 50.9124 49.0483C50.9395 49.6024 50.8309 50.1547 50.5959 50.6572Z" fill="black"/>
</g>
<path opacity="0.1" d="M58.7424 48.3338C58.7143 48.3738 58.6814 48.4102 58.6444 48.4421C58.5724 48.5013 58.4918 48.5495 58.4055 48.585C57.8114 48.8422 57.8359 48.0031 57.5256 47.7152C57.3265 47.5684 57.0823 47.4961 56.8354 47.511C56.2379 47.4811 55.6397 47.4545 55.0408 47.4314C54.0424 47.3946 53.046 47.3763 52.0497 47.3987C51.5719 47.4069 51.0955 47.4266 50.6204 47.4579C50.0692 47.4947 49.4771 47.5662 49.0075 47.8275C48.8467 47.9159 48.7013 48.0297 48.5767 48.1644C48.4644 48.2869 48.346 48.4421 48.1908 48.4706C48.3027 47.8026 48.597 47.1786 49.0413 46.6673C49.4855 46.156 50.0624 45.7775 50.7082 45.5734C51.7538 44.7946 53.0599 44.4501 54.3536 44.6118C55.6473 44.7735 56.8284 45.429 57.6501 46.4412C58.012 46.7454 58.3009 47.1271 58.4954 47.558C58.6047 47.8072 58.6875 48.0673 58.7424 48.3338Z" fill="black"/>
<path d="M58.4055 48.1764C57.8114 48.4336 57.8359 47.5945 57.5255 47.3066C57.3265 47.1598 57.0823 47.0875 56.8354 47.1024C54.7665 46.9663 52.6914 46.9486 50.6204 47.0493C49.8834 47.0983 49.0748 47.2086 48.5787 47.7558C48.4521 47.8946 48.3194 48.0743 48.1295 48.0681C48.0662 47.6598 48.0213 47.2351 47.9907 46.8166C47.9722 46.6598 47.9805 46.501 48.0152 46.347C48.0662 46.1714 48.1826 46.0223 48.2418 45.8508C48.3001 45.6327 48.3208 45.4062 48.3031 45.1812C48.312 44.3482 48.5359 43.5316 48.9529 42.8105C49.37 42.0894 49.9662 41.4882 50.6837 41.065C50.8638 40.977 51.0308 40.8643 51.1799 40.7302C51.2316 40.6686 51.2883 40.6112 51.3493 40.5587C51.4672 40.486 51.6054 40.4531 51.7434 40.4648C51.8414 40.4648 51.9475 40.4648 52.0333 40.4648C52.2973 40.4357 52.5555 40.3669 52.7989 40.2606C53.0237 40.164 53.267 40.118 53.5115 40.1259C53.771 40.1732 54.0209 40.2636 54.2506 40.3933C54.3611 40.4465 54.4767 40.4883 54.5957 40.5179C54.7815 40.5607 54.9734 40.5587 55.1592 40.5954C55.4601 40.6721 55.7459 40.7991 56.0044 40.9711C56.313 41.1375 56.5985 41.3434 56.8538 41.5836C57.1314 41.9009 57.3536 42.2625 57.5112 42.6535C57.7816 43.1936 57.9872 43.7638 58.1238 44.3522C58.2891 45.1975 58.2075 46.1122 58.5995 46.8799C58.8384 47.3617 59.0568 47.8966 58.4055 48.1764Z" fill="#FED253"/>
<path opacity="0.1" d="M48.056 47.5353C48.056 47.5353 52.2885 43.6846 58.5913 46.8778C58.5913 46.8778 51.4759 45.2588 48.056 47.5353Z" fill="black"/>
<path d="M1.93756 67.2115C1.36179 66.2682 0.496103 65.4046 0.630856 64.3347C2.21523 64.5164 3.71794 64.1305 5.16961 63.4588C6.62127 62.7871 7.96881 61.9152 9.3286 61.0598C9.86353 60.7229 10.3964 60.3921 10.9273 60.0859C11.7685 59.604 12.6035 59.065 13.459 58.5934C14.684 57.9196 15.9336 57.3683 17.3097 57.2622C17.559 57.2427 17.8091 57.2366 18.059 57.2438C19.7536 57.2764 21.5095 57.7318 23 56.9722L23.0919 56.9232C23.9371 56.4598 24.5517 55.6717 25.2765 55.0326C25.7976 54.5819 26.365 54.1877 26.9691 53.8566C28.0696 53.244 29.2619 52.754 30.3869 52.1762C30.6749 52.0279 30.9483 51.8529 31.2036 51.6535L31.3955 51.5004L31.4384 51.4637C31.4854 51.4249 31.5323 51.3861 31.5773 51.3452L31.6651 51.2677L31.7549 51.186L31.8243 51.1207L31.9366 51.0145L31.9488 51.0002L32.1265 50.8246L32.1979 50.7531L32.3225 50.6245L32.396 50.551C32.5205 50.4224 32.6451 50.2917 32.7717 50.1651C32.8983 50.0385 33.0698 49.867 33.2229 49.7262L33.3699 49.5955L33.4128 49.5587L33.5312 49.4607L33.5863 49.4138L33.7027 49.3239L33.7599 49.279C33.817 49.2361 33.8762 49.1953 33.9354 49.1545C33.9899 49.1167 34.0473 49.0833 34.1069 49.0544L33.7251 48.1295L34.8236 47.6763L49.9732 84.4375L48.8727 84.8908L40.2076 63.861L40.1464 63.9223C38.1391 65.903 35.6803 67.3661 32.982 68.1854H32.9656C31.4568 68.6407 29.7683 68.9633 28.4983 69.8085C28.048 70.1012 27.6567 70.4759 27.3448 70.9131C27.0467 71.3378 26.8384 71.8217 26.5281 72.23C26.4689 72.3056 26.4035 72.3791 26.3382 72.4485C25.9669 72.8166 25.556 73.1425 25.1132 73.4204L24.9192 73.5531C23.6037 74.4786 22.2333 75.3234 20.8153 76.0828C19.9971 76.5087 19.1439 76.8638 18.2652 77.1445C17.6262 77.3486 16.9667 77.4977 16.3276 77.6998C15.8977 77.83 15.4803 77.9981 15.0801 78.2021C13.998 78.7676 13.167 79.6537 12.381 80.5991C11.6929 81.428 11.0396 82.3059 10.2841 83.0614C9.81044 83.531 9.08972 83.9761 8.51803 83.7004L8.40165 83.6331C8.42003 83.6024 8.43432 83.5718 8.45066 83.5391C8.90188 82.5938 8.34653 81.426 7.59926 80.6685C7.52167 80.5888 7.44204 80.5113 7.36038 80.4378C7.27871 80.3643 7.1317 80.2336 7.01532 80.1315C6.37627 79.5823 5.69637 79.0718 5.25332 78.3634C4.91516 77.7682 4.68563 77.1177 4.57547 76.4421C4.37129 75.4805 4.2345 74.4902 3.71182 73.6715C3.36881 73.1304 2.85838 72.669 2.48678 72.1504C2.25189 71.8435 2.09748 71.4828 2.0376 71.101C1.95389 70.4374 2.26219 69.7881 2.37857 69.1266C2.41319 68.9464 2.42757 68.7629 2.42145 68.5794C2.3788 68.0898 2.21228 67.619 1.93756 67.2115Z" fill="url(#paint0_linear)"/>
<path d="M48.4877 84.5752L49.5693 84.1294L34.6722 47.9862L33.5906 48.432L48.4877 84.5752Z" fill="#D6D8E1"/>
<path d="M4.07733 73.5428C4.58981 74.3492 4.7266 75.3211 4.92465 76.2664C5.03449 76.9309 5.26049 77.5709 5.59229 78.157C6.02922 78.8533 6.69686 79.3555 7.32367 79.8945C7.43801 79.9946 7.55235 80.0987 7.6626 80.1967C7.74223 80.2682 7.82185 80.3458 7.8974 80.4213C8.63242 81.1665 9.17756 82.316 8.7345 83.245C8.7209 83.2766 8.70521 83.3073 8.68754 83.3369C8.72341 83.3613 8.76093 83.3831 8.79984 83.4022C9.36335 83.6758 10.0718 83.2389 10.5373 82.7754C11.2805 82.0322 11.9237 81.1706 12.5995 80.356C13.3713 79.425 14.19 78.5531 15.2537 77.9978C15.6464 77.7967 16.0564 77.6313 16.4788 77.5037C17.1056 77.2995 17.7548 77.1546 18.3837 76.9585C19.2474 76.6823 20.0862 76.3333 20.8909 75.9152C22.2874 75.1678 23.6374 74.3367 24.9335 73.4264L25.1255 73.2957C25.5607 73.0229 25.9647 72.7032 26.3301 72.3422C26.3954 72.2728 26.4587 72.2013 26.5179 72.1258C26.8323 71.7175 27.0385 71.2499 27.3346 70.8313C27.6416 70.4014 28.0267 70.0329 28.4698 69.7451C29.7193 68.9142 31.3772 68.5957 32.8615 68.1485H32.8779C35.5303 67.3416 37.9475 65.9033 39.9218 63.9569C40.0855 63.8202 40.2078 63.6406 40.275 63.4383C40.3383 63.1504 40.1832 62.8645 40.0341 62.6114C39.8606 62.3133 39.6911 62.0152 39.5237 61.713C38.7707 60.3426 38.0985 58.9294 37.5106 57.4805C37.3819 57.162 37.2574 56.8455 37.1369 56.525C36.8279 55.7083 36.5462 54.88 36.2916 54.0402C36.2079 53.7625 36.1263 53.4828 36.0487 53.2031C36.0344 53.15 36.0181 53.0929 36.0038 53.0316C35.6648 51.6698 35.2116 48.4826 33.815 49.4361C33.3997 49.7331 33.0134 50.0688 32.6615 50.4386C32.3899 50.7143 32.1245 50.998 31.8448 51.2716C31.6169 51.4957 31.3763 51.7064 31.124 51.9025C30.868 52.0986 30.5947 52.2708 30.3074 52.417C29.1987 52.9846 28.0267 53.4604 26.9467 54.0688C26.3519 54.3938 25.7934 54.7812 25.2806 55.2244C24.5681 55.8533 23.9637 56.6291 23.1327 57.0844L23.0429 57.1334C21.5769 57.8787 19.8517 57.4315 18.1836 57.3989C17.9384 57.3927 17.6931 57.3988 17.4486 57.4172C16.0949 57.5193 14.8576 58.0624 13.6612 58.726C12.82 59.1915 11.9992 59.7182 11.1723 60.194C10.6496 60.4941 10.127 60.8187 9.60019 61.1515C8.26491 61.9927 6.91124 62.8748 5.51675 63.5118C4.08754 64.161 2.61138 64.549 1.05354 64.3713C0.920829 65.4228 1.77019 66.2722 2.33779 67.1991C2.6104 67.5976 2.77566 68.0596 2.81759 68.5405C2.82509 68.7204 2.81208 68.9006 2.7788 69.0775C2.66446 69.7288 2.37045 70.3658 2.44395 71.0212C2.50189 71.3949 2.65284 71.7481 2.88292 72.0482C3.23818 72.5566 3.73841 73.0119 4.07733 73.5428Z" fill="#F86D70"/>
<path d="M45.5876 77.7957C45.5876 77.7957 47.3762 79.3555 49.1892 80.1865C51.0023 81.0175 49.8017 83.9984 49.8017 83.9984C49.8017 83.9984 47.8805 84.4394 46.535 82.5692C45.1895 80.699 45.5876 77.7957 45.5876 77.7957Z" fill="#FBBEBE"/>
<path d="M141.965 104.349C141.965 104.349 137.228 110.582 133.298 110.633C129.368 110.684 127.06 113.259 128.927 114.867C130.793 116.476 151.128 113.949 151.128 113.949C151.128 113.949 151.32 106.288 149.558 105.169C147.796 104.05 141.965 104.349 141.965 104.349Z" fill="#444176"/>
<path d="M192.896 111.831C192.896 111.831 193.621 116.768 191.381 120.135C189.141 123.502 195.428 124.8 195.428 124.8C195.428 124.8 199.995 126.072 200.328 121.56C200.661 117.048 200.552 113.597 200.124 113.23C199.695 112.862 199.338 110.324 199.338 110.324L192.896 111.831Z" fill="#444176"/>
<path d="M121.191 121.156C121.191 121.156 121.025 105.188 136.826 98.6969L140.495 91.7162L142.255 87.4286C142.892 85.8757 143.895 84.4995 145.178 83.4168C146.461 82.3341 147.986 81.5769 149.624 81.2095L152.47 80.5705L153.35 76.8627C153.819 74.8808 154.858 73.0795 156.338 71.6812C157.819 70.2829 159.677 69.3487 161.682 68.9939C163.413 68.6726 165.169 68.5086 166.929 68.5039C167.708 68.5156 168.471 68.7286 169.143 69.1221C169.815 69.5157 170.374 70.0764 170.766 70.7498C170.766 70.7498 185.736 70.5844 186.399 78.735C186.399 78.735 187.898 86.2179 190.06 87.5491C190.06 87.5491 193.719 86.7181 197.378 92.0409L201.369 105.68C201.369 105.68 211.847 115.492 208.687 124.463C208.687 124.463 204.362 130.617 182.408 126.458C182.408 126.458 158.956 133.604 146.473 123.804C146.471 123.816 125.682 127.808 121.191 121.156Z" fill="#A8A8A8"/>
<path opacity="0.1" d="M131.669 118.661C131.669 118.661 134.997 114.004 134.829 110.676C134.662 107.348 135.613 99.2419 135.613 99.2419" stroke="black" stroke-miterlimit="10"/>
<path opacity="0.1" d="M143.811 106.186C143.811 106.186 147.137 100.032 146.804 96.7063C146.804 96.7063 150.297 90.377 152.958 90.8833" stroke="black" stroke-miterlimit="10"/>
<path opacity="0.1" d="M162.107 88.7209C162.107 88.7209 171.254 85.395 171.754 82.7346" stroke="black" stroke-miterlimit="10"/>
<path opacity="0.1" d="M165.433 96.3735C165.433 96.3735 175.08 92.0491 175.08 90.8833H179.9C179.9 90.8833 186.887 100.032 186.056 104.024" stroke="black" stroke-miterlimit="10"/>
<path opacity="0.1" d="M176.744 103.025C176.744 103.025 167.429 102.36 164.101 105.022C160.773 107.685 154.787 109.014 154.787 109.014C154.787 109.014 151.294 116.499 149.963 117.828C148.631 119.157 146.469 123.816 146.469 123.816" stroke="black" stroke-miterlimit="10"/>
<path opacity="0.1" d="M176.744 111.842C176.744 111.842 177.74 115.333 179.071 117.33C180.403 119.327 182.397 126.477 182.397 126.477" stroke="black" stroke-miterlimit="10"/>
<path opacity="0.1" d="M192.377 121.987C192.377 121.987 194.488 127.861 196.344 127.918" stroke="black" stroke-miterlimit="10"/>
<path opacity="0.1" d="M178.549 96.7737C178.549 96.7737 184.033 98.256 186.326 101.847C188.618 105.439 195.622 108.695 195.622 108.695" stroke="black" stroke-miterlimit="10"/>
<path opacity="0.1" d="M180.901 79.0801C180.901 79.0801 180.901 86.7304 183.063 86.7304C185.225 86.7304 190.05 87.5614 190.05 87.5614" stroke="black" stroke-miterlimit="10"/>
<path opacity="0.1" d="M170.304 69.9944C170.304 69.9944 169.751 83.2105 166.923 86.6324" stroke="black" stroke-miterlimit="10"/>
<g opacity="0.05">
<path opacity="0.05" d="M201.026 105.52L197.034 91.8817C193.376 86.5589 189.717 87.3899 189.717 87.3899C187.555 86.0587 186.058 78.5738 186.058 78.5738C185.392 70.4232 170.423 70.5906 170.423 70.5906C170.03 69.916 169.47 69.3546 168.796 68.961C168.123 68.5674 167.358 68.3551 166.578 68.3447C165.872 68.3447 165.149 68.3672 164.426 68.4264C164.834 68.4672 165.226 68.5251 165.6 68.5999L166.764 70.5967C166.764 70.5967 181.732 70.4293 182.397 78.5799C182.397 78.5799 183.896 86.0648 186.058 87.396C186.058 87.396 189.717 86.563 193.376 91.8878L197.367 105.527C197.367 105.527 207.845 115.339 204.685 124.31C204.685 124.31 202.551 127.346 193.676 127.714C205.642 128.153 208.344 124.31 208.344 124.31C211.504 115.333 201.026 105.52 201.026 105.52Z" fill="black"/>
<path opacity="0.05" d="M142.48 123.649C138.959 124.282 135.398 124.672 131.824 124.815C135.991 124.974 140.326 124.523 143.119 124.139C142.902 123.974 142.69 123.814 142.48 123.649Z" fill="black"/>
<path opacity="0.05" d="M178.406 126.311C173.285 127.747 168.015 128.581 162.701 128.794C170.367 129.072 177.63 127.473 180.623 126.705C179.9 126.585 179.167 126.448 178.406 126.311Z" fill="black"/>
</g>
<path d="M45.4999 152.253C45.4999 152.253 50.0754 152.112 51.4535 151.13C52.8317 150.148 58.4893 148.976 58.8323 150.55C59.1753 152.125 65.7068 158.38 60.5412 158.423C55.3757 158.466 48.542 157.619 47.1659 156.78C45.7898 155.941 45.4999 152.253 45.4999 152.253Z" fill="#A8A8A8"/>
<path opacity="0.2" d="M60.6352 157.874C55.4696 157.917 48.6339 157.07 47.2578 156.241C46.2104 155.602 45.7918 153.311 45.653 152.255H45.4999C45.4999 152.255 45.7898 155.945 47.1659 156.782C48.542 157.619 55.3777 158.466 60.5413 158.425C62.0338 158.413 62.5483 157.882 62.5197 157.096C62.3135 157.57 61.7438 157.866 60.6352 157.874Z" fill="black"/>
<path d="M157.047 140.779C157.047 140.779 151.659 139.701 150.224 138.263C148.789 136.826 142.322 134.315 141.604 136.109C140.885 137.904 131.908 144.011 138.012 145.093C144.117 146.175 152.378 146.522 154.175 145.812C155.971 145.101 157.047 140.779 157.047 140.779Z" fill="#A8A8A8"/>
<path opacity="0.2" d="M138.012 144.415C144.119 145.491 152.378 145.844 154.175 145.132C155.541 144.585 156.492 141.957 156.868 140.734L157.047 140.773C157.047 140.773 155.969 145.081 154.175 145.799C152.38 146.518 144.119 146.159 138.012 145.081C136.25 144.77 135.746 144.039 135.936 143.117C136.087 143.725 136.702 144.188 138.012 144.415Z" fill="black"/>
<path opacity="0.1" d="M105.455 23.4491H104.173C104.411 23.4491 104.64 23.3544 104.808 23.1859C104.976 23.0175 105.071 22.789 105.071 22.5507C105.071 22.3124 104.976 22.0839 104.808 21.9155C104.64 21.747 104.411 21.6523 104.173 21.6523H93.7845C93.5462 21.6523 93.3177 21.747 93.1492 21.9155C92.9808 22.0839 92.8861 22.3124 92.8861 22.5507C92.8861 22.789 92.9808 23.0175 93.1492 23.1859C93.3177 23.3544 93.5462 23.4491 93.7845 23.4491H95.0667C94.8361 23.4601 94.6186 23.5594 94.4593 23.7265C94.3 23.8936 94.2111 24.1156 94.2111 24.3464C94.2111 24.5772 94.3 24.7992 94.4593 24.9663C94.6186 25.1334 94.8361 25.2327 95.0667 25.2437H93.272C93.0338 25.2437 92.8053 25.3384 92.6368 25.5069C92.4683 25.6753 92.3737 25.9038 92.3737 26.1421C92.3737 26.3804 92.4683 26.6089 92.6368 26.7773C92.8053 26.9458 93.0338 27.0405 93.272 27.0405H103.66C103.899 27.0405 104.127 26.9458 104.296 26.7773C104.464 26.6089 104.559 26.3804 104.559 26.1421C104.559 25.9038 104.464 25.6753 104.296 25.5069C104.127 25.3384 103.899 25.2437 103.66 25.2437H105.455C105.576 25.2495 105.698 25.2306 105.812 25.1881C105.926 25.1457 106.03 25.0805 106.118 24.9966C106.206 24.9127 106.276 24.8118 106.324 24.7001C106.371 24.5883 106.396 24.468 106.396 24.3464C106.396 24.2248 106.371 24.1045 106.324 23.9927C106.276 23.881 106.206 23.7801 106.118 23.6962C106.03 23.6123 105.926 23.5471 105.812 23.5047C105.698 23.4622 105.576 23.4433 105.455 23.4491Z" fill="#FFB74C"/>
<path opacity="0.1" d="M145.804 55.0572H144.521C144.752 55.0462 144.969 54.9468 145.129 54.7797C145.288 54.6127 145.377 54.3907 145.377 54.1598C145.377 53.929 145.288 53.707 145.129 53.5399C144.969 53.3728 144.752 53.2735 144.521 53.2625H134.123C134.001 53.2567 133.88 53.2756 133.766 53.3181C133.652 53.3606 133.548 53.4257 133.46 53.5096C133.372 53.5935 133.302 53.6944 133.254 53.8062C133.206 53.9179 133.182 54.0383 133.182 54.1598C133.182 54.2814 133.206 54.4017 133.254 54.5135C133.302 54.6253 133.372 54.7261 133.46 54.81C133.548 54.8939 133.652 54.9591 133.766 55.0016C133.88 55.044 134.001 55.063 134.123 55.0572H135.405C135.174 55.0682 134.957 55.1675 134.798 55.3346C134.638 55.5017 134.55 55.7237 134.55 55.9545C134.55 56.1853 134.638 56.4073 134.798 56.5744C134.957 56.7415 135.174 56.8408 135.405 56.8518H133.61C133.372 56.8518 133.144 56.9465 132.975 57.115C132.807 57.2834 132.712 57.5119 132.712 57.7502C132.712 57.9885 132.807 58.217 132.975 58.3854C133.144 58.5539 133.372 58.6486 133.61 58.6486H143.997C144.235 58.6486 144.463 58.5539 144.632 58.3854C144.8 58.217 144.895 57.9885 144.895 57.7502C144.895 57.5119 144.8 57.2834 144.632 57.115C144.463 56.9465 144.235 56.8518 143.997 56.8518H145.804C145.925 56.8576 146.046 56.8387 146.16 56.7962C146.274 56.7538 146.378 56.6886 146.466 56.6047C146.554 56.5208 146.624 56.4199 146.672 56.3082C146.72 56.1964 146.745 56.0761 146.745 55.9545C146.745 55.8329 146.72 55.7126 146.672 55.6009C146.624 55.4891 146.554 55.3882 146.466 55.3043C146.378 55.2204 146.274 55.1553 146.16 55.1128C146.046 55.0703 145.925 55.0514 145.804 55.0572Z" fill="#FFB74C"/>
<path opacity="0.1" d="M86.0158 49.2098H84.7336C84.8551 49.2156 84.9764 49.1966 85.0903 49.1542C85.2043 49.1117 85.3084 49.0465 85.3964 48.9626C85.4843 48.8787 85.5544 48.7778 85.6023 48.6661C85.6501 48.5543 85.6748 48.434 85.6748 48.3124C85.6748 48.1908 85.6501 48.0705 85.6023 47.9588C85.5544 47.847 85.4843 47.7461 85.3964 47.6622C85.3084 47.5783 85.2043 47.5132 85.0903 47.4707C84.9764 47.4282 84.8551 47.4093 84.7336 47.4151H74.3433C74.2219 47.4093 74.1005 47.4282 73.9866 47.4707C73.8727 47.5132 73.7686 47.5783 73.6806 47.6622C73.5926 47.7461 73.5225 47.847 73.4747 47.9588C73.4268 48.0705 73.4021 48.1908 73.4021 48.3124C73.4021 48.434 73.4268 48.5543 73.4747 48.6661C73.5225 48.7778 73.5926 48.8787 73.6806 48.9626C73.7686 49.0465 73.8727 49.1117 73.9866 49.1542C74.1005 49.1966 74.2219 49.2156 74.3433 49.2098H75.6255C75.5041 49.204 75.3827 49.2229 75.2688 49.2654C75.1549 49.3078 75.0508 49.373 74.9628 49.4569C74.8748 49.5408 74.8047 49.6417 74.7569 49.7534C74.709 49.8652 74.6843 49.9855 74.6843 50.1071C74.6843 50.2287 74.709 50.349 74.7569 50.4608C74.8047 50.5725 74.8748 50.6734 74.9628 50.7573C75.0508 50.8412 75.1549 50.9063 75.2688 50.9488C75.3827 50.9913 75.5041 51.0102 75.6255 51.0044H73.8288C73.5905 51.0044 73.362 51.0991 73.1935 51.2676C73.0251 51.436 72.9304 51.6645 72.9304 51.9028C72.9304 52.1411 73.0251 52.3696 73.1935 52.538C73.362 52.7065 73.5905 52.8011 73.8288 52.8011H84.2171C84.4553 52.8011 84.6838 52.7065 84.8523 52.538C85.0208 52.3696 85.1154 52.1411 85.1154 51.9028C85.1154 51.6645 85.0208 51.436 84.8523 51.2676C84.6838 51.0991 84.4553 51.0044 84.2171 51.0044H86.0117C86.1332 51.0102 86.2545 50.9913 86.3685 50.9488C86.4824 50.9063 86.5865 50.8412 86.6745 50.7573C86.7625 50.6734 86.8325 50.5725 86.8804 50.4608C86.9282 50.349 86.9529 50.2287 86.9529 50.1071C86.9529 49.9855 86.9282 49.8652 86.8804 49.7534C86.8325 49.6417 86.7625 49.5408 86.6745 49.4569C86.5865 49.373 86.4824 49.3078 86.3685 49.2654C86.2545 49.2229 86.1332 49.204 86.0117 49.2098H86.0158Z" fill="#FFB74C"/>
</g>
<defs>
<linearGradient id="paint0_linear" x1="-148078" y1="13380.9" x2="-160012" y2="13380.9" gradientUnits="userSpaceOnUse">
<stop stop-color="#808080" stop-opacity="0.25"/>
<stop offset="0.54" stop-color="#808080" stop-opacity="0.12"/>
<stop offset="1" stop-color="#808080" stop-opacity="0.1"/>
</linearGradient>
<clipPath id="clip0">
<rect width="210.755" height="170" fill="white"/>
</clipPath>
</defs>
</svg>
