<svg width="226" height="170" viewBox="0 0 226 170" fill="none" xmlns="http://www.w3.org/2000/svg">
<g clip-path="url(#clip0)">
<path opacity="0.1" d="M219.947 116.456C219.735 116.6 219.519 116.739 219.299 116.874C218.483 117.378 217.636 117.831 216.763 118.229C212.152 120.358 206.475 121.398 200.945 122.104C188.538 123.689 175.871 123.998 163.259 124.3C129.179 125.118 95.0114 125.938 61.0222 124.049C47.5931 123.303 33.8634 122.055 21.6916 118.229C19.9472 117.681 18.2368 117.078 16.5604 116.42C13.1698 115.084 9.91071 113.456 7.20367 111.515C4.64987 109.695 2.59307 107.603 1.35939 105.225C-1.2121 100.273 0.149277 94.711 3.08615 89.8551C4.32056 87.8755 5.69942 85.9895 7.21153 84.2124C9.47067 81.4872 11.9714 78.8248 14.2522 76.1015C22.3693 66.3799 27.6655 54.1038 20.1731 44.1467C18.0122 41.2862 14.9083 38.7748 13.154 35.7867C10.9126 31.9687 11.0874 27.7269 11.7986 23.6067C11.8909 23.0868 11.995 22.5669 12.0913 22.0528C13.3171 15.9432 15.6057 9.37056 22.6503 5.54665C29.9758 1.58345 40.3796 1.78357 49.475 3.19227C63.6192 5.39754 76.6672 10.0023 89.8448 14.1637C103.022 18.3251 116.821 22.1235 131.313 22.5394C144.107 22.8984 159.029 20.1987 167.52 13.1748C175.771 6.35695 191.27 5.83703 202.448 9.95719C210.109 12.7825 215.838 17.8777 218.25 23.6067C218.737 24.7473 219.09 25.9402 219.303 27.1618C219.499 28.2674 219.565 29.392 219.5 30.5129C219.464 31.0681 219.399 31.6155 219.303 32.157C217.435 43.462 203.998 52.3772 195.828 62.4775C191.836 67.41 189.019 73.3332 191.763 78.6541C195.95 86.759 210.506 89.6412 219.303 95.6723C220.993 96.8279 222.47 98.1032 223.625 99.5571C227.872 104.919 226.299 112.179 219.947 116.456Z" fill="#FFB74C"/>
<path d="M57.9341 63.7352C57.9341 63.7352 48.8975 47.7411 35.2798 43.1344C29.5652 41.1998 24.5774 37.5623 21.1671 32.5907C19.5522 30.2297 18.1581 27.7255 17.0024 25.1096" stroke="#535461" stroke-width="2" stroke-miterlimit="10"/>
<path d="M8.43935 22.1527C9.99128 23.6556 17.2166 25.2115 17.2166 25.2115C17.2166 25.2115 15.4486 18.0443 13.8927 16.5414C13.1448 15.8341 12.148 15.4497 11.1182 15.4713C10.0884 15.493 9.10869 15.9191 8.3913 16.6573C7.67392 17.3954 7.27668 18.3862 7.28567 19.4148C7.29467 20.4435 7.70917 21.4272 8.43935 22.1527Z" fill="#FFB74C"/>
<path d="M12.5274 35.1195C14.6471 35.5394 21.564 32.9241 21.564 32.9241C21.564 32.9241 16.1774 27.87 14.0558 27.4501C13.0474 27.2728 12.0097 27.497 11.1649 28.0747C10.3201 28.6524 9.73549 29.5376 9.53637 30.5407C9.33726 31.5437 9.53948 32.5847 10.0997 33.4406C10.6599 34.2965 11.5335 34.8992 12.5333 35.1195H12.5274Z" fill="#FFB74C"/>
<path d="M27.4082 49.1516C29.4513 48.4453 34.0874 42.7026 34.0874 42.7026C34.0874 42.7026 26.8818 41.0565 24.8407 41.7628C24.3399 41.9182 23.8754 42.1725 23.4749 42.5106C23.0744 42.8487 22.7459 43.2637 22.5091 43.731C22.2722 44.1983 22.1318 44.7083 22.0961 45.2309C22.0604 45.7534 22.1302 46.2778 22.3013 46.7729C22.4724 47.268 22.7414 47.7237 23.0923 48.113C23.4431 48.5023 23.8687 48.8172 24.3437 49.0391C24.8188 49.2609 25.3336 49.3852 25.8577 49.4045C26.3817 49.4239 26.9043 49.3379 27.3945 49.1516H27.4082Z" fill="#FFB74C"/>
<path d="M41.0633 57.2429C43.1967 56.8917 48.7443 52.0161 48.7443 52.0161C48.7443 52.0161 41.9296 49.1693 39.7883 49.5205C38.763 49.6893 37.8468 50.2581 37.2413 51.1016C36.6358 51.9451 36.3907 52.9943 36.5597 54.0183C36.7288 55.0424 37.2983 55.9574 38.1428 56.5621C38.9874 57.1668 40.0379 57.4117 41.0633 57.2429Z" fill="#FFB74C"/>
<path d="M27.589 27.3247C27.589 29.4829 23.6797 35.7455 23.6797 35.7455C23.6797 35.7455 19.7625 29.4868 19.7606 27.3286C19.7489 26.8079 19.8415 26.2901 20.0329 25.8056C20.2244 25.3211 20.5109 24.8796 20.8755 24.5072C21.2401 24.1348 21.6755 23.8389 22.1563 23.6369C22.637 23.4349 23.1532 23.3308 23.6748 23.3308C24.1963 23.3308 24.7126 23.4349 25.1933 23.6369C25.674 23.8389 26.1094 24.1348 26.474 24.5072C26.8387 24.8796 27.1251 25.3211 27.3166 25.8056C27.508 26.2901 27.6006 26.8079 27.589 27.3286V27.3247Z" fill="#FFB74C"/>
<path d="M43.4324 36.9814C42.7861 39.0415 37.1775 43.8484 37.1775 43.8484C37.1775 43.8484 35.3152 36.7048 35.9596 34.6447C36.3027 33.697 36.999 32.9182 37.9031 32.4707C38.8073 32.0233 39.8495 31.9418 40.8124 32.2432C41.7752 32.5446 42.5844 33.2056 43.0711 34.0885C43.5578 34.9713 43.6844 36.0077 43.4245 36.9814H43.4324Z" fill="#FFB74C"/>
<path d="M57.5451 48.4786C57.2524 50.6172 52.5377 56.303 52.5377 56.303C52.5377 56.303 49.4928 49.5773 49.7874 47.4368C49.8487 46.9219 50.0119 46.4243 50.2676 45.9729C50.5232 45.5216 50.8662 45.1256 51.2765 44.8079C51.6869 44.4902 52.1564 44.2572 52.6577 44.1224C53.1591 43.9876 53.6823 43.9538 54.1969 44.0229C54.7114 44.092 55.2071 44.2626 55.655 44.5248C56.103 44.787 56.4942 45.1356 56.806 45.5503C57.1177 45.9649 57.3438 46.4373 57.4711 46.9401C57.5983 47.4428 57.6241 47.9658 57.5471 48.4786H57.5451Z" fill="#FFB74C"/>
<path opacity="0.25" d="M8.43935 22.1527C9.99128 23.6556 17.2166 25.2115 17.2166 25.2115C17.2166 25.2115 15.4486 18.0443 13.8927 16.5414C13.1448 15.8341 12.148 15.4497 11.1182 15.4713C10.0884 15.493 9.10869 15.9191 8.3913 16.6573C7.67392 17.3954 7.27668 18.3862 7.28567 19.4148C7.29467 20.4435 7.70917 21.4272 8.43935 22.1527Z" fill="black"/>
<path opacity="0.25" d="M12.5274 35.1195C14.6471 35.5394 21.564 32.9241 21.564 32.9241C21.564 32.9241 16.1774 27.87 14.0558 27.4501C13.0474 27.2728 12.0097 27.497 11.1649 28.0747C10.3201 28.6524 9.73549 29.5376 9.53637 30.5407C9.33726 31.5437 9.53948 32.5847 10.0997 33.4406C10.6599 34.2965 11.5335 34.8992 12.5333 35.1195H12.5274Z" fill="black"/>
<path opacity="0.25" d="M27.4082 49.1516C29.4513 48.4453 34.0874 42.7026 34.0874 42.7026C34.0874 42.7026 26.8818 41.0565 24.8407 41.7628C24.3399 41.9182 23.8754 42.1725 23.4749 42.5106C23.0744 42.8487 22.7459 43.2637 22.5091 43.731C22.2722 44.1983 22.1318 44.7083 22.0961 45.2309C22.0604 45.7534 22.1302 46.2778 22.3013 46.7729C22.4724 47.268 22.7414 47.7237 23.0923 48.113C23.4431 48.5023 23.8687 48.8172 24.3437 49.0391C24.8188 49.2609 25.3336 49.3852 25.8577 49.4045C26.3817 49.4239 26.9043 49.3379 27.3945 49.1516H27.4082Z" fill="black"/>
<path opacity="0.25" d="M41.0633 57.2429C43.1967 56.8917 48.7443 52.0161 48.7443 52.0161C48.7443 52.0161 41.9296 49.1693 39.7883 49.5205C38.763 49.6893 37.8468 50.2581 37.2413 51.1016C36.6358 51.9451 36.3907 52.9943 36.5597 54.0183C36.7288 55.0424 37.2983 55.9574 38.1428 56.5621C38.9874 57.1668 40.0379 57.4117 41.0633 57.2429Z" fill="black"/>
<path opacity="0.25" d="M27.589 27.3247C27.589 29.4829 23.6797 35.7455 23.6797 35.7455C23.6797 35.7455 19.7625 29.4868 19.7606 27.3286C19.7489 26.8079 19.8415 26.2901 20.0329 25.8056C20.2244 25.3211 20.5109 24.8796 20.8755 24.5072C21.2401 24.1348 21.6755 23.8389 22.1563 23.6369C22.637 23.4349 23.1532 23.3308 23.6748 23.3308C24.1963 23.3308 24.7126 23.4349 25.1933 23.6369C25.674 23.8389 26.1094 24.1348 26.474 24.5072C26.8387 24.8796 27.1251 25.3211 27.3166 25.8056C27.508 26.2901 27.6006 26.8079 27.589 27.3286V27.3247Z" fill="black"/>
<path opacity="0.25" d="M43.4324 36.9814C42.7861 39.0415 37.1775 43.8484 37.1775 43.8484C37.1775 43.8484 35.3152 36.7048 35.9596 34.6447C36.3027 33.697 36.999 32.9182 37.9031 32.4707C38.8073 32.0233 39.8495 31.9418 40.8124 32.2432C41.7752 32.5446 42.5844 33.2056 43.0711 34.0885C43.5578 34.9713 43.6844 36.0077 43.4245 36.9814H43.4324Z" fill="black"/>
<path opacity="0.25" d="M57.5451 48.4786C57.2524 50.6172 52.5377 56.303 52.5377 56.303C52.5377 56.303 49.4928 49.5773 49.7874 47.4368C49.8487 46.9219 50.0119 46.4243 50.2676 45.9729C50.5232 45.5216 50.8662 45.1256 51.2765 44.8079C51.6869 44.4902 52.1564 44.2572 52.6577 44.1224C53.1591 43.9876 53.6823 43.9538 54.1969 44.0229C54.7114 44.092 55.2071 44.2626 55.655 44.5248C56.103 44.787 56.4942 45.1356 56.806 45.5503C57.1177 45.9649 57.3438 46.4373 57.4711 46.9401C57.5983 47.4428 57.6241 47.9658 57.5471 48.4786H57.5451Z" fill="black"/>
<path d="M57.4135 63.4171C57.4135 63.4171 55.6455 45.1373 45.061 35.4137C40.6232 31.3328 37.539 25.9864 36.4369 20.0631C35.9197 17.251 35.662 14.3975 35.6669 11.5383" stroke="#535461" stroke-width="2" stroke-miterlimit="10"/>
<path d="M29.0368 5.37189C29.8461 7.37312 35.8201 11.7248 35.8201 11.7248C35.8201 11.7248 37.1068 4.46546 36.2994 2.45442C35.9112 1.49178 35.1561 0.722553 34.2001 0.315975C33.2441 -0.0906019 32.1655 -0.101229 31.2016 0.286432C30.2377 0.674093 29.4675 1.42829 29.0605 2.3831C28.6534 3.33791 28.6427 4.41513 29.0309 5.37778L29.0368 5.37189Z" fill="#FFB74C"/>
<path d="M27.5124 18.8802C29.2804 20.1222 36.6609 20.5283 36.6609 20.5283C36.6609 20.5283 33.7849 13.728 32.0169 12.4841C31.1672 11.9037 30.1227 11.681 29.1097 11.864C28.0967 12.047 27.1966 12.6212 26.6044 13.4622C26.0121 14.3031 25.7753 15.3432 25.9453 16.3573C26.1152 17.3713 26.6782 18.2777 27.5124 18.8802Z" fill="#FFB74C"/>
<path d="M35.4252 37.731C37.5861 37.9115 44.1553 34.5408 44.1553 34.5408C44.1553 34.5408 38.2364 30.1204 36.0813 29.9399C35.5628 29.8848 35.0385 29.9337 34.5391 30.0837C34.0398 30.2337 33.5755 30.4818 33.1734 30.8135C32.7714 31.1451 32.4398 31.5537 32.198 32.0151C31.9562 32.4765 31.8091 32.9815 31.7654 33.5005C31.7217 34.0194 31.7823 34.5419 31.9435 35.0372C32.1047 35.5324 32.3634 35.9905 32.7043 36.3846C33.0452 36.7787 33.4615 37.1008 33.9287 37.332C34.396 37.5632 34.9047 37.6988 35.4252 37.731Z" fill="#FFB74C"/>
<path d="M44.6268 50.6466C46.7209 51.19 53.7714 48.9769 53.7714 48.9769C53.7714 48.9769 48.6854 43.6207 46.5932 43.0792C45.5885 42.819 44.5214 42.9682 43.6267 43.4938C42.732 44.0194 42.083 44.8784 41.8225 45.8819C41.562 46.8854 41.7113 47.9511 42.2376 48.8447C42.7639 49.7382 43.624 50.3864 44.6288 50.6466H44.6268Z" fill="#FFB74C"/>
<path d="M44.4401 17.8463C43.566 19.822 37.4486 23.9637 37.4486 23.9637C37.4486 23.9637 36.4074 16.6554 37.2816 14.6816C37.7164 13.7562 38.4966 13.0377 39.4553 12.6798C40.414 12.322 41.4749 12.3533 42.4107 12.767C43.3466 13.1807 44.0831 13.944 44.4624 14.8934C44.8417 15.8428 44.8337 16.9027 44.4401 17.8463Z" fill="#FFB74C"/>
<path d="M55.0109 33.0889C53.5847 34.7115 46.5068 36.8363 46.5068 36.8363C46.5068 36.8363 47.7012 29.5515 49.1293 27.9289C49.4649 27.5306 49.8766 27.2032 50.3405 26.9659C50.8044 26.7286 51.311 26.5861 51.8308 26.547C52.3505 26.5078 52.8728 26.5727 53.3671 26.7378C53.8614 26.9028 54.3177 27.1648 54.7092 27.5084C55.1008 27.8519 55.4198 28.2701 55.6474 28.7383C55.875 29.2066 56.0068 29.7155 56.0349 30.2353C56.063 30.7551 55.9869 31.2752 55.811 31.7652C55.6352 32.2553 55.3632 32.7053 55.0109 33.0889Z" fill="#FFB74C"/>
<path d="M63.2499 49.3125C62.1184 51.1528 55.5021 54.4411 55.5021 54.4411C55.5021 54.4411 55.4471 47.0601 56.5786 45.2198C57.122 44.3352 57.995 43.7024 59.0056 43.4607C60.0161 43.2189 61.0814 43.388 61.9671 43.9308C62.8528 44.4735 63.4864 45.3454 63.7285 46.3546C63.9705 47.3639 63.8012 48.4279 63.2578 49.3125H63.2499Z" fill="#FFB74C"/>
<path opacity="0.1" d="M125.724 170C162.072 170 191.537 168.522 191.537 166.698C191.537 164.874 162.072 163.396 125.724 163.396C89.376 163.396 59.9103 164.874 59.9103 166.698C59.9103 168.522 89.376 170 125.724 170Z" fill="#FFB74C"/>
<path d="M52.2882 160.369C52.2882 160.369 43.9824 159.868 44.9607 165.68C44.9607 165.68 44.7643 166.708 45.6994 167.175C45.6994 167.175 45.7131 166.743 46.55 166.89C46.8485 166.939 47.1517 166.954 47.4536 166.933C47.8607 166.905 48.2476 166.746 48.5557 166.478C48.5557 166.478 50.8914 165.515 51.799 161.703C51.799 161.703 52.4709 160.873 52.4434 160.659L51.0427 161.248C51.0427 161.248 51.522 162.256 51.1449 163.096C51.1449 163.096 51.0997 161.283 50.8305 161.33C50.7755 161.34 50.1017 161.679 50.1017 161.679C50.1017 161.679 50.9248 163.445 50.2982 164.718C50.2982 164.718 50.5339 162.55 49.8385 161.807L48.8563 162.382C48.8563 162.382 49.8188 164.2 49.1666 165.682C49.1666 165.682 49.3336 163.408 48.648 162.523L47.7542 163.219C47.7542 163.219 48.6598 165.009 48.1078 166.239C48.1078 166.239 48.0351 163.592 47.5597 163.392C47.5597 163.392 46.7739 164.081 46.66 164.373C46.66 164.373 47.2788 165.672 46.8937 166.359C46.8937 166.359 46.658 164.593 46.4655 164.593C46.4655 164.593 45.6797 165.76 45.6051 166.555C45.6051 166.555 45.6385 165.364 46.2769 164.475C45.827 164.559 45.4117 164.773 45.0825 165.091C45.0825 165.091 45.2043 164.265 46.4694 164.193C46.4694 164.193 47.1138 163.308 47.2847 163.253C47.2847 163.253 46.0274 163.147 45.2652 163.486C45.2652 163.486 45.9371 162.701 47.5165 163.061L48.3985 162.34C48.3985 162.34 46.7425 162.115 46.0412 162.364C46.0412 162.364 46.8486 161.675 48.6362 162.178L49.591 161.601C49.591 161.601 48.1805 161.299 47.3397 161.405C47.3397 161.405 48.2257 160.928 49.8738 161.446L50.5594 161.138C50.5594 161.138 49.5261 160.942 49.2236 160.902C48.9211 160.863 48.9034 160.787 48.9034 160.787C49.5585 160.678 50.2311 160.752 50.8463 161.002C50.8463 161.002 52.3117 160.459 52.2882 160.369Z" fill="#FFB74C"/>
<path opacity="0.1" d="M46.5657 168.674C49.8118 168.674 52.4433 168.229 52.4433 167.681C52.4433 167.133 49.8118 166.688 46.5657 166.688C43.3195 166.688 40.688 167.133 40.688 167.681C40.688 168.229 43.3195 168.674 46.5657 168.674Z" fill="#FFB74C"/>
<path d="M37.7354 160.679C37.7354 160.679 33.0541 160.396 33.61 163.673C33.5815 163.839 33.6065 164.01 33.6813 164.161C33.7561 164.312 33.877 164.436 34.0265 164.514C34.0265 164.514 34.0265 164.273 34.5058 164.355C34.6739 164.383 34.8447 164.391 35.0146 164.379C35.2448 164.364 35.4637 164.274 35.6373 164.122C35.6373 164.122 36.9535 163.58 37.4643 161.43C37.4643 161.43 37.8434 160.963 37.8277 160.842L37.0419 161.179C37.0419 161.179 37.3111 161.748 37.0989 162.221C37.0989 162.221 37.0734 161.201 36.9221 161.224C36.8907 161.224 36.5115 161.42 36.5115 161.42C36.5115 161.42 36.9771 162.413 36.6255 163.133C36.6255 163.133 36.7591 161.911 36.3662 161.493L35.8024 161.817C35.8024 161.817 36.3446 162.841 35.9772 163.677C35.9772 163.677 36.0715 162.395 35.6865 161.897L35.1816 162.289C35.1816 162.289 35.6924 163.298 35.378 163.991C35.378 163.991 35.3387 162.499 35.0696 162.386C34.8786 162.547 34.7084 162.732 34.5628 162.935C34.5628 162.935 34.9105 163.667 34.6944 164.053C34.6944 164.053 34.5628 163.061 34.4528 163.055C34.4528 163.055 34.0127 163.714 33.9676 164.165C33.9889 163.746 34.1196 163.341 34.3467 162.988C34.0931 163.036 33.859 163.157 33.6729 163.335C33.6729 163.335 33.7416 162.87 34.4587 162.829C34.4587 162.829 34.8221 162.331 34.9184 162.299C34.9184 162.299 34.2092 162.24 33.7809 162.431C33.7809 162.431 34.1581 161.991 35.048 162.191L35.547 161.785C35.547 161.785 34.6139 161.658 34.217 161.799C34.217 161.799 34.6728 161.407 35.6806 161.693L36.2228 161.369C35.8056 161.278 35.3784 161.241 34.9517 161.259C34.9517 161.259 35.4527 160.991 36.3819 161.283L36.7748 161.108C36.7748 161.108 36.1854 160.995 36.0204 160.977C35.8554 160.959 35.8417 160.912 35.8417 160.912C36.2106 160.85 36.5897 160.892 36.9359 161.034C36.9359 161.034 37.7511 160.73 37.7354 160.679Z" fill="#FFB74C"/>
<path opacity="0.1" d="M34.5098 165.36C36.3401 165.36 37.8238 165.11 37.8238 164.801C37.8238 164.492 36.3401 164.242 34.5098 164.242C32.6795 164.242 31.1957 164.492 31.1957 164.801C31.1957 165.11 32.6795 165.36 34.5098 165.36Z" fill="#FFB74C"/>
<path d="M46.6443 153.729C46.6443 153.729 40.9906 153.39 41.6565 157.347C41.6223 157.548 41.6525 157.754 41.7429 157.937C41.8332 158.119 41.979 158.269 42.1594 158.363C42.1594 158.363 42.1692 158.069 42.7488 158.167C42.9518 158.201 43.1582 158.211 43.3636 158.197C43.639 158.179 43.901 158.072 44.1101 157.893C44.1101 157.893 45.6994 157.237 46.3182 154.643C46.3182 154.643 46.774 154.078 46.7563 153.931L45.8035 154.339C45.8035 154.339 46.1277 155.026 45.8723 155.597C45.8723 155.597 45.8408 154.365 45.6581 154.392C45.6208 154.392 45.1631 154.632 45.1631 154.632C45.1631 154.632 45.723 155.829 45.3006 156.7C45.3006 156.7 45.4597 155.224 44.9863 154.718L44.3164 155.11C44.3164 155.11 44.9706 156.348 44.5266 157.357C44.5266 157.357 44.6405 155.809 44.175 155.199L43.566 155.674C43.566 155.674 44.1809 156.892 43.8056 157.728C43.8056 157.728 43.7565 155.927 43.4344 155.791C43.4344 155.791 42.902 156.26 42.8195 156.452C42.8195 156.452 43.2418 157.337 42.9806 157.804C42.9806 157.804 42.8195 156.603 42.6879 156.598C42.6879 156.598 42.1575 157.394 42.0985 157.938C42.125 157.434 42.2828 156.945 42.5562 156.521C42.2498 156.58 41.9671 156.726 41.743 156.943C41.743 156.943 41.8255 156.38 42.6879 156.331C42.6879 156.331 43.1259 155.726 43.2418 155.691C43.2418 155.691 42.3873 155.619 41.8667 155.848C41.8667 155.848 42.3244 155.318 43.399 155.56L44.0001 155.069C44.0001 155.069 42.8725 154.916 42.3952 155.085C42.3952 155.085 42.9452 154.616 44.1632 154.959L44.8174 154.567C44.8174 154.567 43.8567 154.371 43.2851 154.436C43.2851 154.436 43.8882 154.11 45.0099 154.463L45.4774 154.253C45.4774 154.253 44.7741 154.116 44.5679 154.094C44.3616 154.073 44.3498 154.014 44.3498 154.014C44.7956 153.94 45.2533 153.991 45.6719 154.161C45.6719 154.161 46.6679 153.792 46.6443 153.729Z" fill="#FFB74C"/>
<path opacity="0.1" d="M42.7546 159.384C44.9646 159.384 46.7562 159.082 46.7562 158.709C46.7562 158.336 44.9646 158.034 42.7546 158.034C40.5446 158.034 38.753 158.336 38.753 158.709C38.753 159.082 40.5446 159.384 42.7546 159.384Z" fill="#FFB74C"/>
<path d="M132.99 162.219V163.753H87.5602V162.507C90.3307 161.482 92.7343 159.659 94.4669 157.269C96.1994 154.879 97.1829 152.029 97.2929 149.08C97.4029 146.131 96.6345 143.216 95.0848 140.704C93.5352 138.192 91.274 136.195 88.5876 134.967H132.688C130.661 135.896 128.869 137.266 127.441 138.976C126.013 140.687 124.987 142.695 124.437 144.853C123.698 147.759 123.853 150.819 124.882 153.635C125.911 156.451 127.766 158.892 130.205 160.639C131.074 161.264 132.008 161.793 132.99 162.219Z" fill="#C8CAD7"/>
<path opacity="0.1" d="M132.688 134.967C130.661 135.896 128.869 137.266 127.441 138.976C126.013 140.687 124.987 142.695 124.437 144.853H96.8423C96.2924 142.695 95.2661 140.687 93.8385 138.976C92.4108 137.266 90.6181 135.896 88.5916 134.967H132.688Z" fill="black"/>
<path d="M35.5411 127.15V135.763C35.5411 140.519 39.0261 144.374 43.3263 144.374H176.985C181.285 144.374 184.77 140.519 184.77 135.763V127.15H35.5411Z" fill="#C8CAD7"/>
<path opacity="0.1" d="M132.99 162.219V163.753H87.5602V162.507C88.8062 162.044 89.9847 161.417 91.0648 160.643H130.205C131.074 161.267 132.008 161.795 132.99 162.219Z" fill="black"/>
<path d="M146.135 161.122H74.414C73.3833 161.122 72.5477 161.957 72.5477 162.986V163.804C72.5477 164.834 73.3833 165.668 74.414 165.668H146.135C147.165 165.668 148.001 164.834 148.001 163.804V162.986C148.001 161.957 147.165 161.122 146.135 161.122Z" fill="#C8CAD7"/>
<path d="M184.77 32.7731C184.77 30.711 183.95 28.7333 182.49 27.2751C181.03 25.817 179.049 24.9978 176.985 24.9978H43.3263C41.2616 24.9978 39.2814 25.817 37.8214 27.2751C36.3614 28.7333 35.5411 30.711 35.5411 32.7731V128.826H184.77V32.7731Z" fill="#474157"/>
<path d="M180.697 36.2497V118.777C180.698 119.279 180.599 119.777 180.406 120.242C180.214 120.706 179.931 121.128 179.575 121.484C179.219 121.839 178.797 122.121 178.332 122.314C177.867 122.506 177.368 122.605 176.865 122.604H43.4441C42.9407 122.605 42.4422 122.506 41.9771 122.314C41.512 122.121 41.0894 121.839 40.7334 121.484C40.3775 121.128 40.0952 120.706 39.9027 120.242C39.7102 119.777 39.6112 119.279 39.6115 118.777V36.2497C39.6115 35.2345 40.0153 34.2609 40.734 33.543C41.4528 32.8252 42.4276 32.4219 43.4441 32.4219H176.865C177.881 32.4219 178.856 32.8252 179.575 33.543C180.294 34.2609 180.697 35.2345 180.697 36.2497Z" fill="#F4F4F7"/>
<path d="M110.155 30.503C111.148 30.503 111.953 29.6993 111.953 28.7078C111.953 27.7163 111.148 26.9126 110.155 26.9126C109.163 26.9126 108.358 27.7163 108.358 28.7078C108.358 29.6993 109.163 30.503 110.155 30.503Z" fill="white"/>
<path d="M110.155 140.549C112.603 140.549 114.587 138.567 114.587 136.123C114.587 133.678 112.603 131.696 110.155 131.696C107.708 131.696 105.724 133.678 105.724 136.123C105.724 138.567 107.708 140.549 110.155 140.549Z" fill="white"/>
<path d="M180.697 36.2497H39.6135C39.6132 35.7471 39.7121 35.2494 39.9045 34.785C40.0969 34.3206 40.379 33.8986 40.7348 33.5431C41.0905 33.1877 41.5129 32.9057 41.9778 32.7133C42.4427 32.5209 42.941 32.4219 43.4442 32.4219H176.865C177.368 32.4216 177.867 32.5204 178.332 32.7127C178.797 32.905 179.22 33.1869 179.575 33.5424C179.931 33.8979 180.214 34.32 180.406 34.7846C180.599 35.2491 180.698 35.747 180.697 36.2497Z" fill="white"/>
<path d="M43.4441 35.2862C43.9736 35.2862 44.4028 34.8576 44.4028 34.3288C44.4028 33.8 43.9736 33.3713 43.4441 33.3713C42.9147 33.3713 42.4855 33.8 42.4855 34.3288C42.4855 34.8576 42.9147 35.2862 43.4441 35.2862Z" fill="#EDEDF4"/>
<path d="M46.3182 35.2862C46.8476 35.2862 47.2768 34.8576 47.2768 34.3288C47.2768 33.8 46.8476 33.3713 46.3182 33.3713C45.7887 33.3713 45.3595 33.8 45.3595 34.3288C45.3595 34.8576 45.7887 35.2862 46.3182 35.2862Z" fill="#EDEDF4"/>
<path d="M49.1941 35.2862C49.7236 35.2862 50.1528 34.8576 50.1528 34.3288C50.1528 33.8 49.7236 33.3713 49.1941 33.3713C48.6647 33.3713 48.2355 33.8 48.2355 34.3288C48.2355 34.8576 48.6647 35.2862 49.1941 35.2862Z" fill="#EDEDF4"/>
<path d="M166.76 46.8442H52.8952V113.301H166.76V46.8442Z" fill="white"/>
<path d="M72.3493 103.002H76.5474V103.787H72.3493V103.002ZM74.4493 100.905C74.5241 100.904 74.598 100.888 74.6659 100.857C74.7338 100.825 74.7942 100.78 74.8431 100.723C74.892 100.667 74.9282 100.6 74.9493 100.529C74.9704 100.457 74.9759 100.382 74.9655 100.308C74.955 100.234 74.9288 100.163 74.8887 100.1C74.8485 100.037 74.7953 99.983 74.7327 99.9421C74.67 99.9013 74.5994 99.8744 74.5254 99.8631C74.4515 99.8518 74.3759 99.8564 74.3039 99.8767L73.2097 99.0781L73.1449 99.137L73.9464 100.228C73.9321 100.278 73.9248 100.329 73.9248 100.381C73.9245 100.45 73.9379 100.518 73.9642 100.582C73.9905 100.645 74.0291 100.703 74.0779 100.752C74.1266 100.801 74.1845 100.839 74.2483 100.865C74.312 100.892 74.3804 100.905 74.4493 100.905Z" fill="#65617D"/>
<path d="M74.4493 96.9729C73.81 96.9729 73.1836 97.1523 72.6414 97.4907C72.0992 97.829 71.6631 98.3127 71.3828 98.8865C71.1024 99.4604 70.9892 100.101 71.0559 100.736C71.1225 101.371 71.3665 101.975 71.76 102.478H72.7245L72.7913 102.412L73.1528 102.051L72.7717 101.676L72.4102 102.035C72.0846 101.638 71.8837 101.154 71.8327 100.644H72.3434V100.118H71.8327C71.8837 99.6076 72.0846 99.1236 72.4102 98.7269L72.7717 99.086L73.1469 98.7112L72.7874 98.3502C73.1846 98.0251 73.6692 97.8244 74.1802 97.7734V98.2835H74.7047V97.7734C75.2162 97.8249 75.7013 98.0255 76.0995 98.3502L75.738 98.7112L76.1152 99.086L76.4767 98.7269C76.8015 99.1241 77.0023 99.6078 77.0542 100.118H76.5415V100.644H77.0542C77.0023 101.154 76.8015 101.638 76.4767 102.035L76.1152 101.676L75.738 102.051L76.1015 102.412L76.1663 102.478H77.1308C77.5242 101.975 77.7681 101.372 77.8349 100.737C77.9017 100.102 77.7886 99.4612 77.5085 98.8874C77.2284 98.3136 76.7926 97.83 76.2507 97.4915C75.7088 97.153 75.0826 96.9733 74.4434 96.9729H74.4493Z" fill="#65617D"/>
<path d="M74.4474 82.6819C74.2031 82.6716 73.9636 82.6108 73.7441 82.5034C73.7242 82.494 73.7021 82.4901 73.6802 82.4919C73.6583 82.4937 73.6372 82.5013 73.6191 82.5138C73.601 82.5263 73.5865 82.5433 73.5771 82.5632C73.5676 82.5831 73.5636 82.6051 73.5653 82.627L73.6223 83.4628C73.6234 83.4743 73.6276 83.4853 73.6344 83.4947C73.6412 83.504 73.6504 83.5114 73.661 83.516C73.6717 83.5206 73.6833 83.5223 73.6948 83.5209C73.7063 83.5194 73.7172 83.515 73.7264 83.5079L73.9641 83.3274C73.9713 83.3223 73.9794 83.3187 73.988 83.3168C73.9966 83.3149 74.0054 83.3148 74.0141 83.3164C74.0227 83.3181 74.0309 83.3215 74.0382 83.3264C74.0455 83.3313 74.0517 83.3377 74.0565 83.3451L74.3924 83.8709C74.3983 83.8798 74.4063 83.8871 74.4157 83.8921C74.4252 83.8972 74.4357 83.8998 74.4464 83.8998C74.4571 83.8998 74.4676 83.8972 74.4771 83.8921C74.4865 83.8871 74.4945 83.8798 74.5004 83.8709L74.8383 83.3451C74.8438 83.3381 74.8507 83.3324 74.8585 83.3282C74.8663 83.324 74.8749 83.3215 74.8838 83.3207C74.8926 83.32 74.9015 83.3211 74.9099 83.3239C74.9183 83.3267 74.926 83.3313 74.9326 83.3372L75.1703 83.5177C75.1795 83.5248 75.1904 83.5293 75.2019 83.5307C75.2134 83.5321 75.2251 83.5304 75.2357 83.5258C75.2463 83.5212 75.2555 83.5139 75.2623 83.5045C75.2692 83.4951 75.2733 83.4841 75.2744 83.4726L75.3314 82.6368C75.3326 82.615 75.3281 82.5934 75.3185 82.5738C75.3089 82.5543 75.2945 82.5375 75.2766 82.5251C75.2586 82.5127 75.2378 82.5051 75.2162 82.503C75.1945 82.5009 75.1726 82.5044 75.1526 82.5132C74.9329 82.6202 74.6936 82.681 74.4493 82.6917L74.4474 82.6819Z" fill="#65617D"/>
<path d="M76.7713 80.5766L75.9855 79.7722C75.9855 77.1843 74.4572 76.0444 74.4572 76.0444C74.4572 76.0444 72.9131 77.1922 72.9131 79.7722L72.1273 80.5766C72.1126 80.5918 72.1016 80.6101 72.0951 80.6301C72.0886 80.6502 72.0869 80.6715 72.09 80.6924L72.3925 82.5229C72.3948 82.5446 72.4027 82.5653 72.4154 82.583C72.4281 82.6007 72.4452 82.6148 72.465 82.6239C72.4848 82.633 72.5067 82.6368 72.5284 82.6349C72.5501 82.633 72.571 82.6255 72.589 82.6132L73.691 81.8676C73.9027 82.0627 74.1755 82.1785 74.4631 82.1953C74.7464 82.1805 75.015 82.0642 75.2194 81.8676L76.3195 82.6132C76.3374 82.6255 76.3583 82.633 76.38 82.6349C76.4018 82.6368 76.4236 82.633 76.4434 82.6239C76.4633 82.6148 76.4804 82.6007 76.4931 82.583C76.5058 82.5653 76.5137 82.5446 76.5159 82.5229L76.8204 80.6904C76.8213 80.669 76.8173 80.6476 76.8088 80.6279C76.8003 80.6082 76.7875 80.5907 76.7713 80.5766ZM74.4552 78.9207C74.3501 78.9254 74.246 78.8986 74.1564 78.8436C74.0667 78.7887 73.9956 78.7082 73.9521 78.6125C73.9087 78.5168 73.895 78.4103 73.9127 78.3068C73.9304 78.2032 73.9788 78.1074 74.0516 78.0315C74.1244 77.9557 74.2183 77.9034 74.3211 77.8813C74.424 77.8593 74.5311 77.8685 74.6287 77.9078C74.7262 77.9471 74.8097 78.0147 74.8684 78.1019C74.9272 78.1891 74.9584 78.2918 74.9581 78.3969C74.9607 78.5329 74.9093 78.6644 74.815 78.7626C74.7208 78.8607 74.5914 78.9176 74.4552 78.9207Z" fill="#65617D"/>
<path d="M77.066 62.6441H76.9835C76.8754 62.6441 76.787 62.6304 76.7752 62.5225C76.5356 60.2976 75.131 60.2544 75.131 59.7306C75.131 59.2067 76.5375 59.1636 76.7752 56.9387C76.787 56.8308 76.8754 56.817 76.9835 56.817H77.066C77.1259 56.8177 77.1838 56.7955 77.2279 56.7551C77.2721 56.7146 77.2992 56.6589 77.3037 56.5992C77.305 56.5682 77.3 56.5372 77.2891 56.5081C77.2782 56.479 77.2615 56.4524 77.24 56.4299C77.2186 56.4073 77.1928 56.3894 77.1643 56.377C77.1357 56.3646 77.1049 56.3581 77.0738 56.3579H71.8306C71.7711 56.3577 71.7136 56.3801 71.6699 56.4205C71.6262 56.4609 71.5994 56.5164 71.5949 56.5757C71.5933 56.6068 71.5981 56.6379 71.6089 56.6672C71.6197 56.6964 71.6364 56.7231 71.6579 56.7457C71.6794 56.7683 71.7053 56.7862 71.734 56.7985C71.7627 56.8108 71.7935 56.8171 71.8247 56.817H71.9151C72.0212 56.817 72.1116 56.8308 72.1234 56.9387C72.363 59.1636 73.7676 59.2067 73.7676 59.7306C73.7676 60.2544 72.3611 60.2976 72.1234 62.5225C72.1116 62.6304 72.0212 62.6441 71.9151 62.6441H71.8306C71.7711 62.6439 71.7136 62.6663 71.6699 62.7067C71.6262 62.7471 71.5994 62.8026 71.5949 62.8619C71.5933 62.893 71.5981 62.9241 71.6089 62.9534C71.6197 62.9826 71.6364 63.0093 71.6579 63.0319C71.6794 63.0545 71.7053 63.0724 71.734 63.0847C71.7627 63.097 71.7935 63.1033 71.8247 63.1032H77.0738C77.105 63.1033 77.1359 63.097 77.1646 63.0847C77.1933 63.0724 77.2192 63.0545 77.2407 63.0319C77.2622 63.0093 77.2788 62.9826 77.2897 62.9534C77.3005 62.9241 77.3053 62.893 77.3037 62.8619C77.2987 62.8024 77.2715 62.7469 77.2275 62.7066C77.1834 62.6662 77.1257 62.6439 77.066 62.6441ZM72.9288 62.0849C73.4003 60.7763 74.2332 60.9352 74.2332 60.4192V59.5089C74.2332 59.191 73.6301 58.9693 73.251 58.4533C73.2387 58.4342 73.2318 58.4121 73.2309 58.3893C73.2301 58.3666 73.2354 58.3441 73.2462 58.324C73.257 58.304 73.273 58.2873 73.2925 58.2755C73.312 58.2637 73.3343 58.2574 73.357 58.2571H75.5376C75.5607 58.2567 75.5835 58.2625 75.6035 58.274C75.6236 58.2855 75.6402 58.3022 75.6514 58.3223C75.6627 58.3424 75.6683 58.3653 75.6677 58.3883C75.667 58.4114 75.6601 58.4339 75.6476 58.4533C75.2763 58.9713 74.6654 59.193 74.6654 59.5108V60.4212C74.6654 60.9333 75.4669 60.794 75.9737 62.0869C76.0209 62.2027 75.9855 62.3479 75.8617 62.3479H73.0427C72.915 62.3439 72.8856 62.2027 72.9288 62.0849Z" fill="#65617D"/>
<path opacity="0.2" d="M148.62 59.7286C148.621 60.3074 148.392 60.863 147.983 61.2732C147.574 61.6834 147.019 61.9147 146.439 61.9162H90.3045C90.0115 61.925 89.7196 61.8749 89.4463 61.769C89.173 61.663 88.9238 61.5034 88.7134 61.2995C88.5031 61.0956 88.3358 60.8515 88.2216 60.5819C88.1074 60.3122 88.0485 60.0224 88.0485 59.7296C88.0485 59.4368 88.1074 59.147 88.2216 58.8773C88.3358 58.6077 88.5031 58.3637 88.7134 58.1597C88.9238 57.9558 89.173 57.7962 89.4463 57.6902C89.7196 57.5843 90.0115 57.5342 90.3045 57.543H146.439C147.018 57.545 147.573 57.7762 147.981 58.1859C148.39 58.5956 148.62 59.1503 148.62 59.7286Z" fill="#5A5773"/>
<path opacity="0.2" d="M148.62 79.9706C148.62 80.2573 148.565 80.5414 148.455 80.8067C148.346 81.0719 148.186 81.3131 147.983 81.5164C147.781 81.7197 147.54 81.8812 147.275 81.9916C147.01 82.1021 146.726 82.1594 146.439 82.1601H90.3045C89.7352 82.1431 89.1949 81.9052 88.7982 81.497C88.4015 81.0888 88.1797 80.5423 88.1797 79.9735C88.1797 79.4047 88.4015 78.8582 88.7982 78.45C89.1949 78.0417 89.7352 77.8039 90.3045 77.7869H146.439C147.018 77.7895 147.572 78.0205 147.98 78.4297C148.389 78.8388 148.619 79.3927 148.62 79.9706Z" fill="#5A5773"/>
<path opacity="0.2" d="M148.62 100.381C148.62 100.959 148.39 101.514 147.981 101.923C147.573 102.332 147.018 102.563 146.439 102.565H90.3045C90.0115 102.573 89.7196 102.523 89.4463 102.417C89.173 102.311 88.9238 102.152 88.7134 101.948C88.5031 101.744 88.3358 101.5 88.2216 101.23C88.1074 100.961 88.0485 100.671 88.0485 100.378C88.0485 100.085 88.1074 99.7954 88.2216 99.5258C88.3358 99.2561 88.5031 99.0121 88.7134 98.8082C88.9238 98.6043 89.173 98.4446 89.4463 98.3387C89.7196 98.2327 90.0115 98.1826 90.3045 98.1914H146.439C147.019 98.1935 147.574 98.4252 147.983 98.8357C148.392 99.2462 148.621 99.802 148.62 100.381Z" fill="#5A5773"/>
<path d="M137.353 57.543V61.9162H90.3045C90.0115 61.925 89.7196 61.8749 89.4463 61.769C89.173 61.663 88.9238 61.5034 88.7134 61.2995C88.5031 61.0956 88.3358 60.8515 88.2216 60.5819C88.1074 60.3122 88.0485 60.0224 88.0485 59.7296C88.0485 59.4368 88.1074 59.147 88.2216 58.8773C88.3358 58.6077 88.5031 58.3637 88.7134 58.1597C88.9238 57.9558 89.173 57.7962 89.4463 57.6902C89.7196 57.5843 90.0115 57.5342 90.3045 57.543H137.353Z" fill="#FFB74C"/>
<path d="M145.702 77.783V82.1601H90.3045C89.7352 82.1431 89.1949 81.9053 88.7982 81.4971C88.4015 81.0888 88.1797 80.5424 88.1797 79.9735C88.1797 79.4047 88.4015 78.8582 88.7982 78.45C89.1949 78.0418 89.7352 77.8039 90.3045 77.7869L145.702 77.783Z" fill="#FFB74C"/>
<path d="M125.174 98.1953V102.565H90.3045C90.0115 102.573 89.7196 102.523 89.4463 102.417C89.173 102.311 88.9238 102.152 88.7134 101.948C88.5031 101.744 88.3358 101.5 88.2216 101.23C88.1074 100.961 88.0485 100.671 88.0485 100.378C88.0485 100.085 88.1074 99.7954 88.2216 99.5258C88.3358 99.2561 88.5031 99.0121 88.7134 98.8082C88.9238 98.6043 89.173 98.4446 89.4463 98.3387C89.7196 98.2327 90.0115 98.1826 90.3045 98.1914L125.174 98.1953Z" fill="#FFB74C"/>
<path d="M203.916 92.1309C204.024 91.8385 203.218 90.212 203.218 90.1316C203.218 90.0512 202.383 89.1506 202.383 88.6385C202.383 88.1264 201.281 87.0375 201.281 87.0375C201.281 87.0375 199.802 86.4234 199.641 85.0913C199.48 83.7591 197.873 83.7316 197.873 83.7316C197.873 83.7316 197.873 83.61 197.873 83.4255C197.873 83.0096 197.861 82.2719 197.676 81.8658C197.485 81.4974 197.156 81.2195 196.761 81.0927C196.761 81.0927 196.6 80.0509 196.278 79.7311C196.098 79.5428 195.969 79.3117 195.903 79.0597C195.837 78.8077 195.837 78.5431 195.902 78.291C196.064 77.7868 195.688 76.5056 194.906 76.329C194.125 76.1525 193.241 75.8484 193.241 75.8484C193.241 75.8484 193.152 75.866 193.025 75.8837L192.916 75.8484C192.73 75.8834 192.542 75.907 192.353 75.919C192.188 75.9243 192.026 75.8707 191.897 75.7679C191.622 75.4638 189.461 74.9007 189.048 74.9007C188.636 74.9007 187.487 74.3651 187.487 74.3651L186.332 73.4861C186.007 73.2389 185.408 72.2383 185.322 72.0931L185.31 72.0735C185.212 71.8457 185.13 71.6109 185.066 71.3711C185.459 70.9598 185.796 70.4979 186.066 69.9977C186.094 69.9467 186.117 69.8937 186.145 69.8408C186.204 69.8406 186.262 69.8313 186.318 69.8133L186.391 69.7858C186.662 69.6418 186.867 69.3975 186.96 69.105C186.982 69.0462 186.998 68.9873 187.013 68.9284L187.025 68.8696C187.025 68.8284 187.043 68.7872 187.051 68.7479L187.062 68.6793C187.062 68.6381 187.076 68.5988 187.08 68.5576C187.084 68.5164 187.08 68.5125 187.08 68.4909C187.08 68.4693 187.092 68.3889 187.1 68.3398C187.118 68.1514 187.146 67.9641 187.184 67.7787C187.345 67.0547 187.774 66.4426 188.09 65.7736C188.133 65.6774 188.176 65.5774 188.214 65.4812C188.251 65.3851 188.288 65.2674 188.32 65.1575C188.32 65.1241 188.337 65.0908 188.345 65.0574C188.367 64.977 188.384 64.8985 188.4 64.8161C188.4 64.7808 188.414 64.7455 188.42 64.7102C188.438 64.6003 188.453 64.4885 188.463 64.3766C188.518 63.7391 188.423 63.0975 188.186 62.5029C187.99 62.0026 187.685 61.5514 187.481 61.0511C187.172 60.2918 187.088 59.4324 186.713 58.7104C186.08 57.4979 184.589 56.8897 183.373 57.3468C182.784 57.5646 182.283 57.9865 181.69 58.1748C180.904 58.4279 180.043 58.2376 179.222 58.1238C178.401 58.01 177.49 58.0002 176.829 58.5358C176.067 59.1538 175.859 60.3134 175.144 60.9922C174.843 61.2767 174.472 61.4592 174.162 61.7221C173.938 61.8999 173.767 62.1344 173.665 62.4009C173.658 62.4195 173.652 62.4385 173.647 62.4578C173.639 62.4801 173.633 62.5031 173.629 62.5265C173.629 62.5539 173.62 62.5795 173.616 62.6069C173.612 62.6344 173.616 62.6442 173.616 62.6619C173.613 62.7096 173.613 62.7574 173.616 62.8051C173.62 62.85 173.627 62.8946 173.637 62.9385C173.637 62.9522 173.637 62.964 173.637 62.9758C173.637 62.9875 173.657 63.0503 173.671 63.0876V63.1092C173.684 63.1504 173.702 63.1896 173.718 63.2308C173.733 63.272 173.735 63.2701 173.745 63.2917C173.752 63.3084 173.759 63.3247 173.767 63.3407C173.871 63.5384 173.954 63.7461 174.016 63.9607C174.05 64.0968 174.041 64.2399 173.991 64.3707C173.919 64.5199 173.818 64.6533 173.694 64.7631C173.159 65.3185 172.745 65.9794 172.48 66.7035C172.449 66.786 172.419 66.8684 172.394 66.9527L172.429 66.9625C172.506 66.9861 172.585 67.0031 172.665 67.0135C172.71 67.0135 172.755 67.0253 172.8 67.0273C172.984 67.038 173.168 67.0241 173.348 66.9861L173.486 66.9547C173.672 66.9044 173.854 66.8387 174.03 66.7585C174.03 66.8134 174.03 66.8664 174.03 66.9213C174.03 66.9763 174.03 66.9821 174.03 67.0135C174.033 68.1939 174.365 69.3502 174.99 70.3523C175.614 71.3543 176.507 72.1624 177.566 72.6856L177.59 72.8583L177.607 73.0035L177.535 72.9348C177.535 72.9348 177.049 72.6935 176.594 73.388C176.257 73.8412 175.801 74.1917 175.276 74.4004C175.276 74.4004 170.382 75.1734 170.193 75.815L167.909 75.9484C167.909 75.9484 167.101 76.0544 167.021 77.7338C166.94 79.4133 166.51 79.5742 166.51 79.5742C166.51 79.5742 165.569 81.2281 165.65 82.0816C165.73 82.935 164.905 83.3569 164.905 83.3569L164.797 84.8774C164.797 84.8774 163.909 84.744 163.668 85.7838C163.426 86.8237 162.996 87.3044 162.996 87.3044C162.996 87.3044 161.516 88.5306 161.436 89.5705L160.522 90.1316C160.522 90.1316 158.397 89.6509 157.914 88.7974L157.764 88.6581C157.76 88.6521 157.756 88.6455 157.753 88.6385C157.434 88.3403 156.76 87.7125 156.863 87.8537C156.926 87.9879 156.941 88.1394 156.906 88.2834L156.749 88.1068L156.326 87.6536C156.326 87.6536 153.165 84.0259 151.154 83.7708C150.94 83.8265 150.745 83.9363 150.587 84.0897C150.428 84.243 150.313 84.4346 150.25 84.6459C149.995 85.5131 149.728 86.9493 150.392 87.6556L153.57 91.0478L153.653 91.1087L154.344 91.9955C154.228 92.2741 154.13 92.5448 154.048 92.7901V92.8136C154.03 92.8666 154.014 92.9196 153.998 92.9686L153.981 93.0216C153.965 93.0726 153.951 93.1217 153.936 93.1687C153.92 93.2158 153.92 93.2276 153.91 93.257C153.9 93.2865 153.91 93.2904 153.896 93.308C153.82 93.5749 153.773 93.7809 153.747 93.8966L153.568 93.8417L153.743 93.9163C153.742 93.9254 153.742 93.9346 153.743 93.9437C153.738 93.9624 153.734 93.9814 153.731 94.0006C153.784 94.0242 153.839 94.0497 153.896 94.0713C154.837 94.4813 159.538 96.5414 159.79 96.8534C160.059 97.2006 161.835 98.213 163.448 97.3595C165.06 96.5061 165.412 95.2014 165.412 95.2014C165.412 95.2014 166.972 93.0432 167.025 92.7214C167.078 92.3996 168.288 92.0288 168.288 92.0288C168.288 92.0288 168.396 95.6016 167.777 96.9083C167.158 98.215 166.009 104.003 166.009 104.003C166.085 103.987 166.162 103.983 166.239 103.989L166.17 104.323C166.264 104.306 166.361 104.306 166.455 104.323C166.369 104.98 165.866 108.035 165.866 108.035C165.866 108.035 165.703 109.422 165.436 109.903C165.168 110.383 165.139 112.889 165.139 112.889L164.709 114.702C164.709 114.702 164.766 114.827 164.872 115.015C164.872 115.015 165.333 116.038 166.111 116.612C166.075 116.897 166.002 117.175 165.893 117.44C165.726 117.846 165.653 118.284 165.679 118.722C165.679 118.722 165.221 120.774 165.276 121.362C165.331 121.951 164.98 123.389 164.98 123.389L164.497 128.029C164.497 128.029 164.174 132.055 164.335 133.15C164.497 134.245 164.227 135.736 164.227 135.736C164.227 135.736 164.55 138.91 164.469 139.256C164.389 139.601 163.986 141.096 164.227 141.922C164.469 142.748 164.335 145.016 164.335 145.016C164.335 145.016 164.497 148.004 164.683 148.964C164.87 149.923 164.63 151.151 164.63 151.151C164.63 151.151 164.434 153.203 164.361 153.203C164.288 153.203 163.575 154.616 165.005 156.003C166.435 157.39 165.546 157.18 165.546 157.18C165.546 157.18 164.416 156.621 164.55 157.769C164.677 158.862 164.854 158.575 164.87 158.554L164.603 159.431L164.799 159.456C164.748 159.517 164.697 159.58 164.642 159.653C164.479 159.856 164.299 160.045 164.102 160.216C163.778 160.455 163.75 160.987 163.75 160.987C163.75 160.987 161.762 163.145 159.906 164.24C158.923 164.816 158.088 165.303 157.721 165.707C157.389 166.068 157.444 166.361 158.132 166.588C159.583 167.069 162.137 167.308 163.966 166.696C165.056 166.332 166.037 165.699 166.817 164.856C166.817 164.856 167.972 164.267 169.101 164.481C170.231 164.695 172.49 163.227 172.49 163.227L172.449 162.851L172.329 161.76C172.252 161.668 172.195 161.562 172.161 161.448C172.127 161.333 172.117 161.213 172.132 161.095C172.147 160.772 172.115 160.449 172.038 160.135C172.018 160.029 171.999 159.925 171.979 159.825L172.185 159.788C172.185 159.788 171.916 158.428 172.402 158.159C172.887 157.891 172.749 154.4 172.749 154.4C172.749 154.4 172.132 153.6 171.808 153.466C171.484 153.333 171.781 151.679 171.836 151.467C171.891 151.255 172.297 147.102 172.297 147.102C172.297 147.102 172.136 145.797 172.35 145.236C172.565 144.675 172.081 142.517 172.081 142.517C172.081 142.517 171.92 142.25 172.217 141.928C172.514 141.606 172.404 138.755 172.404 138.755C172.404 138.755 172.378 137.315 172.378 136.941C172.378 136.566 172.7 135.208 172.995 134.755C173.289 134.302 173.103 132.889 173.103 132.889L173.119 132.781C173.119 132.742 173.134 132.691 173.144 132.632L173.168 132.489C173.298 131.708 173.473 130.935 173.692 130.174C174.042 129.053 174.445 127.082 174.445 127.082L176.947 120.556L176.975 120.48C176.975 120.48 178.13 122.612 178.13 124.588C178.13 124.588 178.427 126.96 178.346 127.6C178.265 128.239 178.59 131.253 178.59 131.253C178.59 131.253 178.937 135.569 178.937 135.765C178.937 135.962 179.368 139.285 179.637 139.791C179.906 140.298 179.368 141.846 179.206 142.004C179.045 142.163 179.26 146.085 179.26 146.085C179.26 146.085 178.857 149.177 178.776 149.813C178.696 150.449 178.374 152.907 178.643 153.867C178.912 154.826 178.804 154.959 178.804 154.959C178.804 154.959 179.772 155.94 179.197 156.027C178.991 156.072 178.797 156.16 178.628 156.286C178.459 156.412 178.319 156.572 178.217 156.756C178.115 156.941 178.054 157.145 178.037 157.354C178.02 157.564 178.049 157.775 178.12 157.973C178.455 158.948 178.848 159.901 179.299 160.828L179.745 160.734V161.051L179.776 162.641C179.776 162.641 179.973 164.161 179.859 164.508C179.749 165.195 179.675 165.888 179.639 166.582C179.619 166.81 179.607 166.963 179.607 166.963C179.607 166.963 179.607 168.375 182.593 167.944C185.579 167.512 186.121 166.349 186.121 166.349C186.121 166.349 186.121 166.294 186.145 166.202C186.188 165.933 186.284 165.36 186.365 165.042C186.473 164.614 185.505 162.688 185.505 162.688C185.505 162.688 185.343 161.381 185.074 161.087C184.962 160.919 184.888 160.728 184.858 160.528C184.833 160.42 184.811 160.308 184.793 160.198C184.864 160.208 184.93 160.22 184.99 160.233C184.99 160.233 184.827 159.301 185.448 159.007C186.068 158.713 185.903 158.101 185.823 157.83C185.742 157.559 186.064 156.064 186.064 156.064C186.021 155.915 186.019 155.758 186.057 155.608C186.095 155.458 186.172 155.321 186.281 155.211C186.658 154.838 186.952 152.224 186.952 152.224L187.005 142.144C187.005 142.144 187.202 140.356 186.98 139.636C186.758 138.916 186.55 137.531 186.844 137.156C187.139 136.782 186.872 135.049 186.872 135.049C186.872 135.049 186.872 131.396 187.275 130.49C187.677 129.583 187.544 123.85 187.544 123.85L187.652 120.089C187.652 120.089 188.53 119.259 188.322 114.931C189.259 114.872 190.316 114.839 190.483 114.968C190.779 115.208 192.687 116.436 193.822 115.661C194.064 115.555 195.166 114.621 195.166 114.621L194.692 106.626C194.987 107.071 195.168 107.368 195.168 107.368C195.168 106.247 198.34 102.622 198.34 102.622C198.34 102.622 201.297 98.8075 201.943 98.3543C202.59 97.901 203.851 95.4996 203.851 95.4996C204.038 95.0422 204.253 94.5973 204.497 94.1674C204.784 93.7044 203.802 92.4252 203.916 92.1309ZM196.979 94.9306C196.174 95.011 194.478 96.8514 194.453 97.2516C194.393 97.5156 194.27 97.7613 194.095 97.9678C194.081 97.8069 194.068 97.644 194.056 97.4773C193.859 95.1229 193.663 92.2486 193.753 91.97C193.914 91.4912 193.859 89.3311 193.859 89.3311L193.889 89.2899C194.431 90.9635 196.115 92.9372 196.115 92.9372C196.115 92.9372 196.411 93.7907 196.761 93.8162C197.111 93.8417 196.979 94.9306 196.979 94.9306Z" fill="url(#paint0_linear)"/>
<path d="M153.869 94.3243C153.869 94.3243 154.851 89.1898 157.994 89.1643L160.298 93.9005L158.762 94.96C158.762 94.96 155.432 95.064 153.869 94.3243Z" fill="#65617D"/>
<path opacity="0.1" d="M160.308 93.8986L158.77 94.958C158.77 94.958 156.413 95.0326 154.743 94.6186C154.442 94.5497 154.149 94.4504 153.869 94.3224C153.869 94.3224 153.869 94.2929 153.886 94.24C153.886 94.2334 153.886 94.2269 153.886 94.2203C154.029 93.5763 154.226 92.9455 154.476 92.3349C154.572 92.1034 154.672 91.866 154.802 91.6286C155.264 90.7417 155.912 89.8628 156.8 89.4409C157.128 89.2799 157.486 89.1865 157.851 89.1663H157.945H157.992L158.041 89.2702L158.827 90.8712L160.308 93.8986Z" fill="black"/>
<path d="M186.491 115.231C186.491 115.231 189.803 114.914 190.093 115.151C190.384 115.388 192.266 116.607 193.38 115.84C194.494 115.072 193.751 112.398 193.751 112.292C193.751 112.186 193.645 108.402 193.645 108.402L191.657 105.729L189.166 101.044L184.078 100.542L184.21 107.978L184.184 111.786L186.491 115.231Z" fill="#65617D"/>
<path opacity="0.1" d="M186.491 115.231C186.491 115.231 189.803 114.914 190.093 115.151C190.384 115.388 192.266 116.607 193.38 115.84C194.494 115.072 193.751 112.398 193.751 112.292C193.751 112.186 193.645 108.402 193.645 108.402L191.657 105.729L189.166 101.044L184.078 100.542L184.21 107.978L184.184 111.786L186.491 115.231Z" fill="black"/>
<path d="M157.34 89.0271C157.34 89.0271 157.077 92.2565 155.061 92.3095C155.061 92.3095 154.492 91.9661 153.723 91.3932C151.955 90.0689 149.146 87.5281 149.922 85.1619C151.034 81.7756 156.44 88.0206 156.44 88.0206L156.857 88.4855L157.34 89.0271Z" fill="#FBBEBE"/>
<path opacity="0.1" d="M157.34 89.0271C157.34 89.0271 157.077 92.2565 155.061 92.3095C155.061 92.3095 154.491 91.9662 153.723 91.3933L153.55 91.1716C153.892 91.3506 154.269 91.4517 154.655 91.4678C154.959 91.4821 155.26 91.4028 155.517 91.2407C155.775 91.0786 155.976 90.8415 156.094 90.5614C156.307 90.1469 156.494 89.7197 156.654 89.2822C156.749 89.0253 156.815 88.7588 156.851 88.4875L157.34 89.0271Z" fill="black"/>
<path d="M156.458 94.8776L156.004 94.289L154.48 92.327L153.694 91.3244C154.035 91.5034 154.413 91.6046 154.798 91.6207C155.102 91.6346 155.403 91.5553 155.66 91.3932C155.918 91.2311 156.119 90.9942 156.238 90.7142C156.45 90.2991 156.637 89.8712 156.796 89.4331C157.047 88.7189 157.043 88.352 156.953 88.2284C156.863 88.1048 157.517 88.7071 157.829 89.0034L157.841 89.0152L157.988 89.1545L158.041 89.2624L158.809 90.7947C158.809 90.7947 158.809 90.8163 158.809 90.8594C158.892 91.3519 159.151 94.44 156.458 94.8776Z" fill="#E7EFFD"/>
<path d="M172.341 162.994C172.341 162.994 170.113 164.449 169.001 164.236C167.889 164.022 166.748 164.608 166.748 164.608C165.981 165.445 165.015 166.073 163.939 166.435C162.137 167.043 159.617 166.804 158.189 166.327C157.511 166.101 157.458 165.811 157.784 165.452C158.145 165.06 158.976 164.569 159.945 163.998C161.762 162.921 163.726 160.779 163.726 160.779C163.726 160.779 163.754 160.249 164.072 160.011C164.266 159.842 164.445 159.655 164.606 159.454C164.891 159.117 165.158 158.766 165.158 158.766L171.704 158.979C171.704 158.979 171.814 159.45 171.901 159.931C171.976 160.243 172.007 160.564 171.993 160.885C171.977 161.002 171.985 161.121 172.017 161.235C172.049 161.348 172.104 161.454 172.18 161.546L172.295 162.627L172.341 162.994Z" fill="#65617D"/>
<path d="M186.039 164.828C185.96 165.144 185.866 165.711 185.823 165.978C185.809 166.068 185.801 166.125 185.801 166.125C185.801 166.125 185.271 167.289 182.33 167.712C179.389 168.136 179.383 166.731 179.383 166.731C179.383 166.731 179.395 166.58 179.415 166.353C179.458 165.664 179.537 164.978 179.65 164.297C179.755 163.951 179.57 162.443 179.57 162.443L179.538 160.873L179.517 159.776L184.397 159.266C184.427 159.631 184.48 159.993 184.554 160.351C184.585 160.549 184.657 160.738 184.766 160.906C185.033 161.199 185.192 162.494 185.192 162.494C185.192 162.494 186.145 164.403 186.039 164.828Z" fill="#65617D"/>
<path opacity="0.1" d="M171.704 158.979C171.704 158.979 171.814 159.45 171.901 159.931C171.193 160.063 168.101 160.596 167.329 160.221C166.455 159.798 164.579 159.56 164.579 159.56L164.61 159.454C164.895 159.117 165.162 158.766 165.162 158.766L171.704 158.979Z" fill="black"/>
<path opacity="0.1" d="M184.55 160.355C183.314 160.145 180.605 160.651 179.538 160.869L179.517 159.772L184.396 159.266C184.425 159.632 184.477 159.995 184.55 160.355Z" fill="black"/>
<path d="M187.31 120.232L187.206 123.96C187.206 123.96 187.337 129.65 186.941 130.55C186.544 131.451 186.548 135.077 186.548 135.077C186.548 135.077 186.813 136.795 186.52 137.166C186.227 137.537 186.44 138.912 186.654 139.627C186.868 140.341 186.679 142.116 186.679 142.116L186.626 152.122C186.626 152.122 186.335 154.714 185.964 155.087C185.857 155.196 185.78 155.331 185.742 155.48C185.704 155.628 185.706 155.783 185.748 155.931C185.748 155.931 185.43 157.412 185.508 157.677C185.587 157.942 185.748 158.552 185.139 158.842C184.53 159.133 184.687 160.059 184.687 160.059C183.232 159.715 179.096 160.647 179.096 160.647C178.65 159.728 178.261 158.783 177.93 157.816C177.858 157.62 177.83 157.411 177.846 157.203C177.862 156.995 177.922 156.793 178.022 156.61C178.123 156.427 178.261 156.268 178.428 156.143C178.595 156.017 178.787 155.929 178.99 155.884C179.546 155.805 178.597 154.826 178.597 154.826C178.597 154.826 178.704 154.693 178.438 153.741C178.173 152.789 178.491 150.353 178.57 149.717C178.649 149.081 179.049 146.011 179.049 146.011C179.049 146.011 178.837 142.12 178.996 141.961C179.155 141.802 179.686 140.266 179.421 139.764C179.155 139.262 178.731 135.954 178.731 135.767C178.731 135.581 178.387 131.294 178.387 131.294C178.387 131.294 178.067 128.304 178.144 127.678C178.22 127.052 177.93 124.686 177.93 124.686C177.93 122.724 176.792 120.611 176.792 120.611L176.763 120.688L174.299 127.148C174.299 127.148 173.906 129.11 173.559 130.217C173.341 130.973 173.168 131.74 173.04 132.516L173.016 132.658C173.016 132.716 172.999 132.767 172.993 132.807L172.977 132.913C172.977 132.913 173.162 134.315 172.871 134.767C172.58 135.218 172.262 136.566 172.262 136.937C172.262 137.307 172.288 138.736 172.288 138.736C172.288 138.736 172.394 141.567 172.103 141.875C172.019 141.945 171.96 142.04 171.936 142.147C171.912 142.253 171.923 142.364 171.969 142.464C171.969 142.464 172.447 144.608 172.235 145.163C172.022 145.718 172.183 147.015 172.183 147.015C172.183 147.015 171.759 151.118 171.706 151.332C171.653 151.546 171.36 153.184 171.679 153.317C171.997 153.451 172.606 154.243 172.606 154.243C172.606 154.243 172.739 157.71 172.262 157.971C171.785 158.232 172.05 159.586 172.05 159.586C172.05 159.586 168.207 160.327 167.335 159.904C166.463 159.48 164.585 159.24 164.585 159.24L164.848 158.369C164.832 158.401 164.652 158.683 164.532 157.6C164.4 156.462 165.514 157.012 165.514 157.012C165.514 157.012 166.388 157.224 164.984 155.848C163.579 154.473 164.269 153.068 164.347 153.068C164.426 153.068 164.612 151.032 164.612 151.032C164.612 151.032 164.852 149.813 164.665 148.86C164.479 147.906 164.316 144.944 164.316 144.944C164.316 144.944 164.447 142.695 164.21 141.873C163.972 141.051 164.369 139.572 164.447 139.226C164.526 138.881 164.21 135.732 164.21 135.732C164.21 135.732 164.475 134.251 164.316 133.168C164.157 132.085 164.475 128.086 164.475 128.086L164.952 123.479C164.952 123.479 165.296 122.051 165.243 121.468C165.19 120.886 165.636 118.849 165.636 118.849C165.61 118.415 165.683 117.98 165.848 117.578C166.113 117.05 166.221 115.302 166.221 115.302L168.763 109.479L170.013 104.354L186.84 104.195C186.84 104.195 186.901 104.638 187.003 105.449C187.106 106.259 187.249 107.456 187.408 108.935C187.555 110.277 187.716 111.859 187.874 113.617C188.371 119.226 187.31 120.232 187.31 120.232Z" fill="#3F3D56"/>
<path d="M185.748 73.8902L181.819 78.0732C181.819 78.0732 176.786 76.0602 177.315 75.3735C177.511 75.1067 177.487 74.2669 177.37 73.3389C177.173 71.8733 176.78 70.186 176.78 70.186C176.78 70.186 185.577 68.7557 184.835 70.237C184.563 70.7785 184.611 71.4142 184.78 72.0028C184.998 72.68 185.325 73.3174 185.748 73.8902Z" fill="#FBBEBE"/>
<path opacity="0.1" d="M184.846 70.237C184.575 70.7785 184.454 70.8256 184.615 71.4141C183.465 72.6463 182.002 73.9942 180.183 73.9942C179.208 73.9945 178.247 73.7674 177.376 73.331C177.179 71.8654 176.786 70.1781 176.786 70.1781C176.786 70.1781 185.589 68.7557 184.846 70.237Z" fill="black"/>
<path d="M186.491 67.5374C186.491 69.2082 185.826 70.8107 184.643 71.9921C183.46 73.1736 181.856 73.8373 180.183 73.8373C178.51 73.8373 176.905 73.1736 175.722 71.9921C174.539 70.8107 173.875 69.2082 173.875 67.5374C173.875 67.508 173.875 67.4785 173.875 67.4471C173.913 65.7943 174.601 64.2229 175.789 63.0718C176.977 61.9207 178.571 61.2823 180.226 61.2941C181.882 61.306 183.466 61.9672 184.637 63.1351C185.809 64.3031 186.474 65.8842 186.489 67.5374H186.491Z" fill="#FBBEBE"/>
<path opacity="0.1" d="M187.402 109.094C186.567 109.094 183.786 109.124 180.678 109.173H180.639L179.613 109.19H179.58C175.892 109.249 172.26 108.529 170.803 108.666C167.703 108.957 171.914 105.808 171.914 105.808C174.228 106.369 176.608 106.608 178.986 106.52L179.878 106.475C182.695 106.316 185.526 106.051 187.005 105.608C187.104 106.426 187.243 107.615 187.402 109.094Z" fill="black"/>
<path d="M187.402 108.935C186.567 108.935 183.786 108.965 180.678 109.014H180.639L179.613 109.031H179.58C175.892 109.09 172.26 108.37 170.803 108.507C167.703 108.798 171.914 105.649 171.914 105.649C174.228 106.21 176.607 106.45 178.986 106.363L179.878 106.316C182.695 106.157 185.526 105.892 187.005 105.449C187.104 106.267 187.243 107.456 187.402 108.935Z" fill="#E3A79F"/>
<path opacity="0.1" d="M178.487 75.6383L173.612 77.9142L169.848 106.973C169.848 106.973 172.073 105.967 173.346 106.602C174.619 107.238 178.54 106.655 178.54 106.655C178.54 106.655 181.403 106.496 181.825 106.814C182.247 107.132 187.231 105.49 187.231 105.49C187.231 105.49 188.133 103.479 187.443 103.161C186.754 102.843 187.656 99.7217 187.656 99.7217L187.231 78.7599L186.385 76.0602L184.106 74.6868L181.772 76.5389L180.66 76.6978L178.487 75.6383Z" fill="black"/>
<path d="M178.487 75.3204L173.612 77.5963L169.848 106.655C169.848 106.655 172.073 105.649 173.352 106.292C174.631 106.936 178.546 106.345 178.546 106.345C178.546 106.345 181.409 106.186 181.831 106.504C182.253 106.822 187.237 105.182 187.237 105.182C187.237 105.182 188.139 103.169 187.449 102.853C186.76 102.537 187.661 99.4116 187.661 99.4116L187.237 78.4498L186.39 75.7501L184.112 74.3767L181.778 76.2288L180.666 76.3877L178.487 75.3204Z" fill="#E7EFFD"/>
<path opacity="0.1" d="M178.407 76.6664C178.407 76.6664 179.811 78.3322 179.782 78.6775C179.753 79.0228 179.701 79.8409 179.701 79.8409L178.656 81.9893C178.656 81.9893 178.067 84.6615 178.067 85.2187C178.067 85.7759 177.136 90.5965 177.136 90.5965L176.022 98.0069L174.617 107.721L176.05 110.181L177.745 108.753L179.998 91.4441L180.474 88.0302C180.474 88.0302 180.978 81.8892 180.978 81.2535C180.978 80.6179 180.686 78.9521 180.686 78.9521C180.686 78.9521 181.031 77.3629 182.454 76.9902C183.876 76.6174 182.348 76.9117 182.348 76.9117L181.526 76.2505L180.817 76.5369C180.817 76.5369 178.831 75.9287 178.407 76.6664Z" fill="black"/>
<path d="M178.248 76.5115C178.248 76.5115 179.652 78.1772 179.623 78.5225C179.593 78.8678 179.542 79.6859 179.542 79.6859L178.483 81.8304C178.483 81.8304 177.894 84.5026 177.894 85.0598C177.894 85.617 176.967 90.4317 176.967 90.4317L175.853 97.8421L174.448 107.556L175.89 110.02L177.586 108.592L179.835 91.2793L180.312 87.8655C180.312 87.8655 180.815 81.7244 180.815 81.0888C180.815 80.4531 180.523 78.7874 180.523 78.7874C180.523 78.7874 180.868 77.1981 182.291 76.8254C183.713 76.4526 182.185 76.7449 182.185 76.7449L181.363 76.0837L180.648 76.3741C180.648 76.3741 178.672 75.7698 178.248 76.5115Z" fill="#3F3D56"/>
<path opacity="0.1" d="M177.321 73.7234C177.321 73.7234 177.108 73.8823 177.055 74.9418C177.002 76.0012 176.27 78.3811 176.27 78.3811C176.27 78.3811 179.02 76.476 180.395 76.6879L177.321 73.7234Z" fill="black"/>
<path d="M177.321 73.4136C177.321 73.4136 177.108 73.5725 177.055 74.632C177.002 75.6914 176.27 78.0733 176.27 78.0733C176.27 78.0733 179.02 76.1662 180.395 76.3781L177.321 73.4136Z" fill="#E7EFFD"/>
<path opacity="0.1" d="M184.846 72.8857L180.501 76.6959C180.501 76.6959 184.159 78.8659 184.626 79.3956C185.094 79.9253 185.581 74.2081 185.581 74.2081L184.846 72.8857Z" fill="black"/>
<path d="M185.006 72.5679L180.66 76.378C180.66 76.378 184.316 78.548 184.786 79.0777C185.255 79.6075 185.74 73.8903 185.74 73.8903L185.006 72.5679Z" fill="#E7EFFD"/>
<path opacity="0.1" d="M177.478 73.7234C177.478 73.7234 177 73.486 176.55 74.1746C176.22 74.6237 175.77 74.9716 175.252 75.1792C175.252 75.1792 170.429 75.9463 170.245 76.582L167.991 76.7154C167.991 76.7154 167.196 76.8213 167.117 78.4812C167.039 80.141 166.614 80.3078 166.614 80.3078C166.614 80.3078 165.691 81.9637 165.768 82.8093C165.844 83.6549 165.052 84.0807 165.052 84.0807L168.365 92.682C168.365 92.682 168.471 96.2273 167.862 97.5242C167.253 98.8211 166.111 104.564 166.111 104.564C166.111 104.564 166.589 104.458 166.563 104.776C166.538 105.094 165.974 108.56 165.974 108.56C165.974 108.56 165.815 109.934 165.549 110.412C165.284 110.891 165.259 113.377 165.259 113.377L164.834 115.178C164.834 115.178 165.84 117.427 167.388 117.109C168.936 116.791 171.71 110.783 171.71 110.783L173.478 104.309L174.853 97.9048L175.246 93.5649L175.883 83.9512L176.81 77.6003C176.81 77.6003 177.851 74.1825 177.478 73.7234Z" fill="black"/>
<path d="M177.321 73.4136C177.321 73.4136 176.843 73.1762 176.393 73.8648C176.063 74.3139 175.613 74.6618 175.095 74.8694C175.095 74.8694 170.272 75.6384 170.087 76.2722L167.834 76.4056C167.834 76.4056 167.048 76.5115 166.96 78.1714C166.872 79.8312 166.457 80.0019 166.457 80.0019C166.457 80.0019 165.53 81.6441 165.608 82.4897C165.687 83.3353 164.893 83.7611 164.893 83.7611L168.205 92.3624C168.205 92.3624 168.312 95.9077 167.703 97.2046C167.094 98.5015 165.952 104.244 165.952 104.244C165.952 104.244 166.43 104.14 166.404 104.456C166.378 104.772 165.815 108.241 165.815 108.241C165.815 108.241 165.656 109.614 165.39 110.095C165.125 110.576 165.1 113.057 165.1 113.057L164.675 114.859C164.675 114.859 165.681 117.107 167.219 116.789C168.757 116.471 171.541 110.464 171.541 110.464L173.309 103.989L174.684 97.5832L175.077 93.2433L175.714 83.6296L176.641 77.2787C176.641 77.2787 177.692 73.8648 177.321 73.4136Z" fill="#65617D"/>
<path opacity="0.1" d="M160.308 93.8985L158.77 94.958C158.77 94.958 156.413 95.0325 154.743 94.6186L153.886 94.2399L153.716 94.1653L153.892 94.2203C154.776 94.4832 155.464 94.4773 156.012 94.2948C158.187 93.565 157.947 89.9785 157.862 89.1662C157.862 89.0858 157.849 89.0328 157.845 89.0112C157.848 89.0182 157.852 89.0248 157.857 89.0308C157.886 89.0797 157.92 89.1263 157.957 89.1702C157.986 89.2055 158.02 89.2408 158.053 89.2741L158.821 90.8064C158.821 90.8064 158.821 90.828 158.821 90.8712L160.308 93.8985Z" fill="black"/>
<path d="M165.634 83.551L164.893 83.7629L164.787 85.2717C164.787 85.2717 163.913 85.1383 163.673 86.1703C163.434 87.2023 163.011 87.679 163.011 87.679C163.011 87.679 161.554 88.8974 161.475 89.9294L160.583 90.4847C160.583 90.4847 158.489 90.0079 158.014 89.1623C158.014 89.1623 158.967 95.99 153.888 94.3223C153.888 94.3223 159.585 96.8101 159.851 97.1535C160.116 97.4968 161.864 98.5033 163.455 97.6577C165.047 96.8121 165.39 95.5132 165.39 95.5132C165.39 95.5132 166.927 93.3688 166.98 93.051C167.033 92.7331 168.225 92.3643 168.225 92.3643L170.484 86.8687L165.634 83.551Z" fill="#65617D"/>
<path opacity="0.1" d="M184.237 76.0602L185.006 72.5679C185.006 72.5679 185.351 73.7058 185.695 73.9707L186.834 74.8438C186.834 74.8438 187.974 75.3735 188.371 75.3735C188.767 75.3735 190.915 75.9288 191.18 76.2191C191.445 76.5095 192.506 76.2996 192.506 76.2996C192.506 76.2996 193.38 76.5899 194.148 76.7763C194.916 76.9627 195.288 78.2302 195.13 78.7383C195.066 78.9883 195.067 79.2505 195.131 79.5003C195.196 79.7502 195.324 79.9794 195.502 80.1666C195.82 80.4845 195.979 81.5165 195.979 81.5165C196.368 81.6443 196.691 81.9198 196.879 82.2836C197.144 82.8722 197.075 84.1377 197.075 84.1377L193.127 89.694C193.127 89.694 193.18 91.8385 193.021 92.3152C192.861 92.792 193.577 100.889 193.577 100.889L194.398 114.819C194.398 114.819 193.311 115.745 193.074 115.851C192.836 115.957 192.596 110.929 192.596 110.75C192.596 110.571 186.463 101.584 186.463 101.584C186.463 101.584 185.642 100.261 185.642 99.9689C185.642 99.6766 184.874 97.0044 184.874 97.0044L183.707 91.8444L184.237 76.0602Z" fill="black"/>
<path d="M197.391 83.8296C197.391 84.0121 197.391 84.1318 197.391 84.1318L193.445 89.6861C193.445 89.6861 193.498 91.8306 193.339 92.3073C193.246 92.582 193.449 95.4308 193.635 97.7715C193.769 99.4588 193.895 100.881 193.895 100.881L194.244 106.787L194.716 114.803C194.716 114.803 193.63 115.73 193.392 115.835C193.154 115.941 192.914 110.913 192.914 110.734C192.914 110.556 186.781 101.584 186.781 101.584C186.781 101.584 185.96 100.259 185.96 99.9689C185.96 99.6785 185.192 97.0043 185.192 97.0043L184.025 91.8443L184.556 76.07L185.006 72.5776C185.006 72.5776 185.668 73.7156 186.013 73.9785C186.359 74.2414 187.153 74.8535 187.153 74.8535C187.153 74.8535 188.292 75.3833 188.689 75.3833C189.086 75.3833 191.233 75.9385 191.498 76.2289C191.763 76.5193 192.824 76.3093 192.824 76.3093C192.824 76.3093 193.698 76.5997 194.466 76.7861C195.235 76.9725 195.606 78.2419 195.449 78.7481C195.384 78.9984 195.385 79.2609 195.449 79.5111C195.514 79.7612 195.642 79.9908 195.82 80.1784C196.136 80.4962 196.295 81.5282 196.295 81.5282C196.686 81.656 197.01 81.9324 197.197 82.2973C197.38 82.6819 197.397 83.4156 197.391 83.8296Z" fill="#65617D"/>
<path opacity="0.1" d="M164.999 154.347C165.131 154.347 170.696 154.559 170.59 155.458C170.484 156.356 164.999 154.347 164.999 154.347Z" fill="black"/>
<path opacity="0.1" d="M166.245 155.856C166.245 155.856 169.977 156.464 168.995 157.019C168.013 157.575 166.245 155.856 166.245 155.856Z" fill="black"/>
<path opacity="0.1" d="M180.13 153.772C180.13 153.772 186.332 154.302 185.404 154.989C184.477 155.676 182.277 155.783 182.171 155.811C182.065 155.838 180.13 153.772 180.13 153.772Z" fill="black"/>
<path opacity="0.1" d="M179.387 156.49C179.387 156.49 182.833 157.078 182.939 157.734C183.045 158.389 179.387 156.49 179.387 156.49Z" fill="black"/>
<path opacity="0.1" d="M181.297 140.559C181.297 140.559 184.44 141.3 184.636 141.802L181.297 140.559Z" fill="black"/>
<path opacity="0.1" d="M169.133 142.834C169.133 142.834 167.49 143.311 169.08 144.263C170.669 145.214 169.133 142.834 169.133 142.834Z" fill="black"/>
<path opacity="0.1" d="M176.421 117.401C176.605 117.401 179.493 116.448 180.501 116.872C181.222 117.14 181.984 117.284 182.754 117.295L176.421 117.401Z" fill="black"/>
<path opacity="0.1" d="M176.792 120.419L176.763 120.682L174.299 127.142C174.299 127.142 173.906 129.104 173.559 130.211C173.341 130.967 173.168 131.734 173.04 132.51L175.226 118.973L176.792 120.419Z" fill="black"/>
<path d="M180.638 109.014L179.613 109.031H179.58L178.979 106.363L179.87 106.316L180.638 109.014Z" fill="#3F3D56"/>
<path d="M193.14 105.782L192.482 106.326L190.28 108.137C190.28 108.137 184.316 111.313 182.674 108.296C181.226 105.637 187.978 103.74 189.614 103.326L189.962 103.242L193.14 105.782Z" fill="#FBBEBE"/>
<path opacity="0.1" d="M167.675 79.7664C167.675 79.7664 168.842 80.2961 169.107 81.0358C169.372 81.7754 167.675 79.7664 167.675 79.7664Z" fill="black"/>
<path opacity="0.1" d="M164.072 87.7065C164.072 87.7065 162.375 89.7706 163.064 90.5632C163.754 91.3559 164.072 87.7065 164.072 87.7065Z" fill="black"/>
<path opacity="0.1" d="M194.386 80.9299C194.386 80.9299 192.797 81.0888 192.744 82.4662L194.386 80.9299Z" fill="black"/>
<path opacity="0.1" d="M179.652 102.633C179.811 102.474 183.469 97.075 184.316 97.5518L179.652 102.633Z" fill="black"/>
<path opacity="0.1" d="M186.491 67.5374C186.492 68.5752 186.235 69.5971 185.744 70.5117H185.697C185.304 70.4274 185.09 69.9624 184.784 69.67C184.595 69.4925 184.356 69.3782 184.1 69.343C183.844 69.3078 183.583 69.3536 183.353 69.4738C183.121 69.6124 182.933 69.8129 182.808 70.0528C182.684 70.2926 182.629 70.5623 182.65 70.8315C182.454 69.9839 182.513 69.0834 182.314 68.2339C182.116 67.3843 181.528 66.525 180.713 66.5112C180.363 66.5112 179.955 66.6407 179.701 66.3778C179.548 66.2209 179.517 65.9717 179.403 65.7794C178.814 64.8416 177.055 65.3164 176.334 65.7971C175.613 66.2778 174.775 67.0469 173.877 67.4589C173.915 65.8061 174.603 64.2346 175.791 63.0836C176.979 61.9325 178.573 61.294 180.228 61.3058C181.884 61.3177 183.468 61.9789 184.639 63.1469C185.811 64.3148 186.476 65.8959 186.491 67.5491V67.5374Z" fill="black"/>
<path d="M179.403 65.6088C179.517 65.8049 179.548 66.0502 179.702 66.2072C179.953 66.4701 180.362 66.3347 180.713 66.3406C181.525 66.3543 182.118 67.2136 182.314 68.0632C182.511 68.9127 182.448 69.8133 182.65 70.6628C182.629 70.3935 182.684 70.1237 182.808 69.8837C182.932 69.6438 183.121 69.4434 183.353 69.3051C183.583 69.1854 183.844 69.14 184.1 69.1752C184.356 69.2103 184.595 69.3243 184.784 69.5013C185.09 69.7937 185.298 70.2587 185.697 70.3411C186.096 70.4235 186.483 70.0428 186.626 69.623C186.77 69.2031 186.762 68.7401 186.856 68.3045C187.035 67.4785 187.575 66.8016 187.874 66.0168C188.229 65.0615 188.219 64.0087 187.846 63.0601C187.65 62.5637 187.351 62.1164 187.151 61.62C186.846 60.8647 186.758 60.0132 186.394 59.2951C185.772 58.0924 184.3 57.4901 183.094 57.9433C182.517 58.1591 182.018 58.577 181.432 58.7653C180.646 59.0165 179.812 58.8281 179.002 58.7143C178.193 58.6005 177.295 58.5907 176.645 59.1244C175.894 59.7365 175.69 60.8902 174.985 61.5612C174.688 61.8437 174.321 62.0242 174.003 62.2851C173.684 62.5461 173.413 62.9365 173.458 63.3603C173.504 63.9077 174.048 64.4061 173.851 64.9142C173.78 65.0634 173.68 65.1968 173.557 65.3066C172.966 65.9245 172.527 66.6706 172.274 67.4864C173.692 67.9298 175.221 66.368 176.336 65.6303C177.055 65.1457 178.821 64.6709 179.403 65.6088Z" fill="#3F3D56"/>
<path opacity="0.1" d="M193.14 105.782L192.482 106.326C191.893 105.359 189.512 103.426 189.512 103.426L189.614 103.326L189.962 103.242L193.14 105.782Z" fill="black"/>
<path d="M193.783 104.803C193.783 104.803 193.547 105.392 193.301 105.902C193.056 106.412 192.789 106.883 192.777 106.491C192.749 105.749 189.677 103.261 189.677 103.261L190.093 102.857L190.577 102.388L193.783 104.803Z" fill="#E7EFFD"/>
<path opacity="0.1" d="M193.883 100.885L194.233 106.791C193.408 105.513 191.148 102.235 189.697 102.341L193.221 98.2914C193.367 98.129 193.502 97.9566 193.624 97.7754C193.757 99.4627 193.883 100.885 193.883 100.885Z" fill="black"/>
<path opacity="0.1" d="M193.783 104.803C193.783 104.803 193.547 105.392 193.301 105.902C192.378 104.637 191.107 103.142 190.094 102.863L190.577 102.394L193.783 104.803Z" fill="black"/>
<path d="M196.427 83.3921L197.382 84.1337C197.382 84.1337 198.971 84.1592 199.13 85.4836C199.289 86.8079 200.747 87.4142 200.747 87.4142C200.747 87.4142 201.833 88.4991 201.833 89.0034C201.833 89.5076 202.654 90.4062 202.654 90.4847C202.654 90.5631 203.44 92.1778 203.344 92.4702C203.248 92.7625 204.191 94.0398 203.9 94.5067C203.661 94.9347 203.448 95.377 203.263 95.8311C203.263 95.8311 202.018 98.2129 201.383 98.6622C200.749 99.1115 197.832 102.898 197.832 102.898C197.832 102.898 194.704 106.496 194.704 107.607C194.704 107.607 191.657 102.525 189.856 102.657L193.39 98.6092C193.39 98.6092 193.999 97.948 194.026 97.5517C194.054 97.1554 195.722 95.3288 196.517 95.2484C196.517 95.2484 196.649 94.1634 196.305 94.1379C195.961 94.1124 195.669 93.2628 195.669 93.2628C195.669 93.2628 193.337 90.5161 193.311 88.764C193.286 87.0119 196.427 83.3921 196.427 83.3921Z" fill="#65617D"/>
<path opacity="0.1" d="M197.831 85.9055C197.831 85.9055 195.606 87.5477 196.083 88.0755C196.56 88.6033 197.831 85.9055 197.831 85.9055Z" fill="black"/>
<path opacity="0.1" d="M197.938 92.6821C197.938 92.6821 202.063 91.3578 202.495 92.6821H197.938Z" fill="black"/>
<path opacity="0.1" d="M172.341 162.994C172.341 162.994 170.113 164.45 169.001 164.236C167.889 164.022 166.748 164.609 166.748 164.609C165.981 165.445 165.015 166.073 163.939 166.435C162.137 167.043 159.617 166.804 158.189 166.327C157.511 166.102 157.458 165.811 157.784 165.452C159.338 165.762 162.815 166.378 163.754 165.931C164.972 165.342 166.72 164.079 166.72 164.079C166.72 164.079 169.001 163.779 169.319 163.779C169.545 163.779 171.305 163.053 172.297 162.637L172.341 162.994Z" fill="black"/>
<path opacity="0.1" d="M185.823 165.978C185.809 166.068 185.801 166.125 185.801 166.125C185.801 166.125 185.271 167.289 182.33 167.712C179.389 168.136 179.383 166.731 179.383 166.731C179.383 166.731 179.395 166.58 179.415 166.353C180.348 166.708 182.389 167.102 185.823 165.978Z" fill="black"/>
<path opacity="0.1" d="M168.775 85.5876C168.775 85.5876 168.775 91.6227 168.258 92.2191C167.742 92.8156 168.775 85.5876 168.775 85.5876Z" fill="black"/>
<path opacity="0.1" d="M192.665 87.5339L193.433 89.6921C193.433 89.6921 193.738 87.5732 192.665 87.5339Z" fill="black"/>
<g opacity="0.1">
<path opacity="0.1" d="M173.926 64.4002C174.122 63.9038 173.614 63.4192 173.547 62.8835C173.479 63.0335 173.45 63.1981 173.462 63.3623C173.496 63.7645 173.792 64.1373 173.871 64.5081C173.892 64.4738 173.911 64.4377 173.926 64.4002Z" fill="black"/>
<path opacity="0.1" d="M182.721 70.1017C182.525 69.2659 182.587 68.383 182.395 67.5511C182.202 66.7192 181.609 65.8422 180.792 65.8285C180.442 65.8285 180.034 65.958 179.78 65.6951C179.627 65.5381 179.597 65.2889 179.482 65.0967C178.892 64.1588 177.136 64.6336 176.413 65.1143C175.329 65.8344 173.84 67.3392 172.451 66.9978C172.384 67.1587 172.321 67.3196 172.27 67.4864C173.688 67.9298 175.217 66.368 176.332 65.6303C177.055 65.1496 178.821 64.6748 179.403 65.6127C179.517 65.8089 179.548 66.0541 179.702 66.2111C179.953 66.474 180.362 66.3386 180.713 66.3445C181.525 66.3582 182.118 67.2176 182.314 68.0671C182.511 68.9167 182.448 69.8172 182.65 70.6667C182.638 70.4756 182.662 70.2838 182.721 70.1017Z" fill="black"/>
<path opacity="0.1" d="M186.711 69.109C186.565 69.5289 186.188 69.9134 185.78 69.8271C185.371 69.7408 185.173 69.2797 184.868 68.9874C184.68 68.8104 184.441 68.6964 184.184 68.6612C183.928 68.6261 183.667 68.6715 183.438 68.7912C183.217 68.9223 183.035 69.1104 182.911 69.3358C182.787 69.5611 182.726 69.8155 182.735 70.0723C182.84 69.7491 183.062 69.4764 183.357 69.3072C183.587 69.1875 183.848 69.1421 184.104 69.1772C184.36 69.2124 184.599 69.3264 184.788 69.5034C185.094 69.7957 185.302 70.2607 185.701 70.3431C186.1 70.4255 186.487 70.0449 186.63 69.625C186.706 69.3773 186.755 69.1221 186.776 68.8638C186.759 68.9467 186.737 69.0286 186.711 69.109Z" fill="black"/>
<path opacity="0.1" d="M187.952 65.5026C187.654 66.2874 187.115 66.9643 186.935 67.7903C186.899 67.9571 186.878 68.1278 186.858 68.2985C187.039 67.4764 187.575 66.7995 187.874 66.0186C188.006 65.6653 188.088 65.2957 188.119 64.9199C188.078 65.1179 188.022 65.3127 187.952 65.5026Z" fill="black"/>
</g>
</g>
<defs>
<linearGradient id="paint0_linear" x1="177.254" y1="168.03" x2="177.254" y2="57.1899" gradientUnits="userSpaceOnUse">
<stop stop-color="#808080" stop-opacity="0.25"/>
<stop offset="0.54" stop-color="#808080" stop-opacity="0.12"/>
<stop offset="1" stop-color="#808080" stop-opacity="0.1"/>
</linearGradient>
<clipPath id="clip0">
<rect width="226" height="170" fill="white"/>
</clipPath>
</defs>
</svg>
